%TF.GenerationSoftware,KiCad,Pcbnew,(6.0.0)*%
%TF.CreationDate,2022-08-25T16:51:24-03:00*%
%TF.ProjectId,BlankMSXCartHSH,426c616e-6b4d-4535-9843-617274485348,rev?*%
%TF.SameCoordinates,Original*%
%TF.FileFunction,Copper,L1,Top*%
%TF.FilePolarity,Positive*%
%FSLAX46Y46*%
G04 Gerber Fmt 4.6, Leading zero omitted, Abs format (unit mm)*
G04 Created by KiCad (PCBNEW (6.0.0)) date 2022-08-25 16:51:24*
%MOMM*%
%LPD*%
G01*
G04 APERTURE LIST*
G04 Aperture macros list*
%AMRoundRect*
0 Rectangle with rounded corners*
0 $1 Rounding radius*
0 $2 $3 $4 $5 $6 $7 $8 $9 X,Y pos of 4 corners*
0 Add a 4 corners polygon primitive as box body*
4,1,4,$2,$3,$4,$5,$6,$7,$8,$9,$2,$3,0*
0 Add four circle primitives for the rounded corners*
1,1,$1+$1,$2,$3*
1,1,$1+$1,$4,$5*
1,1,$1+$1,$6,$7*
1,1,$1+$1,$8,$9*
0 Add four rect primitives between the rounded corners*
20,1,$1+$1,$2,$3,$4,$5,0*
20,1,$1+$1,$4,$5,$6,$7,0*
20,1,$1+$1,$6,$7,$8,$9,0*
20,1,$1+$1,$8,$9,$2,$3,0*%
%AMOutline5P*
0 Free polygon, 5 corners , with rotation*
0 The origin of the aperture is its center*
0 number of corners: always 5*
0 $1 to $10 corner X, Y*
0 $11 Rotation angle, in degrees counterclockwise*
0 create outline with 5 corners*
4,1,5,$1,$2,$3,$4,$5,$6,$7,$8,$9,$10,$1,$2,$11*%
%AMOutline6P*
0 Free polygon, 6 corners , with rotation*
0 The origin of the aperture is its center*
0 number of corners: always 6*
0 $1 to $12 corner X, Y*
0 $13 Rotation angle, in degrees counterclockwise*
0 create outline with 6 corners*
4,1,6,$1,$2,$3,$4,$5,$6,$7,$8,$9,$10,$11,$12,$1,$2,$13*%
%AMOutline7P*
0 Free polygon, 7 corners , with rotation*
0 The origin of the aperture is its center*
0 number of corners: always 7*
0 $1 to $14 corner X, Y*
0 $15 Rotation angle, in degrees counterclockwise*
0 create outline with 7 corners*
4,1,7,$1,$2,$3,$4,$5,$6,$7,$8,$9,$10,$11,$12,$13,$14,$1,$2,$15*%
%AMOutline8P*
0 Free polygon, 8 corners , with rotation*
0 The origin of the aperture is its center*
0 number of corners: always 8*
0 $1 to $16 corner X, Y*
0 $17 Rotation angle, in degrees counterclockwise*
0 create outline with 8 corners*
4,1,8,$1,$2,$3,$4,$5,$6,$7,$8,$9,$10,$11,$12,$13,$14,$15,$16,$1,$2,$17*%
G04 Aperture macros list end*
%TA.AperFunction,SMDPad,CuDef*%
%ADD10RoundRect,0.137500X0.137500X-0.862500X0.137500X0.862500X-0.137500X0.862500X-0.137500X-0.862500X0*%
%TD*%
%TA.AperFunction,SMDPad,CuDef*%
%ADD11RoundRect,0.075000X0.650000X0.075000X-0.650000X0.075000X-0.650000X-0.075000X0.650000X-0.075000X0*%
%TD*%
%TA.AperFunction,SMDPad,CuDef*%
%ADD12RoundRect,0.150000X-1.374000X-0.150000X1.374000X-0.150000X1.374000X0.150000X-1.374000X0.150000X0*%
%TD*%
%TA.AperFunction,SMDPad,CuDef*%
%ADD13O,0.350000X1.600000*%
%TD*%
%TA.AperFunction,SMDPad,CuDef*%
%ADD14O,1.600000X0.350000*%
%TD*%
%TA.AperFunction,SMDPad,CuDef*%
%ADD15R,1.524000X7.366000*%
%TD*%
%TA.AperFunction,SMDPad,CuDef*%
%ADD16R,1.524000X6.350000*%
%TD*%
%TA.AperFunction,ComponentPad*%
%ADD17Outline8P,-0.800100X0.400050X-0.400050X0.800100X0.400050X0.800100X0.800100X0.400050X0.800100X-0.400050X0.400050X-0.800100X-0.400050X-0.800100X-0.800100X-0.400050X0.000000*%
%TD*%
%TA.AperFunction,ViaPad*%
%ADD18C,1.524000*%
%TD*%
%TA.AperFunction,ViaPad*%
%ADD19C,1.295400*%
%TD*%
%TA.AperFunction,Conductor*%
%ADD20C,0.210000*%
%TD*%
%TA.AperFunction,Conductor*%
%ADD21C,0.220000*%
%TD*%
%TA.AperFunction,Conductor*%
%ADD22C,0.508000*%
%TD*%
%TA.AperFunction,Conductor*%
%ADD23C,0.254000*%
%TD*%
G04 APERTURE END LIST*
D10*
%TO.P,U5,1,GND*%
%TO.N,unconnected-(U5-Pad1)*%
X101295000Y-122170000D03*
%TO.P,U5,2,RIN*%
%TO.N,unconnected-(U5-Pad2)*%
X102565000Y-122170000D03*
%TO.P,U5,3,GIN*%
%TO.N,unconnected-(U5-Pad3)*%
X103835000Y-122170000D03*
%TO.P,U5,4,BIN*%
%TO.N,unconnected-(U5-Pad4)*%
X105105000Y-122170000D03*
%TO.P,U5,5,NC*%
%TO.N,unconnected-(U5-Pad5)*%
X106375000Y-122170000D03*
%TO.P,U5,6,SCIN*%
%TO.N,unconnected-(U5-Pad6)*%
X107645000Y-122170000D03*
%TO.P,U5,7,NPIN*%
%TO.N,unconnected-(U5-Pad7)*%
X108915000Y-122170000D03*
%TO.P,U5,8,BFOUT*%
%TO.N,unconnected-(U5-Pad8)*%
X110185000Y-122170000D03*
%TO.P,U5,9,NC*%
%TO.N,unconnected-(U5-Pad9)*%
X111455000Y-122170000D03*
%TO.P,U5,10,SYNCIN*%
%TO.N,unconnected-(U5-Pad10)*%
X112725000Y-122170000D03*
%TO.P,U5,11,NC*%
%TO.N,unconnected-(U5-Pad11)*%
X113995000Y-122170000D03*
%TO.P,U5,12,VCC*%
%TO.N,unconnected-(U5-Pad12)*%
X115265000Y-122170000D03*
%TO.P,U5,13,NC*%
%TO.N,unconnected-(U5-Pad13)*%
X115265000Y-112870000D03*
%TO.P,U5,14,NC*%
%TO.N,unconnected-(U5-Pad14)*%
X113995000Y-112870000D03*
%TO.P,U5,15,COUT*%
%TO.N,unconnected-(U5-Pad15)*%
X112725000Y-112870000D03*
%TO.P,U5,16,YOUT*%
%TO.N,unconnected-(U5-Pad16)*%
X111455000Y-112870000D03*
%TO.P,U5,17,YTRAP*%
%TO.N,unconnected-(U5-Pad17)*%
X110185000Y-112870000D03*
%TO.P,U5,18,NC*%
%TO.N,unconnected-(U5-Pad18)*%
X108915000Y-112870000D03*
%TO.P,U5,19,VCC*%
%TO.N,unconnected-(U5-Pad19)*%
X107645000Y-112870000D03*
%TO.P,U5,20,CVOUT*%
%TO.N,unconnected-(U5-Pad20)*%
X106375000Y-112870000D03*
%TO.P,U5,21,BOUT*%
%TO.N,unconnected-(U5-Pad21)*%
X105105000Y-112870000D03*
%TO.P,U5,22,GOUT*%
%TO.N,unconnected-(U5-Pad22)*%
X103835000Y-112870000D03*
%TO.P,U5,23,ROUT*%
%TO.N,unconnected-(U5-Pad23)*%
X102565000Y-112870000D03*
%TO.P,U5,24,GND*%
%TO.N,unconnected-(U5-Pad24)*%
X101295000Y-112870000D03*
%TD*%
D11*
%TO.P,U4,1,REXT*%
%TO.N,unconnected-(U4-Pad1)*%
X85280000Y-117700000D03*
%TO.P,U4,2*%
%TO.N,N/C*%
X85280000Y-117200000D03*
%TO.P,U4,3*%
X85280000Y-116700000D03*
%TO.P,U4,4,VIN*%
%TO.N,unconnected-(U4-Pad4)*%
X85280000Y-116200000D03*
%TO.P,U4,5,~{HD}*%
%TO.N,unconnected-(U4-Pad5)*%
X85280000Y-115700000D03*
%TO.P,U4,6,HSOUT*%
%TO.N,unconnected-(U4-Pad6)*%
X80880000Y-115700000D03*
%TO.P,U4,7,VSOUT*%
%TO.N,unconnected-(U4-Pad7)*%
X80880000Y-116200000D03*
%TO.P,U4,8,CSOUT*%
%TO.N,unconnected-(U4-Pad8)*%
X80880000Y-116700000D03*
%TO.P,U4,9,BPOUT*%
%TO.N,unconnected-(U4-Pad9)*%
X80880000Y-117200000D03*
%TO.P,U4,10,OEOUT*%
%TO.N,unconnected-(U4-Pad10)*%
X80880000Y-117700000D03*
%TD*%
D12*
%TO.P,U3,28,N/C*%
%TO.N,unconnected-(U3-Pad28)*%
X138315000Y-118415000D03*
%TO.P,U3,27,~{CAS}*%
%TO.N,unconnected-(U3-Pad27)*%
X138315000Y-119685000D03*
%TO.P,U3,14,~{RAS}*%
%TO.N,unconnected-(U3-Pad14)*%
X129425000Y-119685000D03*
%TO.P,U3,8,W0/DQ0*%
%TO.N,unconnected-(U3-Pad8)*%
X129425000Y-112065000D03*
%TO.P,U3,6,SDQ3*%
%TO.N,unconnected-(U3-Pad6)*%
X129425000Y-109525000D03*
%TO.P,U3,21,VSS*%
%TO.N,unconnected-(U3-Pad21)*%
X138315000Y-127305000D03*
%TO.P,U3,1,VCC*%
%TO.N,unconnected-(U3-Pad1)*%
X129425000Y-103175000D03*
%TO.P,U3,2,SC*%
%TO.N,unconnected-(U3-Pad2)*%
X129425000Y-104445000D03*
%TO.P,U3,3,SDQ0*%
%TO.N,unconnected-(U3-Pad3)*%
X129425000Y-105715000D03*
%TO.P,U3,4,SDQ1*%
%TO.N,unconnected-(U3-Pad4)*%
X129425000Y-106985000D03*
%TO.P,U3,5,SDQ2*%
%TO.N,unconnected-(U3-Pad5)*%
X129425000Y-108255000D03*
%TO.P,U3,9,W1/DQ1*%
%TO.N,unconnected-(U3-Pad9)*%
X129425000Y-113335000D03*
%TO.P,U3,10,W2/DQ2*%
%TO.N,unconnected-(U3-Pad10)*%
X129425000Y-114605000D03*
%TO.P,U3,11,W3/DQ3*%
%TO.N,unconnected-(U3-Pad11)*%
X129425000Y-115875000D03*
%TO.P,U3,12,~{WB}/~{WE}*%
%TO.N,unconnected-(U3-Pad12)*%
X129425000Y-117145000D03*
%TO.P,U3,13,VSS*%
%TO.N,unconnected-(U3-Pad13)*%
X129425000Y-118415000D03*
%TO.P,U3,22,A3*%
%TO.N,unconnected-(U3-Pad22)*%
X138315000Y-126035000D03*
%TO.P,U3,23,A2*%
%TO.N,unconnected-(U3-Pad23)*%
X138315000Y-124765000D03*
%TO.P,U3,24,A1*%
%TO.N,unconnected-(U3-Pad24)*%
X138315000Y-123495000D03*
%TO.P,U3,25,A0*%
%TO.N,unconnected-(U3-Pad25)*%
X138315000Y-122225000D03*
%TO.P,U3,26,QSF*%
%TO.N,unconnected-(U3-Pad26)*%
X138315000Y-120955000D03*
%TO.P,U3,7,~{DT}/~{OE}*%
%TO.N,unconnected-(U3-Pad7)*%
X129425000Y-110795000D03*
%TO.P,U3,15,A8*%
%TO.N,unconnected-(U3-Pad15)*%
X129425000Y-120955000D03*
%TO.P,U3,16,A7*%
%TO.N,unconnected-(U3-Pad16)*%
X129425000Y-122225000D03*
%TO.P,U3,17,A6*%
%TO.N,unconnected-(U3-Pad17)*%
X129425000Y-123495000D03*
%TO.P,U3,18,A5*%
%TO.N,unconnected-(U3-Pad18)*%
X129425000Y-124765000D03*
%TO.P,U3,19,A4*%
%TO.N,unconnected-(U3-Pad19)*%
X129425000Y-126035000D03*
%TO.P,U3,20,VCC*%
%TO.N,unconnected-(U3-Pad20)*%
X129425000Y-127305000D03*
%TO.P,U3,36,SDQ4*%
%TO.N,unconnected-(U3-Pad36)*%
X138315000Y-108255000D03*
%TO.P,U3,35,~{SE}*%
%TO.N,unconnected-(U3-Pad35)*%
X138315000Y-109525000D03*
%TO.P,U3,29,DSF*%
%TO.N,unconnected-(U3-Pad29)*%
X138315000Y-117145000D03*
%TO.P,U3,30,VSS*%
%TO.N,unconnected-(U3-Pad30)*%
X138315000Y-115875000D03*
%TO.P,U3,31,W4/DQ4*%
%TO.N,unconnected-(U3-Pad31)*%
X138315000Y-114605000D03*
%TO.P,U3,32,W5/DQ5*%
%TO.N,unconnected-(U3-Pad32)*%
X138315000Y-113335000D03*
%TO.P,U3,33,W6/DQ6*%
%TO.N,unconnected-(U3-Pad33)*%
X138315000Y-112065000D03*
%TO.P,U3,34,W7/DQ7*%
%TO.N,unconnected-(U3-Pad34)*%
X138315000Y-110795000D03*
%TO.P,U3,37,SDQ5*%
%TO.N,unconnected-(U3-Pad37)*%
X138315000Y-106985000D03*
%TO.P,U3,38,SDQ6*%
%TO.N,unconnected-(U3-Pad38)*%
X138315000Y-105715000D03*
%TO.P,U3,40,VSS*%
%TO.N,unconnected-(U3-Pad40)*%
X138315000Y-103175000D03*
%TO.P,U3,39,SDQ7*%
%TO.N,unconnected-(U3-Pad39)*%
X138315000Y-104445000D03*
%TD*%
%TO.P,U2,39,SDQ7*%
%TO.N,unconnected-(U2-Pad39)*%
X138385000Y-64045000D03*
%TO.P,U2,40,VSS*%
%TO.N,unconnected-(U2-Pad40)*%
X138385000Y-62775000D03*
%TO.P,U2,38,SDQ6*%
%TO.N,unconnected-(U2-Pad38)*%
X138385000Y-65315000D03*
%TO.P,U2,37,SDQ5*%
%TO.N,unconnected-(U2-Pad37)*%
X138385000Y-66585000D03*
%TO.P,U2,34,W7/DQ7*%
%TO.N,unconnected-(U2-Pad34)*%
X138385000Y-70395000D03*
%TO.P,U2,33,W6/DQ6*%
%TO.N,unconnected-(U2-Pad33)*%
X138385000Y-71665000D03*
%TO.P,U2,32,W5/DQ5*%
%TO.N,unconnected-(U2-Pad32)*%
X138385000Y-72935000D03*
%TO.P,U2,31,W4/DQ4*%
%TO.N,unconnected-(U2-Pad31)*%
X138385000Y-74205000D03*
%TO.P,U2,30,VSS*%
%TO.N,unconnected-(U2-Pad30)*%
X138385000Y-75475000D03*
%TO.P,U2,29,DSF*%
%TO.N,unconnected-(U2-Pad29)*%
X138385000Y-76745000D03*
%TO.P,U2,35,~{SE}*%
%TO.N,unconnected-(U2-Pad35)*%
X138385000Y-69125000D03*
%TO.P,U2,36,SDQ4*%
%TO.N,unconnected-(U2-Pad36)*%
X138385000Y-67855000D03*
%TO.P,U2,20,VCC*%
%TO.N,unconnected-(U2-Pad20)*%
X129495000Y-86905000D03*
%TO.P,U2,19,A4*%
%TO.N,unconnected-(U2-Pad19)*%
X129495000Y-85635000D03*
%TO.P,U2,18,A5*%
%TO.N,unconnected-(U2-Pad18)*%
X129495000Y-84365000D03*
%TO.P,U2,17,A6*%
%TO.N,unconnected-(U2-Pad17)*%
X129495000Y-83095000D03*
%TO.P,U2,16,A7*%
%TO.N,unconnected-(U2-Pad16)*%
X129495000Y-81825000D03*
%TO.P,U2,15,A8*%
%TO.N,unconnected-(U2-Pad15)*%
X129495000Y-80555000D03*
%TO.P,U2,7,~{DT}/~{OE}*%
%TO.N,unconnected-(U2-Pad7)*%
X129495000Y-70395000D03*
%TO.P,U2,26,QSF*%
%TO.N,unconnected-(U2-Pad26)*%
X138385000Y-80555000D03*
%TO.P,U2,25,A0*%
%TO.N,unconnected-(U2-Pad25)*%
X138385000Y-81825000D03*
%TO.P,U2,24,A1*%
%TO.N,unconnected-(U2-Pad24)*%
X138385000Y-83095000D03*
%TO.P,U2,23,A2*%
%TO.N,unconnected-(U2-Pad23)*%
X138385000Y-84365000D03*
%TO.P,U2,22,A3*%
%TO.N,unconnected-(U2-Pad22)*%
X138385000Y-85635000D03*
%TO.P,U2,13,VSS*%
%TO.N,unconnected-(U2-Pad13)*%
X129495000Y-78015000D03*
%TO.P,U2,12,~{WB}/~{WE}*%
%TO.N,unconnected-(U2-Pad12)*%
X129495000Y-76745000D03*
%TO.P,U2,11,W3/DQ3*%
%TO.N,unconnected-(U2-Pad11)*%
X129495000Y-75475000D03*
%TO.P,U2,10,W2/DQ2*%
%TO.N,unconnected-(U2-Pad10)*%
X129495000Y-74205000D03*
%TO.P,U2,9,W1/DQ1*%
%TO.N,unconnected-(U2-Pad9)*%
X129495000Y-72935000D03*
%TO.P,U2,5,SDQ2*%
%TO.N,unconnected-(U2-Pad5)*%
X129495000Y-67855000D03*
%TO.P,U2,4,SDQ1*%
%TO.N,unconnected-(U2-Pad4)*%
X129495000Y-66585000D03*
%TO.P,U2,3,SDQ0*%
%TO.N,unconnected-(U2-Pad3)*%
X129495000Y-65315000D03*
%TO.P,U2,2,SC*%
%TO.N,unconnected-(U2-Pad2)*%
X129495000Y-64045000D03*
%TO.P,U2,1,VCC*%
%TO.N,unconnected-(U2-Pad1)*%
X129495000Y-62775000D03*
%TO.P,U2,21,VSS*%
%TO.N,unconnected-(U2-Pad21)*%
X138385000Y-86905000D03*
%TO.P,U2,6,SDQ3*%
%TO.N,unconnected-(U2-Pad6)*%
X129495000Y-69125000D03*
%TO.P,U2,8,W0/DQ0*%
%TO.N,unconnected-(U2-Pad8)*%
X129495000Y-71665000D03*
%TO.P,U2,14,~{RAS}*%
%TO.N,unconnected-(U2-Pad14)*%
X129495000Y-79285000D03*
%TO.P,U2,27,~{CAS}*%
%TO.N,unconnected-(U2-Pad27)*%
X138385000Y-79285000D03*
%TO.P,U2,28,N/C*%
%TO.N,unconnected-(U2-Pad28)*%
X138385000Y-78015000D03*
%TD*%
D13*
%TO.P,U1,128,~{WAIT}*%
%TO.N,unconnected-(U1-Pad128)*%
X76930000Y-63050000D03*
%TO.P,U1,127,~{INT1}*%
%TO.N,unconnected-(U1-Pad127)*%
X77730000Y-63050000D03*
%TO.P,U1,126,~{INT0}*%
%TO.N,unconnected-(U1-Pad126)*%
X78530000Y-63050000D03*
%TO.P,U1,125,~{DREQ}*%
%TO.N,unconnected-(U1-Pad125)*%
X79330000Y-63050000D03*
%TO.P,U1,124,~{VMREQ}*%
%TO.N,unconnected-(U1-Pad124)*%
X80130000Y-63050000D03*
%TO.P,U1,123,VCC*%
%TO.N,unconnected-(U1-Pad123)*%
X80930000Y-63050000D03*
%TO.P,U1,122,CD7*%
%TO.N,unconnected-(U1-Pad122)*%
X81730000Y-63050000D03*
%TO.P,U1,121,CD6*%
%TO.N,unconnected-(U1-Pad121)*%
X82530000Y-63050000D03*
%TO.P,U1,120,CD5*%
%TO.N,unconnected-(U1-Pad120)*%
X83330000Y-63050000D03*
%TO.P,U1,119,CD4*%
%TO.N,unconnected-(U1-Pad119)*%
X84130000Y-63050000D03*
%TO.P,U1,118,GND*%
%TO.N,unconnected-(U1-Pad118)*%
X84930000Y-63050000D03*
%TO.P,U1,117,CD3*%
%TO.N,unconnected-(U1-Pad117)*%
X85730000Y-63050000D03*
%TO.P,U1,116,CD2*%
%TO.N,unconnected-(U1-Pad116)*%
X86530000Y-63050000D03*
%TO.P,U1,115,CD1*%
%TO.N,unconnected-(U1-Pad115)*%
X87330000Y-63050000D03*
%TO.P,U1,114,CD0*%
%TO.N,unconnected-(U1-Pad114)*%
X88130000Y-63050000D03*
%TO.P,U1,113,MCKIN*%
%TO.N,unconnected-(U1-Pad113)*%
X88930000Y-63050000D03*
%TO.P,U1,112,DLCLK*%
%TO.N,unconnected-(U1-Pad112)*%
X89730000Y-63050000D03*
%TO.P,U1,111,DHCLK*%
%TO.N,unconnected-(U1-Pad111)*%
X90530000Y-63050000D03*
%TO.P,U1,110,~{RESET}*%
%TO.N,unconnected-(U1-Pad110)*%
X91330000Y-63050000D03*
%TO.P,U1,109,CB7*%
%TO.N,unconnected-(U1-Pad109)*%
X92130000Y-63050000D03*
%TO.P,U1,108,FSC/CB6*%
%TO.N,unconnected-(U1-Pad108)*%
X92930000Y-63050000D03*
%TO.P,U1,107,GND*%
%TO.N,unconnected-(U1-Pad107)*%
X93730000Y-63050000D03*
%TO.P,U1,106,~{VRESET}/CB5*%
%TO.N,unconnected-(U1-Pad106)*%
X94530000Y-63050000D03*
%TO.P,U1,105,~{HRESET}/CB4*%
%TO.N,unconnected-(U1-Pad105)*%
X95330000Y-63050000D03*
%TO.P,U1,104,SHCK*%
%TO.N,unconnected-(U1-Pad104)*%
X96130000Y-63050000D03*
%TO.P,U1,103,~{BLANK}/M*%
%TO.N,unconnected-(U1-Pad103)*%
X96930000Y-63050000D03*
%TO.P,U1,102,~{CSYNC}/FLM*%
%TO.N,unconnected-(U1-Pad102)*%
X97730000Y-63050000D03*
%TO.P,U1,101,~{HSYNC}/LC*%
%TO.N,unconnected-(U1-Pad101)*%
X98530000Y-63050000D03*
%TO.P,U1,100,GND*%
%TO.N,unconnected-(U1-Pad100)*%
X99330000Y-63050000D03*
%TO.P,U1,99,XTAL2*%
%TO.N,unconnected-(U1-Pad99)*%
X100130000Y-63050000D03*
%TO.P,U1,98,XTAL1*%
%TO.N,unconnected-(U1-Pad98)*%
X100930000Y-63050000D03*
%TO.P,U1,97,VCC*%
%TO.N,unconnected-(U1-Pad97)*%
X101730000Y-63050000D03*
D14*
%TO.P,U1,96,AVCC*%
%TO.N,unconnected-(U1-Pad96)*%
X104930000Y-66250000D03*
%TO.P,U1,95,B/D31/CB1*%
%TO.N,unconnected-(U1-Pad95)*%
X104930000Y-67050000D03*
%TO.P,U1,94,G/D2/CB2*%
%TO.N,unconnected-(U1-Pad94)*%
X104930000Y-67850000D03*
%TO.P,U1,93,R/D3/CB3*%
%TO.N,unconnected-(U1-Pad93)*%
X104930000Y-68650000D03*
%TO.P,U1,92,AGND*%
%TO.N,unconnected-(U1-Pad92)*%
X104930000Y-69450000D03*
%TO.P,U1,91,~{YS}/D0/CB0*%
%TO.N,unconnected-(U1-Pad91)*%
X104930000Y-70250000D03*
%TO.P,U1,90,V1D7*%
%TO.N,unconnected-(U1-Pad90)*%
X104930000Y-71050000D03*
%TO.P,U1,89,V1D6*%
%TO.N,unconnected-(U1-Pad89)*%
X104930000Y-71850000D03*
%TO.P,U1,88,V1D5*%
%TO.N,unconnected-(U1-Pad88)*%
X104930000Y-72650000D03*
%TO.P,U1,87,V1D4*%
%TO.N,unconnected-(U1-Pad87)*%
X104930000Y-73450000D03*
%TO.P,U1,86,GND*%
%TO.N,unconnected-(U1-Pad86)*%
X104930000Y-74250000D03*
%TO.P,U1,85,V1D3*%
%TO.N,unconnected-(U1-Pad85)*%
X104930000Y-75050000D03*
%TO.P,U1,84,V1D2*%
%TO.N,unconnected-(U1-Pad84)*%
X104930000Y-75850000D03*
%TO.P,U1,83,V1D1*%
%TO.N,unconnected-(U1-Pad83)*%
X104930000Y-76650000D03*
%TO.P,U1,82,V1D0*%
%TO.N,unconnected-(U1-Pad82)*%
X104930000Y-77450000D03*
%TO.P,U1,81,VCC*%
%TO.N,unconnected-(U1-Pad81)*%
X104930000Y-78250000D03*
%TO.P,U1,80,V1A0*%
%TO.N,unconnected-(U1-Pad80)*%
X104930000Y-79050000D03*
%TO.P,U1,79,V1A1*%
%TO.N,unconnected-(U1-Pad79)*%
X104930000Y-79850000D03*
%TO.P,U1,78,V1A2*%
%TO.N,unconnected-(U1-Pad78)*%
X104930000Y-80650000D03*
%TO.P,U1,77,V1A3*%
%TO.N,unconnected-(U1-Pad77)*%
X104930000Y-81450000D03*
%TO.P,U1,76,V1A4*%
%TO.N,unconnected-(U1-Pad76)*%
X104930000Y-82250000D03*
%TO.P,U1,75,GND*%
%TO.N,unconnected-(U1-Pad75)*%
X104930000Y-83050000D03*
%TO.P,U1,74,V1A5*%
%TO.N,unconnected-(U1-Pad74)*%
X104930000Y-83850000D03*
%TO.P,U1,73,V1A6*%
%TO.N,unconnected-(U1-Pad73)*%
X104930000Y-84650000D03*
%TO.P,U1,72,V1A7*%
%TO.N,unconnected-(U1-Pad72)*%
X104930000Y-85450000D03*
%TO.P,U1,71,V1A8*%
%TO.N,unconnected-(U1-Pad71)*%
X104930000Y-86250000D03*
%TO.P,U1,70,ASEL*%
%TO.N,unconnected-(U1-Pad70)*%
X104930000Y-87050000D03*
%TO.P,U1,69,~{VMBG}*%
%TO.N,unconnected-(U1-Pad69)*%
X104930000Y-87850000D03*
%TO.P,U1,68,~{V1SOE}*%
%TO.N,unconnected-(U1-Pad68)*%
X104930000Y-88650000D03*
%TO.P,U1,67,V1SC*%
%TO.N,unconnected-(U1-Pad67)*%
X104930000Y-89450000D03*
%TO.P,U1,66,~{V1TR}/~{OE}*%
%TO.N,unconnected-(U1-Pad66)*%
X104930000Y-90250000D03*
%TO.P,U1,65,~{V1WE}*%
%TO.N,unconnected-(U1-Pad65)*%
X104930000Y-91050000D03*
D13*
%TO.P,U1,64,GND*%
%TO.N,unconnected-(U1-Pad64)*%
X101730000Y-94250000D03*
%TO.P,U1,63,~{V1CAS}*%
%TO.N,unconnected-(U1-Pad63)*%
X100930000Y-94250000D03*
%TO.P,U1,62,~{V1RAS}*%
%TO.N,unconnected-(U1-Pad62)*%
X100130000Y-94250000D03*
%TO.P,U1,61,V1S0*%
%TO.N,unconnected-(U1-Pad61)*%
X99330000Y-94250000D03*
%TO.P,U1,60,V1S1*%
%TO.N,unconnected-(U1-Pad60)*%
X98530000Y-94250000D03*
%TO.P,U1,59,V1S2*%
%TO.N,unconnected-(U1-Pad59)*%
X97730000Y-94250000D03*
%TO.P,U1,58,V1S3*%
%TO.N,unconnected-(U1-Pad58)*%
X96930000Y-94250000D03*
%TO.P,U1,57,V1S4*%
%TO.N,unconnected-(U1-Pad57)*%
X96130000Y-94250000D03*
%TO.P,U1,56,V1S5*%
%TO.N,unconnected-(U1-Pad56)*%
X95330000Y-94250000D03*
%TO.P,U1,55,V1S6*%
%TO.N,unconnected-(U1-Pad55)*%
X94530000Y-94250000D03*
%TO.P,U1,54,V1S7*%
%TO.N,unconnected-(U1-Pad54)*%
X93730000Y-94250000D03*
%TO.P,U1,53,VCC*%
%TO.N,unconnected-(U1-Pad53)*%
X92930000Y-94250000D03*
%TO.P,U1,52,V0S0*%
%TO.N,unconnected-(U1-Pad52)*%
X92130000Y-94250000D03*
%TO.P,U1,51,V0S1*%
%TO.N,unconnected-(U1-Pad51)*%
X91330000Y-94250000D03*
%TO.P,U1,50,V0S2*%
%TO.N,unconnected-(U1-Pad50)*%
X90530000Y-94250000D03*
%TO.P,U1,49,V0S3*%
%TO.N,unconnected-(U1-Pad49)*%
X89730000Y-94250000D03*
%TO.P,U1,48,V0S4*%
%TO.N,unconnected-(U1-Pad48)*%
X88930000Y-94250000D03*
%TO.P,U1,47,V0S5*%
%TO.N,unconnected-(U1-Pad47)*%
X88130000Y-94250000D03*
%TO.P,U1,46,V0S6*%
%TO.N,unconnected-(U1-Pad46)*%
X87330000Y-94250000D03*
%TO.P,U1,45,V0S7*%
%TO.N,unconnected-(U1-Pad45)*%
X86530000Y-94250000D03*
%TO.P,U1,44,GND*%
%TO.N,unconnected-(U1-Pad44)*%
X85730000Y-94250000D03*
%TO.P,U1,43,~{V0SOE}*%
%TO.N,unconnected-(U1-Pad43)*%
X84930000Y-94250000D03*
%TO.P,U1,42,V0SC*%
%TO.N,unconnected-(U1-Pad42)*%
X84130000Y-94250000D03*
%TO.P,U1,41,~{V0TR}/~{OE}*%
%TO.N,unconnected-(U1-Pad41)*%
X83330000Y-94250000D03*
%TO.P,U1,40,~{V0WE}*%
%TO.N,unconnected-(U1-Pad40)*%
X82530000Y-94250000D03*
%TO.P,U1,39,~{V0CAS}*%
%TO.N,unconnected-(U1-Pad39)*%
X81730000Y-94250000D03*
%TO.P,U1,38,~{V0RAS}*%
%TO.N,unconnected-(U1-Pad38)*%
X80930000Y-94250000D03*
%TO.P,U1,37,~{KOE}*%
%TO.N,unconnected-(U1-Pad37)*%
X80130000Y-94250000D03*
%TO.P,U1,36,V0D0/DK0*%
%TO.N,unconnected-(U1-Pad36)*%
X79330000Y-94250000D03*
%TO.P,U1,35,V0D1/DK1*%
%TO.N,unconnected-(U1-Pad35)*%
X78530000Y-94250000D03*
%TO.P,U1,34,V0D2/DK2*%
%TO.N,unconnected-(U1-Pad34)*%
X77730000Y-94250000D03*
%TO.P,U1,33,V0D3/DK3*%
%TO.N,unconnected-(U1-Pad33)*%
X76930000Y-94250000D03*
D14*
%TO.P,U1,32,GND*%
%TO.N,unconnected-(U1-Pad32)*%
X73730000Y-91050000D03*
%TO.P,U1,31,V0D4/DK4*%
%TO.N,unconnected-(U1-Pad31)*%
X73730000Y-90250000D03*
%TO.P,U1,30,V0D5/DK5*%
%TO.N,unconnected-(U1-Pad30)*%
X73730000Y-89450000D03*
%TO.P,U1,29,V0D6/DK6*%
%TO.N,unconnected-(U1-Pad29)*%
X73730000Y-88650000D03*
%TO.P,U1,28,V0D7/DK7*%
%TO.N,unconnected-(U1-Pad28)*%
X73730000Y-87850000D03*
%TO.P,U1,27,VCC*%
%TO.N,unconnected-(U1-Pad27)*%
X73730000Y-87050000D03*
%TO.P,U1,26,V0A0/KA0*%
%TO.N,unconnected-(U1-Pad26)*%
X73730000Y-86250000D03*
%TO.P,U1,25,V0A1/KA1*%
%TO.N,unconnected-(U1-Pad25)*%
X73730000Y-85450000D03*
%TO.P,U1,24,V0A2/KA2*%
%TO.N,unconnected-(U1-Pad24)*%
X73730000Y-84650000D03*
%TO.P,U1,23,V0A3/KA3*%
%TO.N,unconnected-(U1-Pad23)*%
X73730000Y-83850000D03*
%TO.P,U1,22,V0A4/KA4*%
%TO.N,unconnected-(U1-Pad22)*%
X73730000Y-83050000D03*
%TO.P,U1,21,V0A5/KA5*%
%TO.N,unconnected-(U1-Pad21)*%
X73730000Y-82250000D03*
%TO.P,U1,20,V0A6/KA6*%
%TO.N,unconnected-(U1-Pad20)*%
X73730000Y-81450000D03*
%TO.P,U1,19,V0A7/KA7*%
%TO.N,unconnected-(U1-Pad19)*%
X73730000Y-80650000D03*
%TO.P,U1,18,V0A8/KA8*%
%TO.N,unconnected-(U1-Pad18)*%
X73730000Y-79850000D03*
%TO.P,U1,17,GND*%
%TO.N,unconnected-(U1-Pad17)*%
X73730000Y-79050000D03*
%TO.P,U1,16,KA9*%
%TO.N,unconnected-(U1-Pad16)*%
X73730000Y-78250000D03*
%TO.P,U1,15,KA10*%
%TO.N,unconnected-(U1-Pad15)*%
X73730000Y-77450000D03*
%TO.P,U1,14,KA11*%
%TO.N,unconnected-(U1-Pad14)*%
X73730000Y-76650000D03*
%TO.P,U1,13,KA12*%
%TO.N,unconnected-(U1-Pad13)*%
X73730000Y-75850000D03*
%TO.P,U1,12,KA13*%
%TO.N,unconnected-(U1-Pad12)*%
X73730000Y-75050000D03*
%TO.P,U1,11,KA14*%
%TO.N,unconnected-(U1-Pad11)*%
X73730000Y-74250000D03*
%TO.P,U1,10,KA15*%
%TO.N,unconnected-(U1-Pad10)*%
X73730000Y-73450000D03*
%TO.P,U1,9,KA16*%
%TO.N,unconnected-(U1-Pad9)*%
X73730000Y-72650000D03*
%TO.P,U1,8,KA17*%
%TO.N,unconnected-(U1-Pad8)*%
X73730000Y-71850000D03*
%TO.P,U1,7,MODE3*%
%TO.N,unconnected-(U1-Pad7)*%
X73730000Y-71050000D03*
%TO.P,U1,6,MODE2*%
%TO.N,unconnected-(U1-Pad6)*%
X73730000Y-70250000D03*
%TO.P,U1,5,MODE1*%
%TO.N,unconnected-(U1-Pad5)*%
X73730000Y-69450000D03*
%TO.P,U1,4,MODE0*%
%TO.N,unconnected-(U1-Pad4)*%
X73730000Y-68650000D03*
%TO.P,U1,3,~{CSR}*%
%TO.N,unconnected-(U1-Pad3)*%
X73730000Y-67850000D03*
%TO.P,U1,2,~{CSW}*%
%TO.N,unconnected-(U1-Pad2)*%
X73730000Y-67050000D03*
%TO.P,U1,1,GND*%
%TO.N,unconnected-(U1-Pad1)*%
X73730000Y-66250000D03*
%TD*%
D15*
%TO.P,CN1,2*%
%TO.N,N$1*%
X140190000Y-178533000D03*
%TO.P,CN1,4*%
%TO.N,N$2*%
X137650000Y-178533000D03*
%TO.P,CN1,6*%
%TO.N,N$4*%
X135110000Y-178533000D03*
%TO.P,CN1,8*%
%TO.N,N$6*%
X132570000Y-178533000D03*
%TO.P,CN1,10*%
%TO.N,N$7*%
X130030000Y-178533000D03*
%TO.P,CN1,12*%
%TO.N,N$8*%
X127490000Y-178533000D03*
%TO.P,CN1,14*%
%TO.N,N$9*%
X124950000Y-178533000D03*
%TO.P,CN1,16*%
%TO.N,N$10*%
X122410000Y-178533000D03*
%TO.P,CN1,18*%
%TO.N,N$11*%
X119870000Y-178533000D03*
%TO.P,CN1,20*%
%TO.N,N$12*%
X117330000Y-178533000D03*
%TO.P,CN1,22*%
%TO.N,N$13*%
X114790000Y-178533000D03*
%TO.P,CN1,24*%
%TO.N,N$14*%
X112250000Y-178533000D03*
%TO.P,CN1,26*%
%TO.N,N$15*%
X109710000Y-178533000D03*
%TO.P,CN1,28*%
%TO.N,N$16*%
X107170000Y-178533000D03*
%TO.P,CN1,30*%
%TO.N,N$17*%
X104630000Y-178533000D03*
%TO.P,CN1,32*%
%TO.N,N$18*%
X102090000Y-178533000D03*
%TO.P,CN1,34*%
%TO.N,N$19*%
X99550000Y-178533000D03*
%TO.P,CN1,36*%
%TO.N,N$20*%
X97010000Y-178533000D03*
%TO.P,CN1,38*%
%TO.N,N$21*%
X94470000Y-178533000D03*
%TO.P,CN1,40*%
%TO.N,N$22*%
X91930000Y-178533000D03*
%TO.P,CN1,42*%
%TO.N,N$23*%
X89390000Y-178533000D03*
D16*
%TO.P,CN1,44*%
%TO.N,N$24*%
X86850000Y-178025000D03*
D15*
%TO.P,CN1,46*%
%TO.N,N$25*%
X84310000Y-178533000D03*
%TO.P,CN1,48*%
%TO.N,N$26*%
X81770000Y-178533000D03*
%TO.P,CN1,50*%
%TO.N,N$27*%
X79230000Y-178533000D03*
%TD*%
D17*
%TO.P,PAD1,1*%
%TO.N,N$1*%
X140190000Y-167230000D03*
%TD*%
%TO.P,PAD2,1*%
%TO.N,N$2*%
X137650000Y-167230000D03*
%TD*%
%TO.P,PAD3,1*%
%TO.N,N$4*%
X135110000Y-167230000D03*
%TD*%
%TO.P,PAD4,1*%
%TO.N,N$6*%
X132570000Y-167230000D03*
%TD*%
%TO.P,PAD5,1*%
%TO.N,N$7*%
X130030000Y-167230000D03*
%TD*%
%TO.P,PAD6,1*%
%TO.N,N$8*%
X127490000Y-167230000D03*
%TD*%
%TO.P,PAD7,1*%
%TO.N,N$9*%
X124950000Y-167230000D03*
%TD*%
%TO.P,PAD8,1*%
%TO.N,N$10*%
X122410000Y-167230000D03*
%TD*%
%TO.P,PAD9,1*%
%TO.N,N$11*%
X119870000Y-167230000D03*
%TD*%
%TO.P,PAD10,1*%
%TO.N,N$12*%
X117330000Y-167230000D03*
%TD*%
%TO.P,PAD11,1*%
%TO.N,N$13*%
X114790000Y-167230000D03*
%TD*%
%TO.P,PAD12,1*%
%TO.N,N$14*%
X112250000Y-167230000D03*
%TD*%
%TO.P,PAD13,1*%
%TO.N,N$15*%
X109710000Y-167230000D03*
%TD*%
%TO.P,PAD14,1*%
%TO.N,N$16*%
X107170000Y-167230000D03*
%TD*%
%TO.P,PAD15,1*%
%TO.N,N$17*%
X104630000Y-167230000D03*
%TD*%
%TO.P,PAD16,1*%
%TO.N,N$18*%
X102090000Y-167230000D03*
%TD*%
%TO.P,PAD17,1*%
%TO.N,N$19*%
X99550000Y-167230000D03*
%TD*%
%TO.P,PAD18,1*%
%TO.N,N$20*%
X97010000Y-167230000D03*
%TD*%
%TO.P,PAD19,1*%
%TO.N,N$21*%
X94470000Y-167230000D03*
%TD*%
%TO.P,PAD20,1*%
%TO.N,N$22*%
X91930000Y-167230000D03*
%TD*%
%TO.P,PAD21,1*%
%TO.N,N$23*%
X89390000Y-167230000D03*
%TD*%
%TO.P,PAD22,1*%
%TO.N,N$24*%
X86850000Y-167230000D03*
%TD*%
%TO.P,PAD23,1*%
%TO.N,N$25*%
X84310000Y-167230000D03*
%TD*%
%TO.P,PAD24,1*%
%TO.N,N$26*%
X81770000Y-167230000D03*
%TD*%
%TO.P,PAD25,1*%
%TO.N,N$27*%
X79230000Y-167230000D03*
%TD*%
%TO.P,PAD26,1*%
%TO.N,N$28*%
X140190000Y-162150000D03*
%TD*%
%TO.P,PAD27,1*%
%TO.N,N$29*%
X137650000Y-162150000D03*
%TD*%
%TO.P,PAD29,1*%
%TO.N,N$31*%
X132570000Y-162150000D03*
%TD*%
%TO.P,PAD30,1*%
%TO.N,N$32*%
X130030000Y-162150000D03*
%TD*%
%TO.P,PAD31,1*%
%TO.N,N$33*%
X127490000Y-162150000D03*
%TD*%
%TO.P,PAD32,1*%
%TO.N,N$34*%
X79230000Y-162150000D03*
%TD*%
%TO.P,PAD33,1*%
%TO.N,+5V*%
X81770000Y-162150000D03*
%TD*%
%TO.P,PAD34,1*%
%TO.N,+5V*%
X84310000Y-162150000D03*
%TD*%
%TO.P,PAD37,1*%
%TO.N,N$39*%
X91930000Y-162150000D03*
%TD*%
%TO.P,PAD38,1*%
%TO.N,N$40*%
X94470000Y-162150000D03*
%TD*%
%TO.P,PAD39,1*%
%TO.N,N$41*%
X97010000Y-162150000D03*
%TD*%
%TO.P,PAD40,1*%
%TO.N,N$42*%
X99550000Y-162150000D03*
%TD*%
%TO.P,PAD41,1*%
%TO.N,N$43*%
X102090000Y-162150000D03*
%TD*%
%TO.P,PAD42,1*%
%TO.N,N$44*%
X104630000Y-162150000D03*
%TD*%
%TO.P,PAD43,1*%
%TO.N,N$45*%
X107170000Y-162150000D03*
%TD*%
%TO.P,PAD44,1*%
%TO.N,N$46*%
X109710000Y-162150000D03*
%TD*%
%TO.P,PAD45,1*%
%TO.N,N$47*%
X112250000Y-162150000D03*
%TD*%
%TO.P,PAD46,1*%
%TO.N,N$48*%
X114790000Y-162150000D03*
%TD*%
%TO.P,PAD47,1*%
%TO.N,N$49*%
X117330000Y-162150000D03*
%TD*%
%TO.P,PAD48,1*%
%TO.N,N$302*%
X119870000Y-162150000D03*
%TD*%
%TO.P,PAD49,1*%
%TO.N,N$303*%
X122410000Y-162150000D03*
%TD*%
%TO.P,PAD50,1*%
%TO.N,N$304*%
X124950000Y-162150000D03*
%TD*%
%TO.P,PAD28,1*%
%TO.N,GND*%
X86850000Y-162150000D03*
%TD*%
%TO.P,PAD35,1*%
%TO.N,GND*%
X89390000Y-162150000D03*
%TD*%
%TO.P,PAD36,1*%
%TO.N,N$30*%
X135110000Y-162150000D03*
%TD*%
D18*
%TO.N,*%
X145240000Y-96160000D03*
X132570000Y-96080000D03*
X135110000Y-96080000D03*
X140190000Y-96080000D03*
X137650000Y-96080000D03*
X130080000Y-96080000D03*
X142730000Y-96080000D03*
X127550000Y-95990000D03*
X125010000Y-95990000D03*
X117360000Y-96070000D03*
X119900000Y-96070000D03*
X122440000Y-96070000D03*
X71760000Y-96100000D03*
X74330000Y-96220000D03*
D19*
%TO.N,+5V*%
X58940000Y-57610000D03*
X58940000Y-65230000D03*
X58940000Y-62690000D03*
X58940000Y-55070000D03*
X58940000Y-60150000D03*
%TO.N,GND*%
X150370000Y-57800000D03*
X150370000Y-65420000D03*
X150370000Y-55260000D03*
X150370000Y-62880000D03*
X150370000Y-60340000D03*
D18*
%TO.N,*%
X130150000Y-93500000D03*
X137720000Y-93500000D03*
X135180000Y-93500000D03*
X140260000Y-93500000D03*
X132640000Y-93500000D03*
X142800000Y-93500000D03*
X127620000Y-93410000D03*
X125080000Y-93410000D03*
%TO.N,unconnected-(U3-Pad3)*%
X127590000Y-98570000D03*
%TO.N,unconnected-(U3-Pad38)*%
X140230000Y-98660000D03*
%TO.N,unconnected-(U3-Pad39)*%
X137690000Y-98660000D03*
%TO.N,unconnected-(U3-Pad1)*%
X132610000Y-98660000D03*
%TO.N,unconnected-(U3-Pad40)*%
X135150000Y-98660000D03*
%TO.N,unconnected-(U3-Pad2)*%
X130120000Y-98660000D03*
%TO.N,*%
X130140000Y-53660000D03*
X130110000Y-55900000D03*
%TO.N,unconnected-(U2-Pad2)*%
X130180000Y-58440000D03*
%TO.N,*%
X125070000Y-53570000D03*
X127610000Y-53570000D03*
X122530000Y-53570000D03*
X119990000Y-53570000D03*
X117450000Y-53570000D03*
X125040000Y-55810000D03*
X127580000Y-55810000D03*
X122500000Y-55810000D03*
X119960000Y-55810000D03*
X117420000Y-55810000D03*
X122510000Y-73170000D03*
X119970000Y-73170000D03*
%TO.N,unconnected-(U2-Pad10)*%
X125010000Y-73130000D03*
%TO.N,*%
X117430000Y-73170000D03*
X119970000Y-78250000D03*
X122510000Y-78250000D03*
%TO.N,unconnected-(U2-Pad11)*%
X125010000Y-75670000D03*
%TO.N,unconnected-(U2-Pad12)*%
X125010000Y-78210000D03*
%TO.N,*%
X117430000Y-75710000D03*
X119970000Y-75710000D03*
X117430000Y-78250000D03*
X122510000Y-75710000D03*
X122510000Y-83330000D03*
X119970000Y-80790000D03*
X117430000Y-80790000D03*
X122510000Y-80790000D03*
%TO.N,unconnected-(U2-Pad13)*%
X125010000Y-80750000D03*
%TO.N,*%
X122510000Y-85870000D03*
X119970000Y-85870000D03*
%TO.N,unconnected-(U2-Pad15)*%
X125010000Y-85830000D03*
%TO.N,*%
X117430000Y-85870000D03*
%TO.N,unconnected-(U2-Pad14)*%
X125010000Y-83290000D03*
%TO.N,*%
X117430000Y-83330000D03*
X119970000Y-83330000D03*
X119970000Y-91130000D03*
X122510000Y-88410000D03*
%TO.N,unconnected-(U2-Pad16)*%
X125010000Y-88370000D03*
%TO.N,unconnected-(U2-Pad17)*%
X125043333Y-91130000D03*
%TO.N,*%
X117430000Y-90950000D03*
X117430000Y-88410000D03*
X119970000Y-88410000D03*
X122510000Y-91130000D03*
X122510000Y-93490000D03*
%TO.N,unconnected-(U2-Pad19)*%
X130109999Y-91130000D03*
%TO.N,unconnected-(U2-Pad18)*%
X127576666Y-91130000D03*
%TO.N,*%
X117430000Y-93490000D03*
X119970000Y-93490000D03*
X119970000Y-101110000D03*
X119970000Y-98570000D03*
X117430000Y-98570000D03*
X122510000Y-98570000D03*
%TO.N,unconnected-(U3-Pad5)*%
X125050000Y-101110000D03*
%TO.N,*%
X117430000Y-101110000D03*
%TO.N,unconnected-(U3-Pad4)*%
X125050000Y-98570000D03*
%TO.N,*%
X122510000Y-101110000D03*
X122510000Y-103650000D03*
X119970000Y-103650000D03*
%TO.N,unconnected-(U3-Pad6)*%
X125050000Y-103650000D03*
%TO.N,*%
X117430000Y-103650000D03*
X122520000Y-58310000D03*
X117440000Y-63360000D03*
X117440000Y-58310000D03*
X117400000Y-65640000D03*
X117400000Y-67980000D03*
%TO.N,unconnected-(U2-Pad4)*%
X125010000Y-58400000D03*
%TO.N,unconnected-(U2-Pad9)*%
X124980000Y-70480000D03*
%TO.N,*%
X122520000Y-60890000D03*
X119980000Y-60890000D03*
%TO.N,unconnected-(U2-Pad3)*%
X127540000Y-58460000D03*
%TO.N,*%
X119940000Y-65640000D03*
X117440000Y-60890000D03*
%TO.N,unconnected-(U2-Pad7)*%
X124980000Y-65600000D03*
%TO.N,*%
X119980000Y-58310000D03*
X119940000Y-67980000D03*
X117400000Y-70520000D03*
X122480000Y-70520000D03*
X119940000Y-70520000D03*
X119980000Y-63360000D03*
X122520000Y-63360000D03*
X122480000Y-67980000D03*
X122480000Y-65640000D03*
%TO.N,unconnected-(U2-Pad8)*%
X124980000Y-67940000D03*
%TO.N,unconnected-(U2-Pad5)*%
X125020000Y-60850000D03*
%TO.N,unconnected-(U2-Pad6)*%
X125020000Y-63320000D03*
%TO.N,*%
X109910000Y-53640000D03*
X140250000Y-53660000D03*
X112480000Y-53640000D03*
X145330000Y-53660000D03*
X142790000Y-53660000D03*
X137710000Y-53660000D03*
X135170000Y-53660000D03*
X132630000Y-53660000D03*
X115020000Y-53640000D03*
X61590000Y-53660000D03*
X66870000Y-53630000D03*
X64340000Y-53630000D03*
X69380000Y-53640000D03*
X107130000Y-53490000D03*
%TO.N,unconnected-(U1-Pad97)*%
X103780000Y-53580000D03*
%TO.N,unconnected-(U1-Pad100)*%
X101060000Y-53580000D03*
%TO.N,unconnected-(U1-Pad103)*%
X98340000Y-53590000D03*
%TO.N,unconnected-(U1-Pad115)*%
X87550000Y-53630000D03*
%TO.N,unconnected-(U1-Pad127)*%
X77090000Y-53640000D03*
%TO.N,unconnected-(U1-Pad118)*%
X84900000Y-53640000D03*
%TO.N,*%
X72030000Y-53640000D03*
%TO.N,unconnected-(U1-Pad109)*%
X92930000Y-53640000D03*
%TO.N,unconnected-(U1-Pad106)*%
X95620000Y-53590000D03*
%TO.N,unconnected-(U1-Pad112)*%
X90240000Y-53610000D03*
%TO.N,unconnected-(U1-Pad121)*%
X82170000Y-53640000D03*
%TO.N,*%
X74550000Y-53640000D03*
%TO.N,unconnected-(U1-Pad124)*%
X79630000Y-53640000D03*
%TO.N,*%
X74360000Y-98700000D03*
X74360000Y-103780000D03*
X74360000Y-101240000D03*
%TO.N,unconnected-(U1-Pad3)*%
X69270000Y-66010000D03*
%TO.N,unconnected-(U1-Pad9)*%
X69150000Y-71610000D03*
%TO.N,unconnected-(U1-Pad6)*%
X69190000Y-68740000D03*
%TO.N,unconnected-(U1-Pad12)*%
X69170000Y-74390000D03*
%TO.N,unconnected-(U1-Pad18)*%
X69230000Y-80040000D03*
%TO.N,unconnected-(U1-Pad15)*%
X69230000Y-77130000D03*
%TO.N,unconnected-(U1-Pad21)*%
X69220000Y-82820000D03*
%TO.N,unconnected-(U1-Pad24)*%
X69220000Y-85480000D03*
%TO.N,unconnected-(U1-Pad27)*%
X69250000Y-88200000D03*
%TO.N,*%
X69240000Y-93480000D03*
%TO.N,unconnected-(U1-Pad30)*%
X69240000Y-90860000D03*
%TO.N,unconnected-(U1-Pad1)*%
X64210000Y-66010000D03*
%TO.N,unconnected-(U1-Pad7)*%
X64090000Y-71610000D03*
%TO.N,unconnected-(U1-Pad4)*%
X64130000Y-68740000D03*
%TO.N,unconnected-(U1-Pad10)*%
X64110000Y-74390000D03*
%TO.N,unconnected-(U1-Pad101)*%
X101030000Y-55820000D03*
%TO.N,unconnected-(U1-Pad104)*%
X98310000Y-55830000D03*
%TO.N,*%
X107120000Y-58230000D03*
%TO.N,unconnected-(U1-Pad105)*%
X98330000Y-58330000D03*
%TO.N,*%
X107100000Y-55730000D03*
%TO.N,unconnected-(U1-Pad98)*%
X103750000Y-55820000D03*
%TO.N,unconnected-(U1-Pad99)*%
X103770000Y-58320000D03*
%TO.N,unconnected-(U1-Pad102)*%
X101050000Y-58320000D03*
%TO.N,*%
X74540000Y-58380000D03*
%TO.N,unconnected-(U1-Pad126)*%
X79620000Y-58380000D03*
%TO.N,unconnected-(U1-Pad128)*%
X77060000Y-55880000D03*
%TO.N,unconnected-(U1-Pad116)*%
X87520000Y-55870000D03*
%TO.N,unconnected-(U1-Pad125)*%
X79600000Y-55880000D03*
%TO.N,*%
X72000000Y-55880000D03*
%TO.N,unconnected-(U1-Pad120)*%
X84890000Y-58380000D03*
%TO.N,unconnected-(U1-Pad110)*%
X92900000Y-55880000D03*
%TO.N,unconnected-(U1-Pad114)*%
X90230000Y-58350000D03*
%TO.N,unconnected-(U1-Pad122)*%
X82280000Y-55880000D03*
%TO.N,*%
X74520000Y-55880000D03*
%TO.N,unconnected-(U1-Pad119)*%
X84870000Y-55880000D03*
%TO.N,unconnected-(U1-Pad123)*%
X82290000Y-58380000D03*
%TO.N,unconnected-(U1-Pad107)*%
X95590000Y-55830000D03*
%TO.N,*%
X77080000Y-58380000D03*
%TO.N,unconnected-(U1-Pad113)*%
X90210000Y-55850000D03*
%TO.N,unconnected-(U1-Pad111)*%
X92920000Y-58380000D03*
%TO.N,unconnected-(U1-Pad117)*%
X87540000Y-58370000D03*
%TO.N,unconnected-(U1-Pad108)*%
X95610000Y-58330000D03*
%TO.N,*%
X72020000Y-58380000D03*
X61560000Y-55900000D03*
X64270000Y-55880000D03*
X66810000Y-55880000D03*
X69350000Y-55880000D03*
X61670000Y-66030000D03*
X61530000Y-71613629D03*
X61580000Y-68700000D03*
X61630000Y-63450000D03*
X61560000Y-61030905D03*
X61560000Y-58532724D03*
X64230000Y-58380000D03*
X69310000Y-60960000D03*
X66770000Y-58380000D03*
%TO.N,unconnected-(U1-Pad2)*%
X66760000Y-66010000D03*
%TO.N,*%
X64180000Y-63430000D03*
X66720000Y-63430000D03*
X66770000Y-60960000D03*
X69310000Y-58380000D03*
X69260000Y-63430000D03*
X64230000Y-60960000D03*
%TO.N,unconnected-(U1-Pad5)*%
X66680000Y-68740000D03*
%TO.N,unconnected-(U1-Pad8)*%
X66640000Y-71610000D03*
%TO.N,*%
X109880000Y-55880000D03*
%TO.N,unconnected-(U1-Pad88)*%
X109910000Y-73890000D03*
%TO.N,unconnected-(U1-Pad82)*%
X109920000Y-79310000D03*
%TO.N,unconnected-(U1-Pad85)*%
X109860000Y-76510000D03*
%TO.N,unconnected-(U1-Pad79)*%
X109940000Y-82000000D03*
%TO.N,unconnected-(U1-Pad73)*%
X109930000Y-87620000D03*
%TO.N,unconnected-(U1-Pad76)*%
X109940000Y-84670000D03*
%TO.N,unconnected-(U1-Pad67)*%
X110050000Y-93420000D03*
%TO.N,unconnected-(U1-Pad70)*%
X109940000Y-90660000D03*
%TO.N,*%
X109940000Y-96110000D03*
%TO.N,unconnected-(U1-Pad91)*%
X109890000Y-70970000D03*
%TO.N,*%
X109950000Y-60960000D03*
X109900000Y-58380000D03*
%TO.N,unconnected-(U1-Pad94)*%
X109910000Y-68050000D03*
%TO.N,*%
X109910000Y-65710000D03*
X109950000Y-63430000D03*
X112470000Y-58380000D03*
%TO.N,unconnected-(U2-Pad38)*%
X140240000Y-58400000D03*
%TO.N,unconnected-(U2-Pad39)*%
X137700000Y-58400000D03*
%TO.N,unconnected-(U2-Pad37)*%
X142780000Y-58400000D03*
%TO.N,unconnected-(U2-Pad1)*%
X132570000Y-58480000D03*
%TO.N,*%
X145320000Y-58400000D03*
%TO.N,unconnected-(U2-Pad35)*%
X142780000Y-63450000D03*
%TO.N,*%
X115010000Y-58380000D03*
%TO.N,unconnected-(U2-Pad40)*%
X135160000Y-58400000D03*
%TO.N,*%
X145320000Y-63450000D03*
%TO.N,unconnected-(U1-Pad95)*%
X114970000Y-65710000D03*
%TO.N,*%
X145320000Y-60980000D03*
%TO.N,unconnected-(U1-Pad90)*%
X112410000Y-70970000D03*
%TO.N,*%
X145280000Y-70610000D03*
%TO.N,unconnected-(U2-Pad32)*%
X142740000Y-70610000D03*
%TO.N,unconnected-(U2-Pad33)*%
X142740000Y-68070000D03*
%TO.N,unconnected-(U2-Pad36)*%
X142780000Y-60980000D03*
%TO.N,*%
X112470000Y-60960000D03*
%TO.N,unconnected-(U1-Pad93)*%
X112430000Y-68050000D03*
%TO.N,*%
X145280000Y-68070000D03*
%TO.N,unconnected-(U1-Pad92)*%
X114970000Y-68050000D03*
%TO.N,*%
X115010000Y-63430000D03*
X112470000Y-63430000D03*
X145280000Y-65730000D03*
%TO.N,unconnected-(U1-Pad96)*%
X112430000Y-65710000D03*
%TO.N,*%
X115010000Y-60960000D03*
%TO.N,unconnected-(U2-Pad34)*%
X142740000Y-65730000D03*
%TO.N,unconnected-(U1-Pad89)*%
X114950000Y-70970000D03*
%TO.N,*%
X145300000Y-55900000D03*
X137680000Y-55900000D03*
X142760000Y-55900000D03*
X135140000Y-55900000D03*
X114990000Y-55880000D03*
X112450000Y-55880000D03*
X140220000Y-55900000D03*
X132600000Y-55900000D03*
X61560000Y-74451810D03*
%TO.N,unconnected-(U1-Pad11)*%
X66660000Y-74390000D03*
%TO.N,unconnected-(U2-Pad31)*%
X142770000Y-73260000D03*
%TO.N,*%
X145310000Y-73260000D03*
%TO.N,unconnected-(U1-Pad87)*%
X112430000Y-73890000D03*
%TO.N,unconnected-(U1-Pad86)*%
X114970000Y-73890000D03*
%TO.N,*%
X61620000Y-77150000D03*
%TO.N,unconnected-(U1-Pad13)*%
X64170000Y-77130000D03*
%TO.N,unconnected-(U1-Pad14)*%
X66720000Y-77130000D03*
%TO.N,unconnected-(U2-Pad30)*%
X142770000Y-75800000D03*
%TO.N,*%
X145310000Y-75800000D03*
%TO.N,unconnected-(U1-Pad84)*%
X112380000Y-76510000D03*
%TO.N,unconnected-(U1-Pad83)*%
X114920000Y-76510000D03*
%TO.N,*%
X61620000Y-80060000D03*
%TO.N,unconnected-(U1-Pad16)*%
X64250000Y-80000000D03*
%TO.N,unconnected-(U1-Pad17)*%
X66720000Y-80040000D03*
%TO.N,unconnected-(U2-Pad29)*%
X142770000Y-78340000D03*
%TO.N,*%
X145310000Y-78340000D03*
%TO.N,unconnected-(U1-Pad81)*%
X112440000Y-79310000D03*
%TO.N,unconnected-(U1-Pad80)*%
X114980000Y-79310000D03*
%TO.N,*%
X61580000Y-82900000D03*
%TO.N,unconnected-(U1-Pad19)*%
X64150000Y-82820000D03*
%TO.N,unconnected-(U1-Pad20)*%
X66710000Y-82820000D03*
%TO.N,unconnected-(U2-Pad28)*%
X142770000Y-80880000D03*
%TO.N,*%
X145310000Y-80880000D03*
%TO.N,unconnected-(U1-Pad78)*%
X112460000Y-82000000D03*
%TO.N,unconnected-(U1-Pad77)*%
X115000000Y-82000000D03*
%TO.N,*%
X61610000Y-85500000D03*
%TO.N,unconnected-(U1-Pad22)*%
X64240000Y-85480000D03*
%TO.N,unconnected-(U1-Pad23)*%
X66710000Y-85480000D03*
%TO.N,unconnected-(U2-Pad27)*%
X142770000Y-83420000D03*
%TO.N,*%
X145310000Y-83420000D03*
%TO.N,unconnected-(U1-Pad75)*%
X112460000Y-84670000D03*
%TO.N,unconnected-(U1-Pad74)*%
X115000000Y-84670000D03*
%TO.N,*%
X61600000Y-88070000D03*
%TO.N,unconnected-(U1-Pad25)*%
X64270000Y-88200000D03*
%TO.N,unconnected-(U1-Pad26)*%
X66740000Y-88200000D03*
%TO.N,unconnected-(U2-Pad26)*%
X142770000Y-85960000D03*
%TO.N,*%
X145310000Y-85960000D03*
%TO.N,unconnected-(U1-Pad72)*%
X112450000Y-87620000D03*
%TO.N,unconnected-(U1-Pad71)*%
X114990000Y-87620000D03*
%TO.N,*%
X61630000Y-90960000D03*
%TO.N,unconnected-(U1-Pad28)*%
X64260000Y-90890000D03*
%TO.N,unconnected-(U1-Pad29)*%
X66730000Y-90940000D03*
%TO.N,unconnected-(U2-Pad25)*%
X142770000Y-88500000D03*
%TO.N,*%
X145310000Y-88500000D03*
%TO.N,unconnected-(U1-Pad69)*%
X112460000Y-90660000D03*
%TO.N,unconnected-(U1-Pad68)*%
X115000000Y-90660000D03*
%TO.N,*%
X61630000Y-93500000D03*
%TO.N,unconnected-(U1-Pad31)*%
X64260000Y-93480000D03*
%TO.N,unconnected-(U1-Pad32)*%
X66730000Y-93480000D03*
%TO.N,unconnected-(U2-Pad24)*%
X142776664Y-91130000D03*
%TO.N,*%
X145310000Y-91130000D03*
%TO.N,unconnected-(U1-Pad66)*%
X112570000Y-93420000D03*
%TO.N,unconnected-(U1-Pad65)*%
X115110000Y-93420000D03*
%TO.N,*%
X61630000Y-96040000D03*
X69270000Y-96020000D03*
X66730000Y-96020000D03*
X64190000Y-96020000D03*
%TO.N,unconnected-(U2-Pad23)*%
X140243331Y-91130000D03*
%TO.N,*%
X145310000Y-93580000D03*
%TO.N,unconnected-(U2-Pad21)*%
X135176665Y-91130000D03*
%TO.N,unconnected-(U2-Pad22)*%
X137709998Y-91130000D03*
%TO.N,unconnected-(U2-Pad20)*%
X132643332Y-91130000D03*
%TO.N,*%
X112460000Y-96110000D03*
X115000000Y-96110000D03*
X61640000Y-98660000D03*
X69280000Y-98640000D03*
X66740000Y-98640000D03*
X64200000Y-98640000D03*
%TO.N,unconnected-(U3-Pad37)*%
X142770000Y-98660000D03*
%TO.N,*%
X145310000Y-98660000D03*
X112460000Y-98640000D03*
X115000000Y-98640000D03*
X109920000Y-98640000D03*
X107430000Y-98600000D03*
%TO.N,unconnected-(U1-Pad62)*%
X102330000Y-98740000D03*
%TO.N,*%
X104870000Y-98730000D03*
%TO.N,unconnected-(U1-Pad56)*%
X96670000Y-98720000D03*
%TO.N,unconnected-(U1-Pad59)*%
X99520000Y-98740000D03*
%TO.N,unconnected-(U1-Pad50)*%
X91000000Y-98730000D03*
%TO.N,unconnected-(U1-Pad53)*%
X93710000Y-98720000D03*
%TO.N,unconnected-(U1-Pad44)*%
X85380000Y-98740000D03*
%TO.N,unconnected-(U1-Pad47)*%
X88260000Y-98750000D03*
%TO.N,unconnected-(U1-Pad38)*%
X79880000Y-98780000D03*
%TO.N,unconnected-(U1-Pad41)*%
X82720000Y-98780000D03*
%TO.N,*%
X71820000Y-98640000D03*
%TO.N,unconnected-(U1-Pad35)*%
X77010000Y-98780000D03*
%TO.N,*%
X61640000Y-101200000D03*
X69280000Y-101180000D03*
X66740000Y-101180000D03*
X64200000Y-101180000D03*
%TO.N,unconnected-(U3-Pad36)*%
X142770000Y-101200000D03*
%TO.N,*%
X145310000Y-101200000D03*
X112460000Y-101180000D03*
X115000000Y-101180000D03*
X109920000Y-101180000D03*
X107430000Y-101140000D03*
%TO.N,unconnected-(U1-Pad61)*%
X102330000Y-101280000D03*
%TO.N,unconnected-(U1-Pad64)*%
X104870000Y-101270000D03*
%TO.N,unconnected-(U1-Pad55)*%
X96670000Y-101260000D03*
%TO.N,unconnected-(U1-Pad58)*%
X99520000Y-101280000D03*
%TO.N,unconnected-(U1-Pad49)*%
X91000000Y-101270000D03*
%TO.N,unconnected-(U1-Pad52)*%
X93710000Y-101260000D03*
%TO.N,unconnected-(U1-Pad43)*%
X85380000Y-101280000D03*
%TO.N,unconnected-(U1-Pad46)*%
X88260000Y-101290000D03*
%TO.N,unconnected-(U1-Pad37)*%
X79880000Y-101320000D03*
%TO.N,unconnected-(U1-Pad40)*%
X82720000Y-101320000D03*
%TO.N,*%
X71820000Y-101180000D03*
%TO.N,unconnected-(U1-Pad34)*%
X77010000Y-101320000D03*
%TO.N,*%
X61640000Y-103740000D03*
X69280000Y-103720000D03*
X66740000Y-103720000D03*
X64200000Y-103720000D03*
%TO.N,unconnected-(U3-Pad35)*%
X142770000Y-103740000D03*
%TO.N,*%
X145310000Y-103740000D03*
X112460000Y-103720000D03*
X115000000Y-103720000D03*
X109920000Y-103720000D03*
X107430000Y-103810000D03*
%TO.N,unconnected-(U1-Pad60)*%
X102350000Y-103950000D03*
%TO.N,unconnected-(U1-Pad63)*%
X104890000Y-103950000D03*
%TO.N,unconnected-(U1-Pad54)*%
X96650000Y-103830000D03*
%TO.N,unconnected-(U1-Pad57)*%
X99500000Y-103800000D03*
%TO.N,unconnected-(U1-Pad48)*%
X91030000Y-103710000D03*
%TO.N,unconnected-(U1-Pad51)*%
X93750000Y-103760000D03*
%TO.N,unconnected-(U1-Pad42)*%
X85380000Y-103820000D03*
%TO.N,unconnected-(U1-Pad45)*%
X88230000Y-103680000D03*
%TO.N,unconnected-(U1-Pad36)*%
X79880000Y-103860000D03*
%TO.N,unconnected-(U1-Pad39)*%
X82720000Y-103860000D03*
%TO.N,*%
X71820000Y-103720000D03*
%TO.N,unconnected-(U1-Pad33)*%
X77010000Y-103860000D03*
%TO.N,*%
X74190000Y-106280000D03*
X71650000Y-106280000D03*
X69110000Y-106280000D03*
X66570000Y-106280000D03*
X64160000Y-106280000D03*
X61640000Y-106280000D03*
X84350000Y-106280000D03*
X81810000Y-106280000D03*
X79270000Y-106280000D03*
X76730000Y-106280000D03*
%TO.N,unconnected-(U3-Pad34)*%
X142770000Y-106280000D03*
%TO.N,*%
X145310000Y-106280000D03*
X122450000Y-106280000D03*
%TO.N,unconnected-(U3-Pad7)*%
X124990000Y-106280000D03*
%TO.N,*%
X117370000Y-106280000D03*
X119910000Y-106280000D03*
X112290000Y-106280000D03*
X114830000Y-106280000D03*
X107430000Y-106280000D03*
X109750000Y-106280000D03*
X102130000Y-106280000D03*
X104670000Y-106280000D03*
X97050000Y-106280000D03*
X99590000Y-106280000D03*
X91970000Y-106280000D03*
X94510000Y-106280000D03*
X86890000Y-106280000D03*
X89430000Y-106280000D03*
X74150000Y-108810000D03*
X71610000Y-108810000D03*
X69070000Y-108810000D03*
X66530000Y-108810000D03*
X64120000Y-108810000D03*
X61600000Y-108810000D03*
X84310000Y-108810000D03*
X81770000Y-108810000D03*
X79230000Y-108810000D03*
X76690000Y-108810000D03*
%TO.N,unconnected-(U3-Pad33)*%
X142730000Y-108810000D03*
%TO.N,*%
X145270000Y-108810000D03*
X122410000Y-108810000D03*
%TO.N,unconnected-(U3-Pad8)*%
X124950000Y-108810000D03*
%TO.N,unconnected-(U5-Pad15)*%
X117330000Y-108810000D03*
%TO.N,unconnected-(U5-Pad14)*%
X119870000Y-108810000D03*
%TO.N,unconnected-(U5-Pad17)*%
X112250000Y-108810000D03*
%TO.N,unconnected-(U5-Pad16)*%
X114790000Y-108810000D03*
%TO.N,unconnected-(U5-Pad19)*%
X107430000Y-108810000D03*
%TO.N,unconnected-(U5-Pad18)*%
X109710000Y-108810000D03*
%TO.N,unconnected-(U5-Pad21)*%
X102090000Y-108810000D03*
%TO.N,unconnected-(U5-Pad20)*%
X104630000Y-108810000D03*
%TO.N,unconnected-(U5-Pad23)*%
X97010000Y-108810000D03*
%TO.N,unconnected-(U5-Pad22)*%
X99550000Y-108810000D03*
%TO.N,*%
X91930000Y-108810000D03*
X94470000Y-108810000D03*
X86850000Y-108810000D03*
X89390000Y-108810000D03*
X74150000Y-111350000D03*
X71610000Y-111350000D03*
X69070000Y-111350000D03*
X66530000Y-111350000D03*
X64120000Y-111350000D03*
X61600000Y-111350000D03*
X79230000Y-111330000D03*
%TO.N,unconnected-(U4-Pad6)*%
X76690000Y-111330000D03*
%TO.N,*%
X94460000Y-111400000D03*
X91920000Y-111400000D03*
%TO.N,unconnected-(U3-Pad32)*%
X142730000Y-111350000D03*
%TO.N,*%
X145270000Y-111350000D03*
X122410000Y-111350000D03*
%TO.N,unconnected-(U3-Pad9)*%
X124950000Y-111350000D03*
%TO.N,unconnected-(U5-Pad13)*%
X119870000Y-111350000D03*
%TO.N,unconnected-(U5-Pad24)*%
X97010000Y-111350000D03*
%TO.N,*%
X86850000Y-111330000D03*
%TO.N,unconnected-(U4-Pad5)*%
X89390000Y-111330000D03*
%TO.N,*%
X81770000Y-111330000D03*
X84310000Y-111330000D03*
X74150000Y-113890000D03*
X71610000Y-113890000D03*
X69070000Y-113890000D03*
X66530000Y-113890000D03*
X64120000Y-113890000D03*
X61600000Y-113890000D03*
%TO.N,unconnected-(U4-Pad7)*%
X76690000Y-113870000D03*
%TO.N,*%
X94460000Y-113940000D03*
X91920000Y-113940000D03*
%TO.N,unconnected-(U3-Pad31)*%
X142730000Y-113890000D03*
%TO.N,*%
X145270000Y-113890000D03*
X122410000Y-113890000D03*
%TO.N,unconnected-(U3-Pad10)*%
X124950000Y-113890000D03*
%TO.N,*%
X119870000Y-113890000D03*
X97010000Y-113890000D03*
%TO.N,unconnected-(U4-Pad4)*%
X89390000Y-113870000D03*
%TO.N,*%
X74150000Y-116430000D03*
X71610000Y-116430000D03*
X69070000Y-116430000D03*
X66530000Y-116430000D03*
X64120000Y-116430000D03*
X61600000Y-116430000D03*
%TO.N,unconnected-(U4-Pad8)*%
X76690000Y-116410000D03*
%TO.N,*%
X94460000Y-116480000D03*
X91920000Y-116480000D03*
%TO.N,unconnected-(U3-Pad30)*%
X142730000Y-116430000D03*
%TO.N,*%
X145270000Y-116430000D03*
X122410000Y-116430000D03*
%TO.N,unconnected-(U3-Pad11)*%
X124950000Y-116430000D03*
%TO.N,*%
X119870000Y-116430000D03*
X97010000Y-116430000D03*
X89390000Y-116410000D03*
X74150000Y-118970000D03*
X71610000Y-118970000D03*
X69070000Y-118970000D03*
X66530000Y-118970000D03*
X64120000Y-118970000D03*
X61600000Y-118970000D03*
%TO.N,unconnected-(U4-Pad9)*%
X76690000Y-118950000D03*
%TO.N,*%
X94460000Y-119020000D03*
X91920000Y-119020000D03*
%TO.N,unconnected-(U3-Pad29)*%
X142730000Y-118970000D03*
%TO.N,*%
X145270000Y-118970000D03*
X122410000Y-118970000D03*
%TO.N,unconnected-(U3-Pad12)*%
X124950000Y-118970000D03*
%TO.N,*%
X119870000Y-118970000D03*
X97010000Y-118970000D03*
X89390000Y-118950000D03*
X74150000Y-121510000D03*
X71610000Y-121510000D03*
X69070000Y-121510000D03*
X66530000Y-121510000D03*
X64120000Y-121510000D03*
X61600000Y-121510000D03*
X79230000Y-121490000D03*
%TO.N,unconnected-(U4-Pad10)*%
X76690000Y-121490000D03*
%TO.N,*%
X94460000Y-121560000D03*
X91920000Y-121560000D03*
%TO.N,unconnected-(U3-Pad28)*%
X142730000Y-121510000D03*
%TO.N,*%
X145270000Y-121510000D03*
X122410000Y-121510000D03*
%TO.N,unconnected-(U3-Pad13)*%
X124950000Y-121510000D03*
%TO.N,*%
X119870000Y-121510000D03*
X97010000Y-121510000D03*
X86850000Y-121490000D03*
%TO.N,unconnected-(U4-Pad1)*%
X89390000Y-121490000D03*
%TO.N,*%
X81770000Y-121490000D03*
X84310000Y-121490000D03*
X74150000Y-124050000D03*
X71610000Y-124050000D03*
X69070000Y-124050000D03*
X66530000Y-124050000D03*
X64120000Y-124050000D03*
X61600000Y-124050000D03*
X84310000Y-124050000D03*
X81770000Y-124050000D03*
X79230000Y-124050000D03*
X76690000Y-124050000D03*
%TO.N,unconnected-(U3-Pad27)*%
X142730000Y-124050000D03*
%TO.N,*%
X145270000Y-124050000D03*
X122410000Y-124050000D03*
%TO.N,unconnected-(U3-Pad14)*%
X124950000Y-124050000D03*
%TO.N,unconnected-(U5-Pad12)*%
X119870000Y-124050000D03*
%TO.N,unconnected-(U5-Pad1)*%
X97010000Y-124050000D03*
%TO.N,*%
X91930000Y-124050000D03*
X94470000Y-124050000D03*
X86850000Y-124050000D03*
X89390000Y-124050000D03*
X74150000Y-126590000D03*
X71610000Y-126590000D03*
X69070000Y-126590000D03*
X66530000Y-126590000D03*
X64120000Y-126590000D03*
X61600000Y-126590000D03*
X84310000Y-126590000D03*
X81770000Y-126590000D03*
X79230000Y-126590000D03*
X76690000Y-126590000D03*
%TO.N,unconnected-(U3-Pad26)*%
X142730000Y-126590000D03*
%TO.N,*%
X145270000Y-126590000D03*
X122410000Y-126590000D03*
%TO.N,unconnected-(U3-Pad15)*%
X124950000Y-126590000D03*
%TO.N,unconnected-(U5-Pad10)*%
X117330000Y-126590000D03*
%TO.N,unconnected-(U5-Pad11)*%
X119870000Y-126590000D03*
%TO.N,unconnected-(U5-Pad8)*%
X112250000Y-126590000D03*
%TO.N,unconnected-(U5-Pad9)*%
X114790000Y-126590000D03*
%TO.N,unconnected-(U5-Pad6)*%
X107170000Y-126590000D03*
%TO.N,unconnected-(U5-Pad7)*%
X109710000Y-126590000D03*
%TO.N,unconnected-(U5-Pad4)*%
X102090000Y-126590000D03*
%TO.N,unconnected-(U5-Pad5)*%
X104630000Y-126590000D03*
%TO.N,unconnected-(U5-Pad2)*%
X97010000Y-126590000D03*
%TO.N,unconnected-(U5-Pad3)*%
X99550000Y-126590000D03*
%TO.N,*%
X91930000Y-126590000D03*
X94470000Y-126590000D03*
X86850000Y-126590000D03*
X89390000Y-126590000D03*
X74150000Y-129130000D03*
X71610000Y-129130000D03*
X69070000Y-129130000D03*
X66530000Y-129130000D03*
X64120000Y-129130000D03*
X61600000Y-129130000D03*
X84310000Y-129130000D03*
X81770000Y-129130000D03*
X79230000Y-129130000D03*
X76690000Y-129130000D03*
%TO.N,unconnected-(U3-Pad25)*%
X142730000Y-129130000D03*
%TO.N,*%
X145270000Y-129130000D03*
X122410000Y-129130000D03*
%TO.N,unconnected-(U3-Pad16)*%
X124950000Y-129130000D03*
%TO.N,*%
X117330000Y-129130000D03*
X119870000Y-129130000D03*
X112250000Y-129130000D03*
X114790000Y-129130000D03*
X107170000Y-129130000D03*
X109710000Y-129130000D03*
X102090000Y-129130000D03*
X104630000Y-129130000D03*
X97010000Y-129130000D03*
X99550000Y-129130000D03*
X91930000Y-129130000D03*
X94470000Y-129130000D03*
X86850000Y-129130000D03*
X89390000Y-129130000D03*
X74150000Y-131670000D03*
X71610000Y-131670000D03*
X69070000Y-131670000D03*
X66530000Y-131670000D03*
X64120000Y-131670000D03*
X61600000Y-131670000D03*
X84310000Y-131670000D03*
X81770000Y-131670000D03*
X79230000Y-131670000D03*
X76690000Y-131670000D03*
%TO.N,unconnected-(U3-Pad24)*%
X142730000Y-131670000D03*
%TO.N,*%
X145270000Y-131670000D03*
%TO.N,unconnected-(U3-Pad22)*%
X137650000Y-131670000D03*
%TO.N,unconnected-(U3-Pad23)*%
X140190000Y-131670000D03*
%TO.N,unconnected-(U3-Pad20)*%
X132570000Y-131670000D03*
%TO.N,unconnected-(U3-Pad21)*%
X135110000Y-131670000D03*
%TO.N,unconnected-(U3-Pad18)*%
X127490000Y-131670000D03*
%TO.N,unconnected-(U3-Pad19)*%
X130030000Y-131670000D03*
%TO.N,*%
X122410000Y-131670000D03*
%TO.N,unconnected-(U3-Pad17)*%
X124950000Y-131670000D03*
%TO.N,*%
X117330000Y-131670000D03*
X119870000Y-131670000D03*
X112250000Y-131670000D03*
X114790000Y-131670000D03*
X107170000Y-131670000D03*
X109710000Y-131670000D03*
X102090000Y-131670000D03*
X104630000Y-131670000D03*
X97010000Y-131670000D03*
X99550000Y-131670000D03*
X91930000Y-131670000D03*
X94470000Y-131670000D03*
X86850000Y-131670000D03*
X89390000Y-131670000D03*
X74150000Y-134210000D03*
X71610000Y-134210000D03*
X69070000Y-134210000D03*
X66530000Y-134210000D03*
X64120000Y-134210000D03*
X61600000Y-134210000D03*
X84310000Y-134210000D03*
X81770000Y-134210000D03*
X79230000Y-134210000D03*
X76690000Y-134210000D03*
X142730000Y-134210000D03*
X145270000Y-134210000D03*
X137650000Y-134210000D03*
X140190000Y-134210000D03*
X132570000Y-134210000D03*
X135110000Y-134210000D03*
X127490000Y-134210000D03*
X130030000Y-134210000D03*
X122410000Y-134210000D03*
X124950000Y-134210000D03*
X117330000Y-134210000D03*
X119870000Y-134210000D03*
X112250000Y-134210000D03*
X114790000Y-134210000D03*
X107170000Y-134210000D03*
X109710000Y-134210000D03*
X102090000Y-134210000D03*
X104630000Y-134210000D03*
X97010000Y-134210000D03*
X99550000Y-134210000D03*
X91930000Y-134210000D03*
X94470000Y-134210000D03*
X86850000Y-134210000D03*
X89390000Y-134210000D03*
X74150000Y-136750000D03*
X71610000Y-136750000D03*
X69070000Y-136750000D03*
X66530000Y-136750000D03*
X64120000Y-136750000D03*
X61600000Y-136750000D03*
X84310000Y-136750000D03*
X81770000Y-136750000D03*
X79230000Y-136750000D03*
X76690000Y-136750000D03*
X142730000Y-136750000D03*
X145270000Y-136750000D03*
X137650000Y-136750000D03*
X140190000Y-136750000D03*
X132570000Y-136750000D03*
X135110000Y-136750000D03*
X127490000Y-136750000D03*
X130030000Y-136750000D03*
X122410000Y-136750000D03*
X124950000Y-136750000D03*
X117330000Y-136750000D03*
X119870000Y-136750000D03*
X112250000Y-136750000D03*
X114790000Y-136750000D03*
X107170000Y-136750000D03*
X109710000Y-136750000D03*
X102090000Y-136750000D03*
X104630000Y-136750000D03*
X97010000Y-136750000D03*
X99550000Y-136750000D03*
X91930000Y-136750000D03*
X94470000Y-136750000D03*
X86850000Y-136750000D03*
X89390000Y-136750000D03*
X74150000Y-139290000D03*
X71610000Y-139290000D03*
X69070000Y-139290000D03*
X66530000Y-139290000D03*
X64120000Y-139290000D03*
X61600000Y-139290000D03*
X84310000Y-139290000D03*
X81770000Y-139290000D03*
X79230000Y-139290000D03*
X76690000Y-139290000D03*
X142730000Y-139290000D03*
X145270000Y-139290000D03*
X137650000Y-139290000D03*
X140190000Y-139290000D03*
X132570000Y-139290000D03*
X135110000Y-139290000D03*
X127490000Y-139290000D03*
X130030000Y-139290000D03*
X122410000Y-139290000D03*
X124950000Y-139290000D03*
X117330000Y-139290000D03*
X119870000Y-139290000D03*
X112250000Y-139290000D03*
X114790000Y-139290000D03*
X107170000Y-139290000D03*
X109710000Y-139290000D03*
X102090000Y-139290000D03*
X104630000Y-139290000D03*
X97010000Y-139290000D03*
X99550000Y-139290000D03*
X91930000Y-139290000D03*
X94470000Y-139290000D03*
X86850000Y-139290000D03*
X89390000Y-139290000D03*
X74150000Y-141830000D03*
X71610000Y-141830000D03*
X69070000Y-141830000D03*
X66530000Y-141830000D03*
X64120000Y-141830000D03*
X61600000Y-141830000D03*
X84310000Y-141830000D03*
X81770000Y-141830000D03*
X79230000Y-141830000D03*
X76690000Y-141830000D03*
X142730000Y-141830000D03*
X145270000Y-141830000D03*
X137650000Y-141830000D03*
X140190000Y-141830000D03*
X132570000Y-141830000D03*
X135110000Y-141830000D03*
X127490000Y-141830000D03*
X130030000Y-141830000D03*
X122410000Y-141830000D03*
X124950000Y-141830000D03*
X117330000Y-141830000D03*
X119870000Y-141830000D03*
X112250000Y-141830000D03*
X114790000Y-141830000D03*
X107170000Y-141830000D03*
X109710000Y-141830000D03*
X102090000Y-141830000D03*
X104630000Y-141830000D03*
X97010000Y-141830000D03*
X99550000Y-141830000D03*
X91930000Y-141830000D03*
X94470000Y-141830000D03*
X86850000Y-141830000D03*
X89390000Y-141830000D03*
X74150000Y-144370000D03*
X71610000Y-144370000D03*
X69070000Y-144370000D03*
X66530000Y-144370000D03*
X64120000Y-144370000D03*
X61600000Y-144370000D03*
X84310000Y-144370000D03*
X81770000Y-144370000D03*
X79230000Y-144370000D03*
X76690000Y-144370000D03*
X142730000Y-144370000D03*
X145270000Y-144370000D03*
X137650000Y-144370000D03*
X140190000Y-144370000D03*
X132570000Y-144370000D03*
X135110000Y-144370000D03*
X127490000Y-144370000D03*
X130030000Y-144370000D03*
X122410000Y-144370000D03*
X124950000Y-144370000D03*
X117330000Y-144370000D03*
X119870000Y-144370000D03*
X112250000Y-144370000D03*
X114790000Y-144370000D03*
X107170000Y-144370000D03*
X109710000Y-144370000D03*
X102090000Y-144370000D03*
X104630000Y-144370000D03*
X97010000Y-144370000D03*
X99550000Y-144370000D03*
X91930000Y-144370000D03*
X94470000Y-144370000D03*
X86850000Y-144370000D03*
X89390000Y-144370000D03*
X74150000Y-146910000D03*
X71610000Y-146910000D03*
X69070000Y-146910000D03*
X66530000Y-146910000D03*
X64120000Y-146910000D03*
X61600000Y-146910000D03*
X84310000Y-146910000D03*
X81770000Y-146910000D03*
X79230000Y-146910000D03*
X76690000Y-146910000D03*
X142730000Y-146910000D03*
X145270000Y-146910000D03*
X137650000Y-146910000D03*
X140190000Y-146910000D03*
X132570000Y-146910000D03*
X135110000Y-146910000D03*
X127490000Y-146910000D03*
X130030000Y-146910000D03*
X122410000Y-146910000D03*
X124950000Y-146910000D03*
X117330000Y-146910000D03*
X119870000Y-146910000D03*
X112250000Y-146910000D03*
X114790000Y-146910000D03*
X107170000Y-146910000D03*
X109710000Y-146910000D03*
X102090000Y-146910000D03*
X104630000Y-146910000D03*
X97010000Y-146910000D03*
X99550000Y-146910000D03*
X91930000Y-146910000D03*
X94470000Y-146910000D03*
X86850000Y-146910000D03*
X89390000Y-146910000D03*
X74150000Y-149450000D03*
X71610000Y-149450000D03*
X69070000Y-149450000D03*
X66530000Y-149450000D03*
X64120000Y-149450000D03*
X61600000Y-149450000D03*
X84310000Y-149450000D03*
X81770000Y-149450000D03*
X79230000Y-149450000D03*
X76690000Y-149450000D03*
X142730000Y-149450000D03*
X145270000Y-149450000D03*
X137650000Y-149450000D03*
X140190000Y-149450000D03*
X132570000Y-149450000D03*
X135110000Y-149450000D03*
X127490000Y-149450000D03*
X130030000Y-149450000D03*
X122410000Y-149450000D03*
X124950000Y-149450000D03*
X117330000Y-149450000D03*
X119870000Y-149450000D03*
X112250000Y-149450000D03*
X114790000Y-149450000D03*
X107170000Y-149450000D03*
X109710000Y-149450000D03*
X102090000Y-149450000D03*
X104630000Y-149450000D03*
X97010000Y-149450000D03*
X99550000Y-149450000D03*
X91930000Y-149450000D03*
X94470000Y-149450000D03*
X86850000Y-149450000D03*
X89390000Y-149450000D03*
X74150000Y-151990000D03*
X71610000Y-151990000D03*
X69070000Y-151990000D03*
X66530000Y-151990000D03*
X64120000Y-151990000D03*
X61600000Y-151990000D03*
X84310000Y-151990000D03*
X81770000Y-151990000D03*
X79230000Y-151990000D03*
X76690000Y-151990000D03*
X142730000Y-151990000D03*
X145270000Y-151990000D03*
X137650000Y-151990000D03*
X140190000Y-151990000D03*
X132570000Y-151990000D03*
X135110000Y-151990000D03*
X127490000Y-151990000D03*
X130030000Y-151990000D03*
X122410000Y-151990000D03*
X124950000Y-151990000D03*
X117330000Y-151990000D03*
X119870000Y-151990000D03*
X112250000Y-151990000D03*
X114790000Y-151990000D03*
X107170000Y-151990000D03*
X109710000Y-151990000D03*
X102090000Y-151990000D03*
X104630000Y-151990000D03*
X97010000Y-151990000D03*
X99550000Y-151990000D03*
X91930000Y-151990000D03*
X94470000Y-151990000D03*
X86850000Y-151990000D03*
X89390000Y-151990000D03*
X74150000Y-154530000D03*
X71610000Y-154530000D03*
X69070000Y-154530000D03*
X66530000Y-154530000D03*
X64120000Y-154530000D03*
X61600000Y-154530000D03*
X84310000Y-154530000D03*
X81770000Y-154530000D03*
X79230000Y-154530000D03*
X76690000Y-154530000D03*
X142730000Y-154530000D03*
X145270000Y-154530000D03*
X137650000Y-154530000D03*
X140190000Y-154530000D03*
X132570000Y-154530000D03*
X135110000Y-154530000D03*
X127490000Y-154530000D03*
X130030000Y-154530000D03*
X122410000Y-154530000D03*
X124950000Y-154530000D03*
X117330000Y-154530000D03*
X119870000Y-154530000D03*
X112250000Y-154530000D03*
X114790000Y-154530000D03*
X107170000Y-154530000D03*
X109710000Y-154530000D03*
X102090000Y-154530000D03*
X104630000Y-154530000D03*
X97010000Y-154530000D03*
X99550000Y-154530000D03*
X91930000Y-154530000D03*
X94470000Y-154530000D03*
X86850000Y-154530000D03*
X89390000Y-154530000D03*
D19*
%TO.N,+5V*%
X58910000Y-88490000D03*
X58910000Y-91030000D03*
X58910000Y-93570000D03*
X58910000Y-96110000D03*
X58910000Y-98650000D03*
X58910000Y-101190000D03*
X58910000Y-103730000D03*
X58910000Y-106270000D03*
X58910000Y-108810000D03*
X58910000Y-111350000D03*
X58910000Y-113890000D03*
X58910000Y-116430000D03*
X58910000Y-118970000D03*
X58910000Y-121510000D03*
X58910000Y-124050000D03*
X58910000Y-126590000D03*
X58910000Y-129130000D03*
X58910000Y-131670000D03*
X58910000Y-67890000D03*
X58910000Y-70710000D03*
X58910000Y-73250000D03*
X58910000Y-75790000D03*
X58910000Y-78330000D03*
X58910000Y-80870000D03*
X58910000Y-83410000D03*
X58910000Y-85950000D03*
X58910000Y-134210000D03*
X58910000Y-136750000D03*
X58910000Y-139290000D03*
X58910000Y-141830000D03*
X58910000Y-144370000D03*
X58910000Y-146910000D03*
X58910000Y-149450000D03*
X58910000Y-151990000D03*
X58910000Y-154530000D03*
%TO.N,GND*%
X150350000Y-96110000D03*
X150350000Y-98650000D03*
X150350000Y-101190000D03*
X150350000Y-103730000D03*
X150350000Y-106270000D03*
X150350000Y-108810000D03*
X150350000Y-111350000D03*
X150350000Y-113890000D03*
X150350000Y-116430000D03*
X150350000Y-118970000D03*
X150350000Y-121510000D03*
X150350000Y-124050000D03*
X150350000Y-80870000D03*
X150350000Y-83410000D03*
X150350000Y-85950000D03*
X150350000Y-88490000D03*
X150350000Y-91030000D03*
X150350000Y-93570000D03*
X150350000Y-68170000D03*
X150350000Y-70710000D03*
X150350000Y-73250000D03*
X150350000Y-75790000D03*
X150350000Y-78330000D03*
X150350000Y-126590000D03*
X150350000Y-129130000D03*
X150350000Y-131670000D03*
X150350000Y-134210000D03*
X150350000Y-136750000D03*
X150350000Y-139290000D03*
X150350000Y-141830000D03*
X150350000Y-144370000D03*
X150350000Y-146910000D03*
X150350000Y-149450000D03*
X150350000Y-151990000D03*
X150350000Y-154530000D03*
%TD*%
D20*
%TO.N,unconnected-(U1-Pad16)*%
X66000000Y-78250000D02*
X73730000Y-78250000D01*
X64250000Y-80000000D02*
X66000000Y-78250000D01*
%TO.N,unconnected-(U2-Pad16)*%
X127250560Y-83168127D02*
X128593687Y-81825000D01*
X126425120Y-85005440D02*
X127250560Y-84180000D01*
X127250560Y-84180000D02*
X127250560Y-83168127D01*
X128593687Y-81825000D02*
X129495000Y-81825000D01*
X126425120Y-86954880D02*
X126425120Y-85005440D01*
X125010000Y-88370000D02*
X126425120Y-86954880D01*
%TO.N,unconnected-(U2-Pad17)*%
X127663280Y-84025407D02*
X128593687Y-83095000D01*
X128593687Y-83095000D02*
X129495000Y-83095000D01*
X126837840Y-85442160D02*
X127663280Y-84616720D01*
X126837840Y-89335493D02*
X126837840Y-85442160D01*
X127663280Y-84616720D02*
X127663280Y-84025407D01*
X125043333Y-91130000D02*
X126837840Y-89335493D01*
%TO.N,unconnected-(U2-Pad15)*%
X126079711Y-82080289D02*
X127605000Y-80555000D01*
X127605000Y-80555000D02*
X129495000Y-80555000D01*
X126079711Y-84760289D02*
X126079711Y-82080289D01*
X125010000Y-85830000D02*
X126079711Y-84760289D01*
%TO.N,unconnected-(U2-Pad18)*%
X127250560Y-85708127D02*
X128593687Y-84365000D01*
X127250560Y-90803894D02*
X127250560Y-85708127D01*
X127576666Y-91130000D02*
X127250560Y-90803894D01*
X128593687Y-84365000D02*
X129495000Y-84365000D01*
%TO.N,unconnected-(U2-Pad19)*%
X128593687Y-85635000D02*
X129495000Y-85635000D01*
X127663280Y-86565407D02*
X128593687Y-85635000D01*
X127663280Y-88683281D02*
X127663280Y-86565407D01*
X130109999Y-91130000D02*
X127663280Y-88683281D01*
%TO.N,unconnected-(U2-Pad20)*%
X132643332Y-91130000D02*
X132643332Y-90053332D01*
X132643332Y-90053332D02*
X129495000Y-86905000D01*
%TO.N,unconnected-(U2-Pad14)*%
X128007720Y-79285000D02*
X129495000Y-79285000D01*
X125010000Y-82282720D02*
X128007720Y-79285000D01*
X125010000Y-83290000D02*
X125010000Y-82282720D01*
%TO.N,unconnected-(U2-Pad13)*%
X127745000Y-78015000D02*
X129495000Y-78015000D01*
X125010000Y-80750000D02*
X127745000Y-78015000D01*
%TO.N,unconnected-(U2-Pad12)*%
X126475000Y-76745000D02*
X129495000Y-76745000D01*
X125010000Y-78210000D02*
X126475000Y-76745000D01*
%TO.N,unconnected-(U2-Pad11)*%
X129300000Y-75670000D02*
X129495000Y-75475000D01*
X125010000Y-75670000D02*
X129300000Y-75670000D01*
%TO.N,unconnected-(U2-Pad10)*%
X126085000Y-74205000D02*
X129495000Y-74205000D01*
X125010000Y-73130000D02*
X126085000Y-74205000D01*
%TO.N,unconnected-(U2-Pad9)*%
X127435000Y-72935000D02*
X129495000Y-72935000D01*
X124980000Y-70480000D02*
X127435000Y-72935000D01*
%TO.N,unconnected-(U2-Pad8)*%
X128593687Y-71665000D02*
X129495000Y-71665000D01*
X126049711Y-69121024D02*
X128593687Y-71665000D01*
X126049711Y-69009711D02*
X126049711Y-69121024D01*
X124980000Y-67940000D02*
X126049711Y-69009711D01*
%TO.N,unconnected-(U2-Pad7)*%
X128585000Y-70395000D02*
X129495000Y-70395000D01*
X126049711Y-66669711D02*
X126049711Y-67859711D01*
X126049711Y-67859711D02*
X128585000Y-70395000D01*
X124980000Y-65600000D02*
X126049711Y-66669711D01*
%TO.N,unconnected-(U2-Pad6)*%
X125020000Y-64127199D02*
X126837840Y-65945039D01*
X125020000Y-63320000D02*
X125020000Y-64127199D01*
X126837840Y-65945039D02*
X126837840Y-67887840D01*
X126837840Y-67887840D02*
X128075000Y-69125000D01*
X128075000Y-69125000D02*
X129495000Y-69125000D01*
%TO.N,unconnected-(U2-Pad5)*%
X127663280Y-66924593D02*
X128593687Y-67855000D01*
X127250560Y-65825547D02*
X127663280Y-66238267D01*
X128593687Y-67855000D02*
X129495000Y-67855000D01*
X127250560Y-65139221D02*
X127250560Y-65825547D01*
X126425120Y-64313781D02*
X127250560Y-65139221D01*
X126425120Y-62255120D02*
X126425120Y-64313781D01*
X127663280Y-66238267D02*
X127663280Y-66924593D01*
X125020000Y-60850000D02*
X126425120Y-62255120D01*
%TO.N,unconnected-(U2-Pad4)*%
X128593687Y-66585000D02*
X129495000Y-66585000D01*
X126837840Y-64142827D02*
X127663280Y-64968267D01*
X127663280Y-64968267D02*
X127663280Y-65654593D01*
X126837840Y-60227840D02*
X126837840Y-64142827D01*
X127663280Y-65654593D02*
X128593687Y-66585000D01*
X125010000Y-58400000D02*
X126837840Y-60227840D01*
%TO.N,unconnected-(U2-Pad3)*%
X127250560Y-63971873D02*
X128593687Y-65315000D01*
X128593687Y-65315000D02*
X129495000Y-65315000D01*
X127250560Y-58749440D02*
X127250560Y-63971873D01*
X127540000Y-58460000D02*
X127250560Y-58749440D01*
%TO.N,unconnected-(U2-Pad2)*%
X128593687Y-64045000D02*
X129495000Y-64045000D01*
X127663280Y-63114593D02*
X128593687Y-64045000D01*
X127663280Y-60956720D02*
X127663280Y-63114593D01*
X130180000Y-58440000D02*
X127663280Y-60956720D01*
%TO.N,unconnected-(U2-Pad1)*%
X132570000Y-59700000D02*
X129495000Y-62775000D01*
X132570000Y-58480000D02*
X132570000Y-59700000D01*
%TO.N,unconnected-(U2-Pad35)*%
X139765000Y-69125000D02*
X138385000Y-69125000D01*
X141042160Y-65915039D02*
X141042160Y-67847840D01*
X142780000Y-63450000D02*
X142780000Y-64177199D01*
X142780000Y-64177199D02*
X141042160Y-65915039D01*
X141042160Y-67847840D02*
X139765000Y-69125000D01*
%TO.N,unconnected-(U2-Pad36)*%
X139286313Y-67855000D02*
X138385000Y-67855000D01*
X140216720Y-66238267D02*
X140216720Y-66924593D01*
X141454880Y-64458794D02*
X140629440Y-65284234D01*
X140629440Y-65284234D02*
X140629440Y-65825547D01*
X141454880Y-62305120D02*
X141454880Y-64458794D01*
X140216720Y-66924593D02*
X139286313Y-67855000D01*
X142780000Y-60980000D02*
X141454880Y-62305120D01*
X140629440Y-65825547D02*
X140216720Y-66238267D01*
%TO.N,unconnected-(U2-Pad37)*%
X140216720Y-65654593D02*
X139286313Y-66585000D01*
X140216720Y-65113280D02*
X140216720Y-65654593D01*
X141042160Y-60137840D02*
X141042160Y-64287840D01*
X141042160Y-64287840D02*
X140216720Y-65113280D01*
X142780000Y-58400000D02*
X141042160Y-60137840D01*
X139286313Y-66585000D02*
X138385000Y-66585000D01*
%TO.N,unconnected-(U2-Pad38)*%
X140629440Y-63971873D02*
X139286313Y-65315000D01*
X139286313Y-65315000D02*
X138385000Y-65315000D01*
X140240000Y-58400000D02*
X140629440Y-58789440D01*
X140629440Y-58789440D02*
X140629440Y-63971873D01*
%TO.N,unconnected-(U2-Pad39)*%
X140216720Y-63193280D02*
X139365000Y-64045000D01*
X140216720Y-60916720D02*
X140216720Y-63193280D01*
X139365000Y-64045000D02*
X138385000Y-64045000D01*
X137700000Y-58400000D02*
X140216720Y-60916720D01*
%TO.N,unconnected-(U2-Pad40)*%
X138385000Y-61625000D02*
X138385000Y-62775000D01*
X135160000Y-58400000D02*
X138385000Y-61625000D01*
%TO.N,unconnected-(U2-Pad34)*%
X140858525Y-70395000D02*
X138385000Y-70395000D01*
X142380000Y-66917199D02*
X141670289Y-67626910D01*
X141670289Y-67626910D02*
X141670289Y-69583236D01*
X141670289Y-69583236D02*
X140858525Y-70395000D01*
X142740000Y-65730000D02*
X142380000Y-66090000D01*
X142380000Y-66090000D02*
X142380000Y-66917199D01*
%TO.N,unconnected-(U2-Pad33)*%
X140825000Y-71665000D02*
X138385000Y-71665000D01*
X141670289Y-70819711D02*
X140825000Y-71665000D01*
X141670289Y-70166910D02*
X141670289Y-70819711D01*
X142740000Y-69097199D02*
X141670289Y-70166910D01*
X142740000Y-68070000D02*
X142740000Y-69097199D01*
%TO.N,unconnected-(U2-Pad32)*%
X140415000Y-72935000D02*
X138385000Y-72935000D01*
X142740000Y-70610000D02*
X140415000Y-72935000D01*
%TO.N,unconnected-(U2-Pad31)*%
X141825000Y-74205000D02*
X138385000Y-74205000D01*
X142770000Y-73260000D02*
X141825000Y-74205000D01*
%TO.N,unconnected-(U2-Pad30)*%
X138710000Y-75800000D02*
X138385000Y-75475000D01*
X142770000Y-75800000D02*
X138710000Y-75800000D01*
%TO.N,unconnected-(U2-Pad29)*%
X141175000Y-76745000D02*
X138385000Y-76745000D01*
X142770000Y-78340000D02*
X141175000Y-76745000D01*
%TO.N,unconnected-(U2-Pad28)*%
X139905000Y-78015000D02*
X138385000Y-78015000D01*
X142770000Y-80880000D02*
X139905000Y-78015000D01*
%TO.N,unconnected-(U2-Pad27)*%
X139286313Y-79285000D02*
X138385000Y-79285000D01*
X141700289Y-81698976D02*
X139286313Y-79285000D01*
X141700289Y-82350289D02*
X141700289Y-81698976D01*
X142770000Y-83420000D02*
X141700289Y-82350289D01*
%TO.N,unconnected-(U2-Pad26)*%
X139286313Y-80555000D02*
X138385000Y-80555000D01*
X140629440Y-81898127D02*
X139286313Y-80555000D01*
X142770000Y-84932801D02*
X140629440Y-82792241D01*
X140629440Y-82792241D02*
X140629440Y-81898127D01*
X142770000Y-85960000D02*
X142770000Y-84932801D01*
%TO.N,unconnected-(U2-Pad25)*%
X140216720Y-82755407D02*
X139286313Y-81825000D01*
X140216720Y-83441733D02*
X140216720Y-82755407D01*
X139286313Y-81825000D02*
X138385000Y-81825000D01*
X141700289Y-84925302D02*
X140216720Y-83441733D01*
X141700289Y-87430289D02*
X141700289Y-84925302D01*
X142770000Y-88500000D02*
X141700289Y-87430289D01*
%TO.N,unconnected-(U2-Pad24)*%
X141042160Y-84850847D02*
X139286313Y-83095000D01*
X139286313Y-83095000D02*
X138385000Y-83095000D01*
X141042160Y-89395496D02*
X141042160Y-84850847D01*
X142776664Y-91130000D02*
X141042160Y-89395496D01*
%TO.N,unconnected-(U2-Pad23)*%
X140629440Y-85708127D02*
X139286313Y-84365000D01*
X140629440Y-90743891D02*
X140629440Y-85708127D01*
X140243331Y-91130000D02*
X140629440Y-90743891D01*
X139286313Y-84365000D02*
X138385000Y-84365000D01*
%TO.N,unconnected-(U2-Pad22)*%
X139286313Y-85635000D02*
X138385000Y-85635000D01*
X140216720Y-86565407D02*
X139286313Y-85635000D01*
X140216720Y-88623278D02*
X140216720Y-86565407D01*
X137709998Y-91130000D02*
X140216720Y-88623278D01*
%TO.N,unconnected-(U2-Pad21)*%
X135176665Y-91130000D02*
X135176665Y-90113335D01*
X135176665Y-90113335D02*
X138385000Y-86905000D01*
%TO.N,unconnected-(U3-Pad16)*%
X128523687Y-122225000D02*
X129425000Y-122225000D01*
X127593280Y-123155407D02*
X128523687Y-122225000D01*
X126355120Y-124741355D02*
X127593280Y-123503195D01*
X127593280Y-123503195D02*
X127593280Y-123155407D01*
X126355120Y-127724880D02*
X126355120Y-124741355D01*
X124950000Y-129130000D02*
X126355120Y-127724880D01*
%TO.N,unconnected-(U3-Pad15)*%
X126432431Y-121967569D02*
X127445000Y-120955000D01*
X127445000Y-120955000D02*
X129425000Y-120955000D01*
X126019711Y-122890584D02*
X126432431Y-122477864D01*
X125780000Y-124732801D02*
X126019711Y-124493090D01*
X126019711Y-124493090D02*
X126019711Y-122890584D01*
X124950000Y-126590000D02*
X125780000Y-125760000D01*
X125780000Y-125760000D02*
X125780000Y-124732801D01*
X126432431Y-122477864D02*
X126432431Y-121967569D01*
%TO.N,unconnected-(U3-Pad14)*%
X127705000Y-119685000D02*
X129425000Y-119685000D01*
X126019711Y-121370289D02*
X127705000Y-119685000D01*
X125570000Y-122756621D02*
X126019711Y-122306910D01*
X124950000Y-124050000D02*
X125570000Y-123430000D01*
X125570000Y-123430000D02*
X125570000Y-122756621D01*
X126019711Y-122306910D02*
X126019711Y-121370289D01*
%TO.N,unconnected-(U3-Pad17)*%
X128523687Y-123495000D02*
X129425000Y-123495000D01*
X126767840Y-129852160D02*
X126767840Y-125250847D01*
X126767840Y-125250847D02*
X128523687Y-123495000D01*
X124950000Y-131670000D02*
X126767840Y-129852160D01*
%TO.N,unconnected-(U3-Pad18)*%
X128487720Y-124765000D02*
X129425000Y-124765000D01*
X127180560Y-131360560D02*
X127180560Y-126072160D01*
X127180560Y-126072160D02*
X128487720Y-124765000D01*
X127490000Y-131670000D02*
X127180560Y-131360560D01*
%TO.N,unconnected-(U3-Pad19)*%
X127593280Y-126965407D02*
X128523687Y-126035000D01*
X127593280Y-129233280D02*
X127593280Y-126965407D01*
X128523687Y-126035000D02*
X129425000Y-126035000D01*
X130030000Y-131670000D02*
X127593280Y-129233280D01*
%TO.N,unconnected-(U3-Pad20)*%
X132570000Y-130450000D02*
X129425000Y-127305000D01*
X132570000Y-131670000D02*
X132570000Y-130450000D01*
%TO.N,unconnected-(U3-Pad13)*%
X127985000Y-118415000D02*
X129425000Y-118415000D01*
X124950000Y-121450000D02*
X127985000Y-118415000D01*
X124950000Y-121510000D02*
X124950000Y-121450000D01*
%TO.N,unconnected-(U3-Pad12)*%
X126775000Y-117145000D02*
X129425000Y-117145000D01*
X124950000Y-118970000D02*
X126775000Y-117145000D01*
%TO.N,unconnected-(U3-Pad11)*%
X128870000Y-116430000D02*
X129425000Y-115875000D01*
X124950000Y-116430000D02*
X128870000Y-116430000D01*
%TO.N,unconnected-(U3-Pad10)*%
X125665000Y-114605000D02*
X129425000Y-114605000D01*
X124950000Y-113890000D02*
X125665000Y-114605000D01*
%TO.N,unconnected-(U3-Pad9)*%
X126935000Y-113335000D02*
X129425000Y-113335000D01*
X124950000Y-111350000D02*
X126935000Y-113335000D01*
%TO.N,unconnected-(U3-Pad8)*%
X124950000Y-108810000D02*
X128205000Y-112065000D01*
X128205000Y-112065000D02*
X129425000Y-112065000D01*
%TO.N,unconnected-(U3-Pad7)*%
X124990000Y-107261313D02*
X128523687Y-110795000D01*
X124990000Y-106280000D02*
X124990000Y-107261313D01*
X128523687Y-110795000D02*
X129425000Y-110795000D01*
%TO.N,unconnected-(U3-Pad6)*%
X127875000Y-109525000D02*
X129425000Y-109525000D01*
X126767840Y-106545039D02*
X126767840Y-108417840D01*
X126767840Y-108417840D02*
X127875000Y-109525000D01*
X125050000Y-103650000D02*
X125050000Y-104827199D01*
X125050000Y-104827199D02*
X126767840Y-106545039D01*
%TO.N,unconnected-(U3-Pad5)*%
X127180560Y-106010560D02*
X127180560Y-106911873D01*
X127180560Y-106911873D02*
X128523687Y-108255000D01*
X126355120Y-105185120D02*
X127180560Y-106010560D01*
X126355120Y-102415120D02*
X126355120Y-105185120D01*
X125050000Y-101110000D02*
X126355120Y-102415120D01*
X128523687Y-108255000D02*
X129425000Y-108255000D01*
%TO.N,unconnected-(U3-Pad4)*%
X128523687Y-106985000D02*
X129425000Y-106985000D01*
X127593280Y-106054593D02*
X128523687Y-106985000D01*
X126767840Y-104891514D02*
X127593280Y-105716954D01*
X126767840Y-100287840D02*
X126767840Y-104891514D01*
X125050000Y-98570000D02*
X126767840Y-100287840D01*
X127593280Y-105716954D02*
X127593280Y-106054593D01*
%TO.N,unconnected-(U3-Pad3)*%
X128175000Y-105715000D02*
X129425000Y-105715000D01*
X127180560Y-104720560D02*
X128175000Y-105715000D01*
X127180560Y-98979440D02*
X127180560Y-104720560D01*
X127590000Y-98570000D02*
X127180560Y-98979440D01*
%TO.N,unconnected-(U3-Pad2)*%
X127725000Y-104445000D02*
X129425000Y-104445000D01*
X127593280Y-104313280D02*
X127725000Y-104445000D01*
X127593280Y-101186720D02*
X127593280Y-104313280D01*
X130120000Y-98660000D02*
X127593280Y-101186720D01*
%TO.N,unconnected-(U3-Pad1)*%
X132610000Y-99990000D02*
X129425000Y-103175000D01*
X132610000Y-98660000D02*
X132610000Y-99990000D01*
%TO.N,unconnected-(U3-Pad40)*%
X138315000Y-103175000D02*
X135150000Y-100010000D01*
X135150000Y-100010000D02*
X135150000Y-98660000D01*
%TO.N,unconnected-(U3-Pad39)*%
X140462129Y-103713175D02*
X139730304Y-104445000D01*
X139730304Y-104445000D02*
X138315000Y-104445000D01*
X140462129Y-101432129D02*
X140462129Y-103713175D01*
X137690000Y-98660000D02*
X140462129Y-101432129D01*
%TO.N,unconnected-(U3-Pad38)*%
X141237280Y-102592571D02*
X141237280Y-99667280D01*
X140874849Y-102955002D02*
X141237280Y-102592571D01*
X140462129Y-104296849D02*
X140874849Y-103884129D01*
X140462129Y-105267871D02*
X140462129Y-104296849D01*
X140874849Y-103884129D02*
X140874849Y-102955002D01*
X140015000Y-105715000D02*
X140462129Y-105267871D01*
X138315000Y-105715000D02*
X140015000Y-105715000D01*
X141237280Y-99667280D02*
X140230000Y-98660000D01*
%TO.N,unconnected-(U3-Pad37)*%
X138330000Y-107000000D02*
X138315000Y-106985000D01*
X140874849Y-104467803D02*
X140874849Y-106665151D01*
X141287569Y-103125956D02*
X141287569Y-104055083D01*
X140874849Y-106665151D02*
X140540000Y-107000000D01*
X141650000Y-102763525D02*
X141287569Y-103125956D01*
X141650000Y-99780000D02*
X141650000Y-102763525D01*
X140540000Y-107000000D02*
X138330000Y-107000000D01*
X142770000Y-98660000D02*
X141650000Y-99780000D01*
X141287569Y-104055083D02*
X140874849Y-104467803D01*
%TO.N,unconnected-(U3-Pad36)*%
X142770000Y-102227199D02*
X142770000Y-101200000D01*
X141700289Y-104226037D02*
X141700289Y-103296910D01*
X141700289Y-103296910D02*
X142770000Y-102227199D01*
X141287569Y-107262431D02*
X141287569Y-104638757D01*
X140290000Y-108260000D02*
X141287569Y-107262431D01*
X141287569Y-104638757D02*
X141700289Y-104226037D01*
X139221313Y-108260000D02*
X140290000Y-108260000D01*
X139216313Y-108255000D02*
X139221313Y-108260000D01*
X138315000Y-108255000D02*
X139216313Y-108255000D01*
%TO.N,unconnected-(U3-Pad35)*%
X140582280Y-109267720D02*
X140325000Y-109525000D01*
X140325000Y-109525000D02*
X138315000Y-109525000D01*
X140582280Y-108854046D02*
X140582280Y-109267720D01*
X141700289Y-107736037D02*
X140582280Y-108854046D01*
X141700289Y-104809711D02*
X141700289Y-107736037D01*
X142770000Y-103740000D02*
X141700289Y-104809711D01*
%TO.N,unconnected-(U3-Pad34)*%
X140995000Y-110360000D02*
X138750000Y-110360000D01*
X138750000Y-110360000D02*
X138315000Y-110795000D01*
X142770000Y-107250000D02*
X140995000Y-109025000D01*
X142770000Y-106280000D02*
X142770000Y-107250000D01*
X140995000Y-109025000D02*
X140995000Y-110360000D01*
%TO.N,unconnected-(U3-Pad33)*%
X142730000Y-109810000D02*
X140475000Y-112065000D01*
X140475000Y-112065000D02*
X138315000Y-112065000D01*
X142730000Y-108810000D02*
X142730000Y-109810000D01*
%TO.N,unconnected-(U3-Pad32)*%
X140745000Y-113335000D02*
X138315000Y-113335000D01*
X142730000Y-111350000D02*
X140745000Y-113335000D01*
%TO.N,unconnected-(U3-Pad31)*%
X142015000Y-114605000D02*
X138315000Y-114605000D01*
X142730000Y-113890000D02*
X142015000Y-114605000D01*
%TO.N,unconnected-(U3-Pad30)*%
X138870000Y-116430000D02*
X138315000Y-115875000D01*
X142730000Y-116430000D02*
X138870000Y-116430000D01*
%TO.N,unconnected-(U3-Pad29)*%
X140905000Y-117145000D02*
X138315000Y-117145000D01*
X142730000Y-118970000D02*
X140905000Y-117145000D01*
%TO.N,unconnected-(U3-Pad28)*%
X139216313Y-118415000D02*
X138315000Y-118415000D01*
X142730000Y-121510000D02*
X142311313Y-121510000D01*
X142311313Y-121510000D02*
X139216313Y-118415000D01*
%TO.N,unconnected-(U3-Pad21)*%
X135110000Y-130510000D02*
X138315000Y-127305000D01*
X135110000Y-131670000D02*
X135110000Y-130510000D01*
%TO.N,unconnected-(U3-Pad22)*%
X139725000Y-126035000D02*
X138315000Y-126035000D01*
X140146720Y-126456720D02*
X139725000Y-126035000D01*
X137650000Y-131670000D02*
X140146720Y-129173280D01*
X140146720Y-129173280D02*
X140146720Y-126456720D01*
%TO.N,unconnected-(U3-Pad23)*%
X140650000Y-131210000D02*
X140190000Y-131670000D01*
X140834849Y-130358523D02*
X140650000Y-130543372D01*
X140834849Y-125584849D02*
X140834849Y-130358523D01*
X140015000Y-124765000D02*
X140834849Y-125584849D01*
X140650000Y-130543372D02*
X140650000Y-131210000D01*
X138315000Y-124765000D02*
X140015000Y-124765000D01*
%TO.N,unconnected-(U3-Pad24)*%
X141247569Y-130187569D02*
X142730000Y-131670000D01*
X141247569Y-125247718D02*
X141247569Y-130187569D01*
X140834849Y-124834998D02*
X141247569Y-125247718D01*
X140834849Y-124544849D02*
X140834849Y-124834998D01*
X138315000Y-123495000D02*
X139785000Y-123495000D01*
X139785000Y-123495000D02*
X140834849Y-124544849D01*
%TO.N,unconnected-(U3-Pad25)*%
X139695000Y-122225000D02*
X138315000Y-122225000D01*
X141660289Y-125076764D02*
X141247569Y-124664044D01*
X141247569Y-124664044D02*
X141247569Y-123777569D01*
X141660289Y-128060289D02*
X141660289Y-125076764D01*
X141247569Y-123777569D02*
X139695000Y-122225000D01*
X142730000Y-129130000D02*
X141660289Y-128060289D01*
%TO.N,unconnected-(U3-Pad26)*%
X139805000Y-120955000D02*
X138315000Y-120955000D01*
X141660289Y-122810289D02*
X139805000Y-120955000D01*
X142730000Y-125119711D02*
X142286910Y-125119711D01*
X142286910Y-125119711D02*
X141660289Y-124493090D01*
X141660289Y-124493090D02*
X141660289Y-122810289D01*
X142730000Y-126590000D02*
X142730000Y-125119711D01*
%TO.N,unconnected-(U3-Pad27)*%
X139216313Y-119685000D02*
X138315000Y-119685000D01*
X142730000Y-124050000D02*
X142730000Y-123198687D01*
X142730000Y-123198687D02*
X139216313Y-119685000D01*
%TO.N,unconnected-(U5-Pad24)*%
X97010000Y-111350000D02*
X98530000Y-112870000D01*
X98530000Y-112870000D02*
X101295000Y-112870000D01*
%TO.N,unconnected-(U5-Pad23)*%
X98079711Y-109879711D02*
X97010000Y-108810000D01*
X99934347Y-109879711D02*
X98079711Y-109879711D01*
X102565000Y-112510364D02*
X99934347Y-109879711D01*
X102565000Y-112870000D02*
X102565000Y-112510364D01*
%TO.N,unconnected-(U5-Pad22)*%
X100134636Y-108810000D02*
X103835000Y-112510364D01*
X99550000Y-108810000D02*
X100134636Y-108810000D01*
X103835000Y-112510364D02*
X103835000Y-112870000D01*
%TO.N,unconnected-(U5-Pad21)*%
X105105000Y-111825000D02*
X105105000Y-112870000D01*
X102090000Y-108810000D02*
X105105000Y-111825000D01*
%TO.N,unconnected-(U5-Pad20)*%
X106375000Y-110555000D02*
X106375000Y-112870000D01*
X104630000Y-108810000D02*
X106375000Y-110555000D01*
%TO.N,unconnected-(U5-Pad19)*%
X107430000Y-112655000D02*
X107645000Y-112870000D01*
X107430000Y-108810000D02*
X107430000Y-112655000D01*
%TO.N,unconnected-(U5-Pad18)*%
X108915000Y-109605000D02*
X108915000Y-112870000D01*
X109710000Y-108810000D02*
X108915000Y-109605000D01*
%TO.N,unconnected-(U5-Pad17)*%
X110185000Y-110875000D02*
X110185000Y-112870000D01*
X112250000Y-108810000D02*
X110185000Y-110875000D01*
%TO.N,unconnected-(U5-Pad16)*%
X111455000Y-112145000D02*
X111455000Y-112870000D01*
X114790000Y-108810000D02*
X111455000Y-112145000D01*
%TO.N,unconnected-(U5-Pad15)*%
X116425364Y-108810000D02*
X112725000Y-112510364D01*
X112725000Y-112510364D02*
X112725000Y-112870000D01*
X117330000Y-108810000D02*
X116425364Y-108810000D01*
%TO.N,unconnected-(U5-Pad14)*%
X117117720Y-111562280D02*
X114943084Y-111562280D01*
X114943084Y-111562280D02*
X113995000Y-112510364D01*
X119870000Y-108810000D02*
X117117720Y-111562280D01*
X113995000Y-112510364D02*
X113995000Y-112870000D01*
%TO.N,unconnected-(U5-Pad13)*%
X118350000Y-112870000D02*
X119870000Y-111350000D01*
X115265000Y-112870000D02*
X118350000Y-112870000D01*
%TO.N,unconnected-(U5-Pad12)*%
X117990000Y-122170000D02*
X119870000Y-124050000D01*
X115265000Y-122170000D02*
X117990000Y-122170000D01*
%TO.N,unconnected-(U5-Pad11)*%
X118694636Y-125414636D02*
X119870000Y-126590000D01*
X116880000Y-125414636D02*
X118694636Y-125414636D01*
X113995000Y-122170000D02*
X113995000Y-122529636D01*
X113995000Y-122529636D02*
X116880000Y-125414636D01*
%TO.N,unconnected-(U5-Pad10)*%
X112725000Y-122529636D02*
X116785364Y-126590000D01*
X116785364Y-126590000D02*
X117330000Y-126590000D01*
X112725000Y-122170000D02*
X112725000Y-122529636D01*
%TO.N,unconnected-(U5-Pad9)*%
X111455000Y-123255000D02*
X114790000Y-126590000D01*
X111455000Y-122170000D02*
X111455000Y-123255000D01*
%TO.N,unconnected-(U5-Pad8)*%
X110185000Y-124525000D02*
X112250000Y-126590000D01*
X110185000Y-122170000D02*
X110185000Y-124525000D01*
%TO.N,unconnected-(U5-Pad7)*%
X108915000Y-125795000D02*
X108915000Y-122170000D01*
X109710000Y-126590000D02*
X108915000Y-125795000D01*
%TO.N,unconnected-(U5-Pad6)*%
X107170000Y-122645000D02*
X107645000Y-122170000D01*
X107170000Y-126590000D02*
X107170000Y-122645000D01*
%TO.N,unconnected-(U5-Pad5)*%
X106375000Y-124845000D02*
X106375000Y-122170000D01*
X104630000Y-126590000D02*
X106375000Y-124845000D01*
%TO.N,unconnected-(U5-Pad4)*%
X105105000Y-122529636D02*
X105105000Y-122170000D01*
X102090000Y-125544636D02*
X105105000Y-122529636D01*
X102090000Y-126590000D02*
X102090000Y-125544636D01*
%TO.N,unconnected-(U5-Pad3)*%
X99774636Y-126590000D02*
X103835000Y-122529636D01*
X99550000Y-126590000D02*
X99774636Y-126590000D01*
X103835000Y-122529636D02*
X103835000Y-122170000D01*
%TO.N,unconnected-(U5-Pad2)*%
X102565000Y-122529636D02*
X102565000Y-122170000D01*
X101616916Y-123477720D02*
X102565000Y-122529636D01*
X97010000Y-126590000D02*
X100122280Y-123477720D01*
X100122280Y-123477720D02*
X101616916Y-123477720D01*
%TO.N,unconnected-(U5-Pad1)*%
X98890000Y-122170000D02*
X101295000Y-122170000D01*
X97010000Y-124050000D02*
X98890000Y-122170000D01*
%TO.N,unconnected-(U4-Pad1)*%
X85322280Y-117657720D02*
X85280000Y-117700000D01*
X85557720Y-117657720D02*
X85322280Y-117657720D01*
X89390000Y-121490000D02*
X85557720Y-117657720D01*
%TO.N,unconnected-(U4-Pad4)*%
X87060000Y-116200000D02*
X85280000Y-116200000D01*
X89390000Y-113870000D02*
X87060000Y-116200000D01*
%TO.N,unconnected-(U4-Pad5)*%
X85280000Y-115700000D02*
X85280000Y-115440000D01*
X85280000Y-115440000D02*
X89390000Y-111330000D01*
%TO.N,unconnected-(U4-Pad6)*%
X76690000Y-111330000D02*
X76690000Y-111510000D01*
X76690000Y-111510000D02*
X80880000Y-115700000D01*
%TO.N,unconnected-(U4-Pad7)*%
X79020000Y-116200000D02*
X80880000Y-116200000D01*
X76690000Y-113870000D02*
X79020000Y-116200000D01*
%TO.N,unconnected-(U4-Pad8)*%
X76980000Y-116700000D02*
X80880000Y-116700000D01*
X76690000Y-116410000D02*
X76980000Y-116700000D01*
%TO.N,unconnected-(U4-Pad9)*%
X78482280Y-117157720D02*
X81010000Y-117157720D01*
X76690000Y-118950000D02*
X78482280Y-117157720D01*
%TO.N,unconnected-(U4-Pad10)*%
X77090000Y-121490000D02*
X76690000Y-121490000D01*
X80880000Y-117700000D02*
X77090000Y-121490000D01*
%TO.N,unconnected-(U1-Pad64)*%
X105939711Y-98286910D02*
X101902801Y-94250000D01*
X105939711Y-100200289D02*
X105939711Y-98286910D01*
X104870000Y-101270000D02*
X105939711Y-100200289D01*
X101902801Y-94250000D02*
X101730000Y-94250000D01*
%TO.N,unconnected-(U1-Pad63)*%
X100930000Y-94875000D02*
X100930000Y-94250000D01*
X103399711Y-97344711D02*
X100930000Y-94875000D01*
X103399711Y-102459711D02*
X103399711Y-97344711D01*
X104890000Y-103950000D02*
X103399711Y-102459711D01*
%TO.N,unconnected-(U1-Pad62)*%
X100130000Y-94757669D02*
X100130000Y-94250000D01*
X102330000Y-96957669D02*
X100130000Y-94757669D01*
X102330000Y-98740000D02*
X102330000Y-96957669D01*
%TO.N,unconnected-(U1-Pad61)*%
X99330000Y-94875000D02*
X99330000Y-94250000D01*
X101002431Y-96547431D02*
X99330000Y-94875000D01*
X101002431Y-99952431D02*
X101002431Y-96547431D01*
X102330000Y-101280000D02*
X101002431Y-99952431D01*
%TO.N,unconnected-(U1-Pad60)*%
X100589711Y-96817380D02*
X98530000Y-94757669D01*
X100589711Y-102189711D02*
X100589711Y-96817380D01*
X102350000Y-103950000D02*
X100589711Y-102189711D01*
X98530000Y-94757669D02*
X98530000Y-94250000D01*
%TO.N,unconnected-(U1-Pad59)*%
X97730000Y-94757669D02*
X97730000Y-94250000D01*
X99520000Y-96547669D02*
X97730000Y-94757669D01*
X99520000Y-98740000D02*
X99520000Y-96547669D01*
%TO.N,unconnected-(U1-Pad58)*%
X96930000Y-94757669D02*
X96930000Y-94250000D01*
X98450289Y-96277958D02*
X96930000Y-94757669D01*
X98450289Y-100210289D02*
X98450289Y-96277958D01*
X99520000Y-101280000D02*
X98450289Y-100210289D01*
%TO.N,unconnected-(U1-Pad57)*%
X96130000Y-94757669D02*
X96130000Y-94250000D01*
X97739711Y-96367380D02*
X96130000Y-94757669D01*
X97739711Y-102039711D02*
X97739711Y-96367380D01*
X99500000Y-103800000D02*
X97739711Y-102039711D01*
%TO.N,unconnected-(U1-Pad56)*%
X95330000Y-94875000D02*
X95330000Y-94250000D01*
X96670000Y-98720000D02*
X96670000Y-96215000D01*
X96670000Y-96215000D02*
X95330000Y-94875000D01*
%TO.N,unconnected-(U1-Pad55)*%
X95280000Y-95507669D02*
X94530000Y-94757669D01*
X95280000Y-99870000D02*
X95280000Y-95507669D01*
X96670000Y-101260000D02*
X95280000Y-99870000D01*
X94530000Y-94757669D02*
X94530000Y-94250000D01*
%TO.N,unconnected-(U1-Pad54)*%
X93660000Y-94320000D02*
X93730000Y-94250000D01*
X94779711Y-95809711D02*
X93660000Y-94690000D01*
X96650000Y-103830000D02*
X94779711Y-101959711D01*
X94779711Y-101959711D02*
X94779711Y-95809711D01*
X93660000Y-94690000D02*
X93660000Y-94320000D01*
%TO.N,unconnected-(U1-Pad53)*%
X93247280Y-98257280D02*
X93247280Y-94567280D01*
X93247280Y-94567280D02*
X92930000Y-94250000D01*
X93710000Y-98720000D02*
X93247280Y-98257280D01*
%TO.N,unconnected-(U1-Pad52)*%
X92640289Y-95267958D02*
X92130000Y-94757669D01*
X92130000Y-94757669D02*
X92130000Y-94250000D01*
X92640289Y-100190289D02*
X92640289Y-95267958D01*
X93710000Y-101260000D02*
X92640289Y-100190289D01*
%TO.N,unconnected-(U1-Pad51)*%
X92069711Y-95614711D02*
X91330000Y-94875000D01*
X91330000Y-94875000D02*
X91330000Y-94250000D01*
X92069711Y-101713090D02*
X92069711Y-95614711D01*
X91886400Y-101896400D02*
X92069711Y-101713090D01*
X93750000Y-103760000D02*
X91886400Y-101896400D01*
%TO.N,unconnected-(U1-Pad50)*%
X90530000Y-98260000D02*
X90530000Y-94250000D01*
X91000000Y-98730000D02*
X90530000Y-98260000D01*
%TO.N,unconnected-(U1-Pad49)*%
X89930289Y-94450289D02*
X89730000Y-94250000D01*
X89930289Y-100200289D02*
X89930289Y-94450289D01*
X91000000Y-101270000D02*
X89930289Y-100200289D01*
%TO.N,unconnected-(U1-Pad48)*%
X88930000Y-95270578D02*
X88930000Y-94250000D01*
X89329711Y-102009711D02*
X89329711Y-95670289D01*
X91030000Y-103710000D02*
X89329711Y-102009711D01*
X89329711Y-95670289D02*
X88930000Y-95270578D01*
%TO.N,unconnected-(U1-Pad47)*%
X88130000Y-98620000D02*
X88130000Y-94250000D01*
X88260000Y-98750000D02*
X88130000Y-98620000D01*
%TO.N,unconnected-(U1-Pad46)*%
X87190289Y-100220289D02*
X87190289Y-94389711D01*
X88260000Y-101290000D02*
X87190289Y-100220289D01*
X87190289Y-94389711D02*
X87330000Y-94250000D01*
%TO.N,unconnected-(U1-Pad45)*%
X86530000Y-101980000D02*
X86530000Y-94250000D01*
X88230000Y-103680000D02*
X86530000Y-101980000D01*
%TO.N,unconnected-(U1-Pad44)*%
X85730000Y-95850000D02*
X85730000Y-94250000D01*
X84990000Y-96590000D02*
X85730000Y-95850000D01*
X84990000Y-98350000D02*
X84990000Y-96590000D01*
X85380000Y-98740000D02*
X84990000Y-98350000D01*
%TO.N,unconnected-(U1-Pad43)*%
X84930000Y-94875000D02*
X84930000Y-94250000D01*
X84310289Y-95494711D02*
X84930000Y-94875000D01*
X84310289Y-100210289D02*
X84310289Y-95494711D01*
X85380000Y-101280000D02*
X84310289Y-100210289D01*
%TO.N,unconnected-(U1-Pad39)*%
X80600000Y-95997348D02*
X81730000Y-94867348D01*
X80949711Y-101889711D02*
X80949711Y-98336910D01*
X82720000Y-103660000D02*
X80949711Y-101889711D01*
X82720000Y-103860000D02*
X82720000Y-103660000D01*
X80949711Y-98336910D02*
X80600000Y-97987199D01*
X80600000Y-97987199D02*
X80600000Y-95997348D01*
X81730000Y-94867348D02*
X81730000Y-94250000D01*
%TO.N,unconnected-(U1-Pad42)*%
X83820000Y-94560000D02*
X84130000Y-94250000D01*
X83820000Y-102260000D02*
X83820000Y-94560000D01*
X85380000Y-103820000D02*
X83820000Y-102260000D01*
%TO.N,unconnected-(U1-Pad41)*%
X83330000Y-94757669D02*
X83330000Y-94250000D01*
X81872720Y-96214949D02*
X83330000Y-94757669D01*
X81872720Y-97932720D02*
X81872720Y-96214949D01*
X82720000Y-98780000D02*
X81872720Y-97932720D01*
%TO.N,unconnected-(U1-Pad40)*%
X82530000Y-94760000D02*
X82530000Y-94250000D01*
X81460000Y-95830000D02*
X82530000Y-94760000D01*
X81460000Y-100060000D02*
X81460000Y-95830000D01*
X82720000Y-101320000D02*
X81460000Y-100060000D01*
%TO.N,unconnected-(U1-Pad38)*%
X79510000Y-96503674D02*
X80930000Y-95083674D01*
X79510000Y-98410000D02*
X79510000Y-96503674D01*
X80930000Y-95083674D02*
X80930000Y-94250000D01*
X79880000Y-98780000D02*
X79510000Y-98410000D01*
%TO.N,unconnected-(U1-Pad36)*%
X78260000Y-96570000D02*
X79330000Y-95500000D01*
X79330000Y-95500000D02*
X79330000Y-94250000D01*
X78260000Y-102680000D02*
X78260000Y-96570000D01*
X79440000Y-103860000D02*
X78260000Y-102680000D01*
X79880000Y-103860000D02*
X79440000Y-103860000D01*
%TO.N,unconnected-(U1-Pad33)*%
X75429711Y-95750289D02*
X76930000Y-94250000D01*
X75429711Y-102279711D02*
X75429711Y-95750289D01*
X77010000Y-103860000D02*
X75429711Y-102279711D01*
%TO.N,unconnected-(U1-Pad34)*%
X77730000Y-94827280D02*
X77730000Y-94250000D01*
X75940289Y-96616991D02*
X77730000Y-94827280D01*
X75940289Y-100360289D02*
X75940289Y-96616991D01*
X76900000Y-101320000D02*
X75940289Y-100360289D01*
%TO.N,unconnected-(U1-Pad35)*%
X78530000Y-94757669D02*
X78530000Y-94250000D01*
X76900000Y-96387669D02*
X78530000Y-94757669D01*
X76900000Y-98780000D02*
X76900000Y-96387669D01*
%TO.N,unconnected-(U1-Pad37)*%
X80130000Y-95300000D02*
X80130000Y-94250000D01*
X78810289Y-100250289D02*
X78810289Y-96619711D01*
X78810289Y-96619711D02*
X80130000Y-95300000D01*
X79880000Y-101320000D02*
X78810289Y-100250289D01*
%TO.N,unconnected-(U1-Pad32)*%
X69829711Y-94950289D02*
X73730000Y-91050000D01*
X68200289Y-94950289D02*
X69829711Y-94950289D01*
X66730000Y-93480000D02*
X68200289Y-94950289D01*
%TO.N,unconnected-(U1-Pad31)*%
X73105000Y-90250000D02*
X73730000Y-90250000D01*
X65730289Y-92009711D02*
X71345289Y-92009711D01*
X71345289Y-92009711D02*
X73105000Y-90250000D01*
X64260000Y-93480000D02*
X65730289Y-92009711D01*
%TO.N,unconnected-(U1-Pad30)*%
X72587771Y-89450000D02*
X73730000Y-89450000D01*
X71177771Y-90860000D02*
X72587771Y-89450000D01*
X69240000Y-90860000D02*
X71177771Y-90860000D01*
%TO.N,unconnected-(U1-Pad29)*%
X71303674Y-88650000D02*
X73730000Y-88650000D01*
X66730000Y-90940000D02*
X67987569Y-89682431D01*
X67987569Y-89682431D02*
X70271243Y-89682431D01*
X70271243Y-89682431D02*
X71303674Y-88650000D01*
%TO.N,unconnected-(U1-Pad28)*%
X72708957Y-87930723D02*
X72789680Y-87850000D01*
X71439277Y-87930723D02*
X72708957Y-87930723D01*
X65880289Y-89269711D02*
X70100289Y-89269711D01*
X70100289Y-89269711D02*
X71439277Y-87930723D01*
X64260000Y-90890000D02*
X65880289Y-89269711D01*
X72789680Y-87850000D02*
X73730000Y-87850000D01*
%TO.N,unconnected-(U1-Pad27)*%
X70030000Y-88200000D02*
X70711997Y-87518003D01*
X70711997Y-87518003D02*
X72538003Y-87518003D01*
X69250000Y-88200000D02*
X70030000Y-88200000D01*
X73006006Y-87050000D02*
X73730000Y-87050000D01*
X72538003Y-87518003D02*
X73006006Y-87050000D01*
%TO.N,unconnected-(U1-Pad26)*%
X73222331Y-86250000D02*
X73730000Y-86250000D01*
X71053674Y-86460000D02*
X73012331Y-86460000D01*
X73012331Y-86460000D02*
X73222331Y-86250000D01*
X66740000Y-88200000D02*
X67977569Y-86962431D01*
X67977569Y-86962431D02*
X70551243Y-86962431D01*
X70551243Y-86962431D02*
X71053674Y-86460000D01*
%TO.N,unconnected-(U1-Pad25)*%
X72888674Y-85450000D02*
X73730000Y-85450000D01*
X70380289Y-86549711D02*
X71037280Y-85892720D01*
X71037280Y-85892720D02*
X72445954Y-85892720D01*
X65920289Y-86549711D02*
X70380289Y-86549711D01*
X64270000Y-88200000D02*
X65920289Y-86549711D01*
X72445954Y-85892720D02*
X72888674Y-85450000D01*
%TO.N,unconnected-(U1-Pad24)*%
X72275000Y-85480000D02*
X73105000Y-84650000D01*
X69220000Y-85480000D02*
X72275000Y-85480000D01*
X73105000Y-84650000D02*
X73730000Y-84650000D01*
%TO.N,unconnected-(U1-Pad23)*%
X72662042Y-84410289D02*
X73222331Y-83850000D01*
X67779711Y-84410289D02*
X72662042Y-84410289D01*
X66710000Y-85480000D02*
X67779711Y-84410289D01*
X73222331Y-83850000D02*
X73730000Y-83850000D01*
%TO.N,unconnected-(U1-Pad22)*%
X73105000Y-83050000D02*
X73730000Y-83050000D01*
X72265289Y-83889711D02*
X73105000Y-83050000D01*
X64240000Y-85480000D02*
X65830289Y-83889711D01*
X65830289Y-83889711D02*
X72265289Y-83889711D01*
%TO.N,unconnected-(U1-Pad21)*%
X69790000Y-82250000D02*
X73730000Y-82250000D01*
X69220000Y-82820000D02*
X69790000Y-82250000D01*
%TO.N,unconnected-(U1-Pad20)*%
X68007569Y-81522431D02*
X73657569Y-81522431D01*
X66710000Y-82820000D02*
X68007569Y-81522431D01*
X73657569Y-81522431D02*
X73730000Y-81450000D01*
%TO.N,unconnected-(U1-Pad19)*%
X73105000Y-80650000D02*
X73730000Y-80650000D01*
X65860289Y-81109711D02*
X72645289Y-81109711D01*
X64150000Y-82820000D02*
X65860289Y-81109711D01*
X72645289Y-81109711D02*
X73105000Y-80650000D01*
%TO.N,unconnected-(U1-Pad18)*%
X69230000Y-80040000D02*
X69420000Y-79850000D01*
X69420000Y-79850000D02*
X73730000Y-79850000D01*
%TO.N,unconnected-(U1-Pad17)*%
X73650289Y-78970289D02*
X73730000Y-79050000D01*
X66720000Y-80040000D02*
X67789711Y-78970289D01*
X67789711Y-78970289D02*
X73650289Y-78970289D01*
%TO.N,unconnected-(U1-Pad15)*%
X69550000Y-77450000D02*
X73730000Y-77450000D01*
X69230000Y-77130000D02*
X69550000Y-77450000D01*
%TO.N,unconnected-(U1-Pad13)*%
X73222331Y-75850000D02*
X73730000Y-75850000D01*
X72832042Y-75459711D02*
X73222331Y-75850000D01*
X66210289Y-75459711D02*
X72832042Y-75459711D01*
X64540000Y-77130000D02*
X66210289Y-75459711D01*
X64170000Y-77130000D02*
X64540000Y-77130000D01*
%TO.N,unconnected-(U1-Pad14)*%
X73090000Y-76650000D02*
X73730000Y-76650000D01*
X72500289Y-76060289D02*
X73090000Y-76650000D01*
X66720000Y-77130000D02*
X67789711Y-76060289D01*
X67789711Y-76060289D02*
X72500289Y-76060289D01*
%TO.N,unconnected-(U1-Pad12)*%
X72472331Y-74300000D02*
X73222331Y-75050000D01*
X73222331Y-75050000D02*
X73730000Y-75050000D01*
X69260000Y-74300000D02*
X72472331Y-74300000D01*
X69170000Y-74390000D02*
X69260000Y-74300000D01*
%TO.N,unconnected-(U1-Pad11)*%
X67729711Y-73320289D02*
X72175289Y-73320289D01*
X72175289Y-73320289D02*
X73105000Y-74250000D01*
X66660000Y-74390000D02*
X67729711Y-73320289D01*
X73105000Y-74250000D02*
X73730000Y-74250000D01*
%TO.N,unconnected-(U1-Pad10)*%
X73222331Y-73450000D02*
X73730000Y-73450000D01*
X70556326Y-72080000D02*
X71852331Y-72080000D01*
X65350000Y-72730000D02*
X69906326Y-72730000D01*
X64120000Y-73960000D02*
X65350000Y-72730000D01*
X69906326Y-72730000D02*
X70556326Y-72080000D01*
X71852331Y-72080000D02*
X73222331Y-73450000D01*
%TO.N,unconnected-(U1-Pad9)*%
X71542331Y-70970000D02*
X73222331Y-72650000D01*
X73222331Y-72650000D02*
X73730000Y-72650000D01*
X69790000Y-70970000D02*
X71542331Y-70970000D01*
X69150000Y-71610000D02*
X69790000Y-70970000D01*
%TO.N,unconnected-(U1-Pad8)*%
X73126326Y-71850000D02*
X73730000Y-71850000D01*
X71816615Y-70540289D02*
X73126326Y-71850000D01*
X67709711Y-70540289D02*
X71816615Y-70540289D01*
X66640000Y-71610000D02*
X67709711Y-70540289D01*
%TO.N,unconnected-(U1-Pad7)*%
X72910000Y-71050000D02*
X73730000Y-71050000D01*
X71650000Y-69790000D02*
X72910000Y-71050000D01*
X69633090Y-69809711D02*
X69652801Y-69790000D01*
X67142801Y-69790000D02*
X68727199Y-69790000D01*
X66236910Y-69809711D02*
X67123090Y-69809711D01*
X69652801Y-69790000D02*
X71650000Y-69790000D01*
X68727199Y-69790000D02*
X68746910Y-69809711D01*
X66217199Y-69790000D02*
X66236910Y-69809711D01*
X65910000Y-69790000D02*
X66217199Y-69790000D01*
X67123090Y-69809711D02*
X67142801Y-69790000D01*
X64090000Y-71610000D02*
X65910000Y-69790000D01*
X68746910Y-69809711D02*
X69633090Y-69809711D01*
%TO.N,unconnected-(U1-Pad6)*%
X73222331Y-70250000D02*
X73730000Y-70250000D01*
X71712331Y-68740000D02*
X73222331Y-70250000D01*
X69190000Y-68740000D02*
X71712331Y-68740000D01*
%TO.N,unconnected-(U1-Pad5)*%
X71325289Y-67670289D02*
X73105000Y-69450000D01*
X67749711Y-67670289D02*
X71325289Y-67670289D01*
X66680000Y-68740000D02*
X67749711Y-67670289D01*
X73105000Y-69450000D02*
X73730000Y-69450000D01*
%TO.N,unconnected-(U1-Pad4)*%
X72970000Y-68650000D02*
X73730000Y-68650000D01*
X71420000Y-67100000D02*
X72970000Y-68650000D01*
X65614552Y-67100000D02*
X71420000Y-67100000D01*
X64140000Y-68574552D02*
X65614552Y-67100000D01*
%TO.N,unconnected-(U1-Pad3)*%
X73190000Y-67850000D02*
X73730000Y-67850000D01*
X69540000Y-66280000D02*
X71620000Y-66280000D01*
X69270000Y-66010000D02*
X69540000Y-66280000D01*
X71620000Y-66280000D02*
X73190000Y-67850000D01*
%TO.N,unconnected-(U1-Pad2)*%
X73105000Y-67050000D02*
X73730000Y-67050000D01*
X70995289Y-64940289D02*
X73105000Y-67050000D01*
X67829711Y-64940289D02*
X70995289Y-64940289D01*
X66760000Y-66010000D02*
X67829711Y-64940289D01*
%TO.N,unconnected-(U1-Pad1)*%
X65390289Y-64499711D02*
X71979711Y-64499711D01*
X71979711Y-64499711D02*
X73730000Y-66250000D01*
X64180000Y-65710000D02*
X65390289Y-64499711D01*
%TO.N,unconnected-(U1-Pad65)*%
X108910000Y-95030000D02*
X104930000Y-91050000D01*
X113500000Y-95030000D02*
X108910000Y-95030000D01*
X115110000Y-93420000D02*
X113500000Y-95030000D01*
%TO.N,unconnected-(U1-Pad66)*%
X106080000Y-90720000D02*
X105610000Y-90250000D01*
X105610000Y-90250000D02*
X104930000Y-90250000D01*
X106080000Y-90990000D02*
X106080000Y-90720000D01*
X109579711Y-94489711D02*
X106080000Y-90990000D01*
X112570000Y-93420000D02*
X111500289Y-94489711D01*
X111500289Y-94489711D02*
X109579711Y-94489711D01*
%TO.N,unconnected-(U1-Pad67)*%
X109525000Y-93420000D02*
X105555000Y-89450000D01*
X105555000Y-89450000D02*
X104930000Y-89450000D01*
X110050000Y-93420000D02*
X109525000Y-93420000D01*
%TO.N,unconnected-(U1-Pad68)*%
X105833525Y-88650000D02*
X104930000Y-88650000D01*
X115000000Y-90660000D02*
X113410000Y-92250000D01*
X113410000Y-92250000D02*
X109433525Y-92250000D01*
X109433525Y-92250000D02*
X105833525Y-88650000D01*
%TO.N,unconnected-(U1-Pad69)*%
X108870289Y-91103090D02*
X108870289Y-90763963D01*
X109496910Y-91729711D02*
X108870289Y-91103090D01*
X108870289Y-90763963D02*
X105956326Y-87850000D01*
X111390289Y-91729711D02*
X109496910Y-91729711D01*
X105956326Y-87850000D02*
X104930000Y-87850000D01*
X112460000Y-90660000D02*
X111390289Y-91729711D01*
%TO.N,unconnected-(U1-Pad70)*%
X109350000Y-90660000D02*
X105740000Y-87050000D01*
X109940000Y-90660000D02*
X109350000Y-90660000D01*
X105740000Y-87050000D02*
X104930000Y-87050000D01*
%TO.N,unconnected-(U1-Pad71)*%
X105760000Y-86250000D02*
X104930000Y-86250000D01*
X108620000Y-89110000D02*
X105760000Y-86250000D01*
X113500000Y-89110000D02*
X108620000Y-89110000D01*
X114990000Y-87620000D02*
X113500000Y-89110000D01*
%TO.N,unconnected-(U1-Pad72)*%
X106790000Y-85450000D02*
X104930000Y-85450000D01*
X108860289Y-88063090D02*
X108860289Y-87520289D01*
X108860289Y-87520289D02*
X106790000Y-85450000D01*
X111380289Y-88689711D02*
X109486910Y-88689711D01*
X109486910Y-88689711D02*
X108860289Y-88063090D01*
X112450000Y-87620000D02*
X111380289Y-88689711D01*
%TO.N,unconnected-(U1-Pad73)*%
X109660000Y-87620000D02*
X106690000Y-84650000D01*
X106690000Y-84650000D02*
X104930000Y-84650000D01*
X109930000Y-87620000D02*
X109660000Y-87620000D01*
%TO.N,unconnected-(U1-Pad75)*%
X106807199Y-83050000D02*
X104930000Y-83050000D01*
X109496910Y-85739711D02*
X106807199Y-83050000D01*
X111390289Y-85739711D02*
X109496910Y-85739711D01*
X112460000Y-84670000D02*
X111390289Y-85739711D01*
%TO.N,unconnected-(U1-Pad77)*%
X107176326Y-81450000D02*
X104930000Y-81450000D01*
X109326615Y-83600289D02*
X107176326Y-81450000D01*
X113399711Y-83600289D02*
X109326615Y-83600289D01*
X115000000Y-82000000D02*
X113399711Y-83600289D01*
%TO.N,unconnected-(U1-Pad74)*%
X106966326Y-83850000D02*
X104930000Y-83850000D01*
X109268757Y-86152431D02*
X106966326Y-83850000D01*
X113517569Y-86152431D02*
X109268757Y-86152431D01*
X115000000Y-84670000D02*
X113517569Y-86152431D01*
%TO.N,unconnected-(U1-Pad76)*%
X106750000Y-82250000D02*
X104930000Y-82250000D01*
X109170000Y-84670000D02*
X106750000Y-82250000D01*
X109940000Y-84670000D02*
X109170000Y-84670000D01*
%TO.N,unconnected-(U1-Pad78)*%
X106960000Y-80650000D02*
X104930000Y-80650000D01*
X109379711Y-83069711D02*
X106960000Y-80650000D01*
X111390289Y-83069711D02*
X109379711Y-83069711D01*
X112460000Y-82000000D02*
X111390289Y-83069711D01*
%TO.N,unconnected-(U1-Pad79)*%
X107226326Y-79850000D02*
X104930000Y-79850000D01*
X109450000Y-81510000D02*
X108886326Y-81510000D01*
X109940000Y-82000000D02*
X109450000Y-81510000D01*
X108886326Y-81510000D02*
X107226326Y-79850000D01*
%TO.N,unconnected-(U1-Pad80)*%
X113359711Y-80930289D02*
X108890289Y-80930289D01*
X107010000Y-79050000D02*
X104930000Y-79050000D01*
X114980000Y-79310000D02*
X113359711Y-80930289D01*
X108890289Y-80930289D02*
X107010000Y-79050000D01*
%TO.N,unconnected-(U1-Pad81)*%
X107050000Y-78250000D02*
X104930000Y-78250000D01*
X109179711Y-80379711D02*
X107050000Y-78250000D01*
X111370289Y-80379711D02*
X109179711Y-80379711D01*
X112440000Y-79310000D02*
X111370289Y-80379711D01*
%TO.N,unconnected-(U1-Pad82)*%
X107010000Y-77450000D02*
X104930000Y-77450000D01*
X108870000Y-79310000D02*
X107010000Y-77450000D01*
X109920000Y-79310000D02*
X108870000Y-79310000D01*
%TO.N,unconnected-(U1-Pad83)*%
X105180000Y-76400000D02*
X104930000Y-76650000D01*
X113437569Y-77992431D02*
X108412431Y-77992431D01*
X114920000Y-76510000D02*
X113437569Y-77992431D01*
X108412431Y-77992431D02*
X106820000Y-76400000D01*
X106820000Y-76400000D02*
X105180000Y-76400000D01*
%TO.N,unconnected-(U1-Pad84)*%
X107267199Y-75430000D02*
X105975000Y-75430000D01*
X105555000Y-75850000D02*
X104930000Y-75850000D01*
X109416910Y-77579711D02*
X107267199Y-75430000D01*
X111310289Y-77579711D02*
X109416910Y-77579711D01*
X105975000Y-75430000D02*
X105555000Y-75850000D01*
X112380000Y-76510000D02*
X111310289Y-77579711D01*
%TO.N,unconnected-(U1-Pad85)*%
X105875000Y-74730000D02*
X105555000Y-75050000D01*
X108069851Y-74730000D02*
X105875000Y-74730000D01*
X109135151Y-75785151D02*
X109125002Y-75785151D01*
X109125002Y-75785151D02*
X108069851Y-74730000D01*
X105555000Y-75050000D02*
X104930000Y-75050000D01*
X109860000Y-76510000D02*
X109135151Y-75785151D01*
%TO.N,unconnected-(U1-Pad86)*%
X107933525Y-74010000D02*
X105170000Y-74010000D01*
X109295956Y-75372431D02*
X107933525Y-74010000D01*
X113487569Y-75372431D02*
X109295956Y-75372431D01*
X114970000Y-73890000D02*
X113487569Y-75372431D01*
X105170000Y-74010000D02*
X104930000Y-74250000D01*
%TO.N,unconnected-(U1-Pad87)*%
X105070000Y-73310000D02*
X104930000Y-73450000D01*
X110353090Y-74959711D02*
X109466910Y-74959711D01*
X110979711Y-74333090D02*
X110353090Y-74959711D01*
X109466910Y-74959711D02*
X107817199Y-73310000D01*
X107817199Y-73310000D02*
X105070000Y-73310000D01*
X111986910Y-74333090D02*
X110979711Y-74333090D01*
X112430000Y-73890000D02*
X111986910Y-74333090D01*
%TO.N,unconnected-(U1-Pad88)*%
X105555000Y-72650000D02*
X104930000Y-72650000D01*
X106015000Y-72190000D02*
X105555000Y-72650000D01*
X108210000Y-72190000D02*
X106015000Y-72190000D01*
X109910000Y-73890000D02*
X108210000Y-72190000D01*
%TO.N,unconnected-(U1-Pad89)*%
X105437669Y-71850000D02*
X104930000Y-71850000D01*
X105897669Y-71390000D02*
X105437669Y-71850000D01*
X108213525Y-71390000D02*
X105897669Y-71390000D01*
X109275956Y-72452431D02*
X108213525Y-71390000D01*
X113467569Y-72452431D02*
X109275956Y-72452431D01*
X114950000Y-70970000D02*
X113467569Y-72452431D01*
%TO.N,unconnected-(U1-Pad90)*%
X107937199Y-70530000D02*
X106110000Y-70530000D01*
X109446910Y-72039711D02*
X107937199Y-70530000D01*
X105590000Y-71050000D02*
X104930000Y-71050000D01*
X111340289Y-72039711D02*
X109446910Y-72039711D01*
X112410000Y-70970000D02*
X111340289Y-72039711D01*
X106110000Y-70530000D02*
X105590000Y-71050000D01*
%TO.N,unconnected-(U1-Pad91)*%
X108370000Y-69450000D02*
X106237669Y-69450000D01*
X106237669Y-69450000D02*
X105437669Y-70250000D01*
X105437669Y-70250000D02*
X104930000Y-70250000D01*
X109890000Y-70970000D02*
X108370000Y-69450000D01*
%TO.N,unconnected-(U1-Pad92)*%
X105555000Y-69450000D02*
X104930000Y-69450000D01*
X113487569Y-69532431D02*
X109295956Y-69532431D01*
X108743525Y-68980000D02*
X106025000Y-68980000D01*
X106025000Y-68980000D02*
X105555000Y-69450000D01*
X114970000Y-68050000D02*
X113487569Y-69532431D01*
X109295956Y-69532431D02*
X108743525Y-68980000D01*
%TO.N,unconnected-(U1-Pad93)*%
X105890000Y-68230000D02*
X105470000Y-68650000D01*
X108577199Y-68230000D02*
X105890000Y-68230000D01*
X105470000Y-68650000D02*
X104930000Y-68650000D01*
X111360289Y-69119711D02*
X109466910Y-69119711D01*
X112430000Y-68050000D02*
X111360289Y-69119711D01*
X109466910Y-69119711D02*
X108577199Y-68230000D01*
%TO.N,unconnected-(U1-Pad94)*%
X108610000Y-66750000D02*
X106537669Y-66750000D01*
X106537669Y-66750000D02*
X105437669Y-67850000D01*
X105437669Y-67850000D02*
X104930000Y-67850000D01*
X109910000Y-68050000D02*
X108610000Y-66750000D01*
%TO.N,unconnected-(U1-Pad95)*%
X105437669Y-67050000D02*
X104930000Y-67050000D01*
X108267199Y-65580000D02*
X106907669Y-65580000D01*
X106907669Y-65580000D02*
X105437669Y-67050000D01*
X109466910Y-66779711D02*
X108267199Y-65580000D01*
X113900289Y-66779711D02*
X109466910Y-66779711D01*
X114970000Y-65710000D02*
X113900289Y-66779711D01*
%TO.N,unconnected-(U1-Pad96)*%
X106539711Y-64640289D02*
X104930000Y-66250000D01*
X111360289Y-64640289D02*
X106539711Y-64640289D01*
X112430000Y-65710000D02*
X111360289Y-64640289D01*
%TO.N,unconnected-(U1-Pad97)*%
X105710000Y-59070000D02*
X101730000Y-63050000D01*
X105710000Y-55510000D02*
X105710000Y-59070000D01*
X103780000Y-53580000D02*
X105710000Y-55510000D01*
%TO.N,unconnected-(U1-Pad98)*%
X100930000Y-62030000D02*
X100930000Y-63050000D01*
X102802801Y-60800000D02*
X102160000Y-60800000D01*
X105190289Y-58412512D02*
X102802801Y-60800000D01*
X105190289Y-57260289D02*
X105190289Y-58412512D01*
X103750000Y-55820000D02*
X105190289Y-57260289D01*
X102160000Y-60800000D02*
X100930000Y-62030000D01*
%TO.N,unconnected-(U1-Pad99)*%
X100130000Y-61960000D02*
X100130000Y-63050000D01*
X103770000Y-58320000D02*
X100130000Y-61960000D01*
%TO.N,unconnected-(U1-Pad100)*%
X101401243Y-59802431D02*
X99330000Y-61873674D01*
X99330000Y-61873674D02*
X99330000Y-63050000D01*
X102532431Y-58934044D02*
X101664044Y-59802431D01*
X101664044Y-59802431D02*
X101401243Y-59802431D01*
X102532431Y-56738757D02*
X102532431Y-58934044D01*
X102430000Y-56636326D02*
X102532431Y-56738757D01*
X102430000Y-54950000D02*
X102430000Y-56636326D01*
X101060000Y-53580000D02*
X102430000Y-54950000D01*
%TO.N,unconnected-(U1-Pad101)*%
X98530000Y-62090000D02*
X98530000Y-63050000D01*
X101230289Y-59389711D02*
X98530000Y-62090000D01*
X102119711Y-58763090D02*
X101493090Y-59389711D01*
X102119711Y-56909711D02*
X102119711Y-58763090D01*
X101493090Y-59389711D02*
X101230289Y-59389711D01*
X101030000Y-55820000D02*
X102119711Y-56909711D01*
%TO.N,unconnected-(U1-Pad102)*%
X101050000Y-58760000D02*
X97730000Y-62080000D01*
X97730000Y-62080000D02*
X97730000Y-63050000D01*
X101050000Y-58320000D02*
X101050000Y-58760000D01*
%TO.N,unconnected-(U1-Pad103)*%
X99812431Y-59007569D02*
X96930000Y-61890000D01*
X96930000Y-61890000D02*
X96930000Y-63050000D01*
X98340000Y-53590000D02*
X99812431Y-55062431D01*
X99812431Y-55062431D02*
X99812431Y-59007569D01*
%TO.N,unconnected-(U1-Pad104)*%
X98310000Y-59560000D02*
X96130000Y-61740000D01*
X96130000Y-61740000D02*
X96130000Y-63050000D01*
X98612801Y-59560000D02*
X98310000Y-59560000D01*
X99399711Y-56459711D02*
X99399711Y-58773090D01*
X98770000Y-55830000D02*
X99399711Y-56459711D01*
X99399711Y-58773090D02*
X98612801Y-59560000D01*
X98310000Y-55830000D02*
X98770000Y-55830000D01*
%TO.N,unconnected-(U1-Pad105)*%
X95330000Y-61330000D02*
X95330000Y-63050000D01*
X98330000Y-58330000D02*
X95330000Y-61330000D01*
%TO.N,unconnected-(U1-Pad106)*%
X94530000Y-61360000D02*
X94530000Y-63050000D01*
X96077569Y-59812431D02*
X94530000Y-61360000D01*
X97092431Y-56748757D02*
X97092431Y-58944044D01*
X96970000Y-56626326D02*
X97092431Y-56748757D01*
X97092431Y-58944044D02*
X96224044Y-59812431D01*
X96224044Y-59812431D02*
X96077569Y-59812431D01*
X95620000Y-53590000D02*
X96970000Y-54940000D01*
X96970000Y-54940000D02*
X96970000Y-56626326D01*
%TO.N,unconnected-(U1-Pad107)*%
X96679711Y-56919711D02*
X95590000Y-55830000D01*
X96053090Y-59399711D02*
X96679711Y-58773090D01*
X94530000Y-60480000D02*
X95610289Y-59399711D01*
X93730000Y-61290000D02*
X94530000Y-60490000D01*
X94530000Y-60490000D02*
X94530000Y-60480000D01*
X95610289Y-59399711D02*
X96053090Y-59399711D01*
X93730000Y-63050000D02*
X93730000Y-61290000D01*
X96679711Y-58773090D02*
X96679711Y-56919711D01*
%TO.N,unconnected-(U1-Pad108)*%
X92930000Y-61410000D02*
X92930000Y-63050000D01*
X95610000Y-58730000D02*
X92930000Y-61410000D01*
X95610000Y-58330000D02*
X95610000Y-58730000D01*
%TO.N,unconnected-(U1-Pad109)*%
X92130000Y-61370000D02*
X92130000Y-63050000D01*
X94422720Y-59077280D02*
X92130000Y-61370000D01*
X92930000Y-53640000D02*
X94422720Y-55132720D01*
X94422720Y-55132720D02*
X94422720Y-59077280D01*
%TO.N,unconnected-(U1-Pad110)*%
X91330000Y-61180000D02*
X91330000Y-63050000D01*
X93060289Y-59449711D02*
X91330000Y-61180000D01*
X94010000Y-58802801D02*
X93363090Y-59449711D01*
X94010000Y-56990000D02*
X94010000Y-58802801D01*
X93363090Y-59449711D02*
X93060289Y-59449711D01*
X92900000Y-55880000D02*
X94010000Y-56990000D01*
%TO.N,unconnected-(U1-Pad111)*%
X92920000Y-58990000D02*
X90530000Y-61380000D01*
X90530000Y-61380000D02*
X90530000Y-63050000D01*
X92920000Y-58380000D02*
X92920000Y-58990000D01*
%TO.N,unconnected-(U1-Pad112)*%
X91550000Y-56606326D02*
X91712431Y-56768757D01*
X91712431Y-59547569D02*
X89730000Y-61530000D01*
X91550000Y-54920000D02*
X91550000Y-56606326D01*
X91712431Y-56768757D02*
X91712431Y-59547569D01*
X89730000Y-61530000D02*
X89730000Y-63050000D01*
X90240000Y-53610000D02*
X91550000Y-54920000D01*
%TO.N,unconnected-(U1-Pad114)*%
X90230000Y-58590000D02*
X88130000Y-60690000D01*
X88130000Y-60690000D02*
X88130000Y-63050000D01*
X90230000Y-58350000D02*
X90230000Y-58590000D01*
%TO.N,unconnected-(U1-Pad113)*%
X88930000Y-61590000D02*
X88930000Y-63050000D01*
X91299711Y-56939711D02*
X91299711Y-59220289D01*
X91299711Y-59220289D02*
X88930000Y-61590000D01*
X90210000Y-55850000D02*
X91299711Y-56939711D01*
%TO.N,unconnected-(U1-Pad115)*%
X87851243Y-59852431D02*
X87330000Y-60373674D01*
X88154044Y-59852431D02*
X87851243Y-59852431D01*
X89080000Y-58926475D02*
X88154044Y-59852431D01*
X89080000Y-55160000D02*
X89080000Y-58926475D01*
X87550000Y-53630000D02*
X89080000Y-55160000D01*
X87330000Y-60373674D02*
X87330000Y-63050000D01*
%TO.N,unconnected-(U1-Pad116)*%
X86530000Y-60590000D02*
X86530000Y-63050000D01*
X88609711Y-58813090D02*
X87983090Y-59439711D01*
X87983090Y-59439711D02*
X87680289Y-59439711D01*
X88609711Y-56959711D02*
X88609711Y-58813090D01*
X87680289Y-59439711D02*
X86530000Y-60590000D01*
X87520000Y-55870000D02*
X88609711Y-56959711D01*
%TO.N,unconnected-(U1-Pad117)*%
X85730000Y-60477348D02*
X85730000Y-63050000D01*
X87540000Y-58370000D02*
X87540000Y-58667348D01*
X87540000Y-58667348D02*
X85730000Y-60477348D01*
%TO.N,unconnected-(U1-Pad118)*%
X84930000Y-60693674D02*
X84930000Y-63050000D01*
X86440000Y-59183674D02*
X84930000Y-60693674D01*
X86440000Y-55180000D02*
X86440000Y-59183674D01*
X84900000Y-53640000D02*
X86440000Y-55180000D01*
%TO.N,unconnected-(U1-Pad120)*%
X83330000Y-60850000D02*
X84890000Y-59290000D01*
X83330000Y-63050000D02*
X83330000Y-60850000D01*
X84890000Y-59290000D02*
X84890000Y-58380000D01*
%TO.N,unconnected-(U1-Pad119)*%
X84130000Y-60910000D02*
X84130000Y-63050000D01*
X85959711Y-59080289D02*
X84130000Y-60910000D01*
X85959711Y-56969711D02*
X85959711Y-59080289D01*
X84870000Y-55880000D02*
X85959711Y-56969711D01*
%TO.N,unconnected-(U1-Pad121)*%
X82530000Y-60700000D02*
X82530000Y-63050000D01*
X83800000Y-59430000D02*
X82530000Y-60700000D01*
X83800000Y-55270000D02*
X83800000Y-59430000D01*
X82170000Y-53640000D02*
X83800000Y-55270000D01*
%TO.N,unconnected-(U1-Pad122)*%
X81730000Y-60750000D02*
X81730000Y-63050000D01*
X83359711Y-59120289D02*
X81730000Y-60750000D01*
X83359711Y-56959711D02*
X83359711Y-59120289D01*
X82280000Y-55880000D02*
X83359711Y-56959711D01*
%TO.N,unconnected-(U1-Pad123)*%
X80930000Y-59750149D02*
X80930000Y-63050000D01*
X81515151Y-59164998D02*
X80930000Y-59750149D01*
X82290000Y-58380000D02*
X81515151Y-59154849D01*
X81515151Y-59154849D02*
X81515151Y-59164998D01*
%TO.N,unconnected-(U1-Pad124)*%
X81102431Y-58994044D02*
X80130000Y-59966475D01*
X80130000Y-59966475D02*
X80130000Y-62425000D01*
X81102431Y-55112431D02*
X81102431Y-58994044D01*
X79630000Y-53640000D02*
X81102431Y-55112431D01*
%TO.N,unconnected-(U1-Pad125)*%
X79500000Y-62880000D02*
X79330000Y-63050000D01*
X80689711Y-56969711D02*
X80689711Y-58823090D01*
X79600000Y-55880000D02*
X80689711Y-56969711D01*
X80689711Y-58823090D02*
X79500000Y-60012801D01*
X79500000Y-60012801D02*
X79500000Y-62880000D01*
%TO.N,unconnected-(U1-Pad126)*%
X78250000Y-61880000D02*
X78580000Y-62210000D01*
X78250000Y-59750000D02*
X78250000Y-61880000D01*
X79620000Y-58380000D02*
X78250000Y-59750000D01*
%TO.N,unconnected-(U1-Pad127)*%
X77730000Y-62542331D02*
X77730000Y-63050000D01*
X76930000Y-60042801D02*
X76930000Y-61742331D01*
X78149711Y-58823090D02*
X76930000Y-60042801D01*
X76930000Y-61742331D02*
X77730000Y-62542331D01*
X78149711Y-54699711D02*
X78149711Y-58823090D01*
X77090000Y-53640000D02*
X78149711Y-54699711D01*
%TO.N,unconnected-(U1-Pad128)*%
X75609711Y-61729711D02*
X76930000Y-63050000D01*
X77060000Y-55880000D02*
X75609711Y-57330289D01*
X75609711Y-57330289D02*
X75609711Y-61729711D01*
D21*
%TO.N,unconnected-(U1-Pad124)*%
X80130000Y-62425000D02*
X80130000Y-63050000D01*
%TO.N,unconnected-(U1-Pad127)*%
X77730000Y-62535260D02*
X77730000Y-63050000D01*
D22*
%TO.N,N$27*%
X79230000Y-167230000D02*
X79230000Y-178533000D01*
%TO.N,N$26*%
X81770000Y-167230000D02*
X81770000Y-178533000D01*
D23*
%TO.N,N$25*%
X84310000Y-167230000D02*
X84310000Y-178533000D01*
%TO.N,N$24*%
X86850000Y-167230000D02*
X86850000Y-178025000D01*
%TO.N,N$23*%
X89390000Y-167230000D02*
X89390000Y-178533000D01*
%TO.N,N$22*%
X91930000Y-167230000D02*
X91930000Y-178533000D01*
%TO.N,N$21*%
X94470000Y-167230000D02*
X94470000Y-178533000D01*
%TO.N,N$20*%
X97010000Y-167230000D02*
X97010000Y-178533000D01*
%TO.N,N$19*%
X99550000Y-167230000D02*
X99550000Y-178533000D01*
%TO.N,N$18*%
X102090000Y-167230000D02*
X102090000Y-178533000D01*
%TO.N,N$17*%
X104630000Y-177250000D02*
X104770000Y-177390000D01*
X104630000Y-167230000D02*
X104630000Y-177250000D01*
%TO.N,N$16*%
X107170000Y-167230000D02*
X107170000Y-178533000D01*
%TO.N,N$15*%
X109710000Y-167230000D02*
X109710000Y-178533000D01*
%TO.N,N$14*%
X112250000Y-167230000D02*
X112250000Y-178533000D01*
%TO.N,N$13*%
X114790000Y-167230000D02*
X114790000Y-178533000D01*
%TO.N,N$12*%
X117330000Y-167230000D02*
X117330000Y-178533000D01*
%TO.N,N$11*%
X119870000Y-167230000D02*
X119870000Y-178533000D01*
%TO.N,N$10*%
X122410000Y-167230000D02*
X122410000Y-178533000D01*
%TO.N,N$9*%
X124950000Y-167230000D02*
X124950000Y-178533000D01*
%TO.N,N$8*%
X127490000Y-167230000D02*
X127490000Y-178533000D01*
%TO.N,N$7*%
X130030000Y-167230000D02*
X130030000Y-178533000D01*
%TO.N,N$6*%
X132570000Y-167230000D02*
X132570000Y-178533000D01*
%TO.N,N$4*%
X135110000Y-167230000D02*
X135110000Y-178533000D01*
%TO.N,N$2*%
X137650000Y-167230000D02*
X137650000Y-178533000D01*
%TO.N,N$1*%
X140190000Y-167230000D02*
X140190000Y-178533000D01*
%TD*%
M02*
