%TF.GenerationSoftware,KiCad,Pcbnew,(6.0.0)*%
%TF.CreationDate,2022-08-25T16:51:24-03:00*%
%TF.ProjectId,BlankMSXCartHSH,426c616e-6b4d-4535-9843-617274485348,rev?*%
%TF.SameCoordinates,Original*%
%TF.FileFunction,Legend,Top*%
%TF.FilePolarity,Positive*%
%FSLAX46Y46*%
G04 Gerber Fmt 4.6, Leading zero omitted, Abs format (unit mm)*
G04 Created by KiCad (PCBNEW (6.0.0)) date 2022-08-25 16:51:24*
%MOMM*%
%LPD*%
G01*
G04 APERTURE LIST*
%ADD10C,0.150000*%
%ADD11C,0.300000*%
%ADD12C,0.203200*%
%ADD13C,0.120000*%
%ADD14C,0.200000*%
G04 APERTURE END LIST*
D10*
X56312380Y-153030476D02*
X56312380Y-153506666D01*
X56788571Y-153554285D01*
X56740952Y-153506666D01*
X56693333Y-153411428D01*
X56693333Y-153173333D01*
X56740952Y-153078095D01*
X56788571Y-153030476D01*
X56883809Y-152982857D01*
X57121904Y-152982857D01*
X57217142Y-153030476D01*
X57264761Y-153078095D01*
X57312380Y-153173333D01*
X57312380Y-153411428D01*
X57264761Y-153506666D01*
X57217142Y-153554285D01*
X56312380Y-152697142D02*
X57312380Y-152363809D01*
X56312380Y-152030476D01*
X152320000Y-153601904D02*
X152272380Y-153697142D01*
X152272380Y-153840000D01*
X152320000Y-153982857D01*
X152415238Y-154078095D01*
X152510476Y-154125714D01*
X152700952Y-154173333D01*
X152843809Y-154173333D01*
X153034285Y-154125714D01*
X153129523Y-154078095D01*
X153224761Y-153982857D01*
X153272380Y-153840000D01*
X153272380Y-153744761D01*
X153224761Y-153601904D01*
X153177142Y-153554285D01*
X152843809Y-153554285D01*
X152843809Y-153744761D01*
X153272380Y-153125714D02*
X152272380Y-153125714D01*
X153272380Y-152554285D01*
X152272380Y-152554285D01*
X153272380Y-152078095D02*
X152272380Y-152078095D01*
X152272380Y-151840000D01*
X152320000Y-151697142D01*
X152415238Y-151601904D01*
X152510476Y-151554285D01*
X152700952Y-151506666D01*
X152843809Y-151506666D01*
X153034285Y-151554285D01*
X153129523Y-151601904D01*
X153224761Y-151697142D01*
X153272380Y-151840000D01*
X153272380Y-152078095D01*
D11*
X93918571Y-157648571D02*
X94418571Y-159148571D01*
X94918571Y-157648571D01*
X95490000Y-159148571D02*
X95775714Y-159148571D01*
X95918571Y-159077142D01*
X95990000Y-159005714D01*
X96132857Y-158791428D01*
X96204285Y-158505714D01*
X96204285Y-157934285D01*
X96132857Y-157791428D01*
X96061428Y-157720000D01*
X95918571Y-157648571D01*
X95632857Y-157648571D01*
X95490000Y-157720000D01*
X95418571Y-157791428D01*
X95347142Y-157934285D01*
X95347142Y-158291428D01*
X95418571Y-158434285D01*
X95490000Y-158505714D01*
X95632857Y-158577142D01*
X95918571Y-158577142D01*
X96061428Y-158505714D01*
X96132857Y-158434285D01*
X96204285Y-158291428D01*
X96918571Y-159148571D02*
X97204285Y-159148571D01*
X97347142Y-159077142D01*
X97418571Y-159005714D01*
X97561428Y-158791428D01*
X97632857Y-158505714D01*
X97632857Y-157934285D01*
X97561428Y-157791428D01*
X97490000Y-157720000D01*
X97347142Y-157648571D01*
X97061428Y-157648571D01*
X96918571Y-157720000D01*
X96847142Y-157791428D01*
X96775714Y-157934285D01*
X96775714Y-158291428D01*
X96847142Y-158434285D01*
X96918571Y-158505714D01*
X97061428Y-158577142D01*
X97347142Y-158577142D01*
X97490000Y-158505714D01*
X97561428Y-158434285D01*
X97632857Y-158291428D01*
X98347142Y-159148571D02*
X98632857Y-159148571D01*
X98775714Y-159077142D01*
X98847142Y-159005714D01*
X98990000Y-158791428D01*
X99061428Y-158505714D01*
X99061428Y-157934285D01*
X98990000Y-157791428D01*
X98918571Y-157720000D01*
X98775714Y-157648571D01*
X98490000Y-157648571D01*
X98347142Y-157720000D01*
X98275714Y-157791428D01*
X98204285Y-157934285D01*
X98204285Y-158291428D01*
X98275714Y-158434285D01*
X98347142Y-158505714D01*
X98490000Y-158577142D01*
X98775714Y-158577142D01*
X98918571Y-158505714D01*
X98990000Y-158434285D01*
X99061428Y-158291428D01*
X99990000Y-157648571D02*
X100132857Y-157648571D01*
X100275714Y-157720000D01*
X100347142Y-157791428D01*
X100418571Y-157934285D01*
X100490000Y-158220000D01*
X100490000Y-158577142D01*
X100418571Y-158862857D01*
X100347142Y-159005714D01*
X100275714Y-159077142D01*
X100132857Y-159148571D01*
X99990000Y-159148571D01*
X99847142Y-159077142D01*
X99775714Y-159005714D01*
X99704285Y-158862857D01*
X99632857Y-158577142D01*
X99632857Y-158220000D01*
X99704285Y-157934285D01*
X99775714Y-157791428D01*
X99847142Y-157720000D01*
X99990000Y-157648571D01*
X102275714Y-159148571D02*
X102275714Y-157648571D01*
X102847142Y-157648571D01*
X102990000Y-157720000D01*
X103061428Y-157791428D01*
X103132857Y-157934285D01*
X103132857Y-158148571D01*
X103061428Y-158291428D01*
X102990000Y-158362857D01*
X102847142Y-158434285D01*
X102275714Y-158434285D01*
X103775714Y-159148571D02*
X103775714Y-158148571D01*
X103775714Y-158434285D02*
X103847142Y-158291428D01*
X103918571Y-158220000D01*
X104061428Y-158148571D01*
X104204285Y-158148571D01*
X104918571Y-159148571D02*
X104775714Y-159077142D01*
X104704285Y-159005714D01*
X104632857Y-158862857D01*
X104632857Y-158434285D01*
X104704285Y-158291428D01*
X104775714Y-158220000D01*
X104918571Y-158148571D01*
X105132857Y-158148571D01*
X105275714Y-158220000D01*
X105347142Y-158291428D01*
X105418571Y-158434285D01*
X105418571Y-158862857D01*
X105347142Y-159005714D01*
X105275714Y-159077142D01*
X105132857Y-159148571D01*
X104918571Y-159148571D01*
X105847142Y-158148571D02*
X106418571Y-158148571D01*
X106061428Y-157648571D02*
X106061428Y-158934285D01*
X106132857Y-159077142D01*
X106275714Y-159148571D01*
X106418571Y-159148571D01*
X107132857Y-159148571D02*
X106990000Y-159077142D01*
X106918571Y-159005714D01*
X106847142Y-158862857D01*
X106847142Y-158434285D01*
X106918571Y-158291428D01*
X106990000Y-158220000D01*
X107132857Y-158148571D01*
X107347142Y-158148571D01*
X107490000Y-158220000D01*
X107561428Y-158291428D01*
X107632857Y-158434285D01*
X107632857Y-158862857D01*
X107561428Y-159005714D01*
X107490000Y-159077142D01*
X107347142Y-159148571D01*
X107132857Y-159148571D01*
X108061428Y-158148571D02*
X108632857Y-158148571D01*
X108275714Y-157648571D02*
X108275714Y-158934285D01*
X108347142Y-159077142D01*
X108490000Y-159148571D01*
X108632857Y-159148571D01*
X108990000Y-158148571D02*
X109347142Y-159148571D01*
X109704285Y-158148571D02*
X109347142Y-159148571D01*
X109204285Y-159505714D01*
X109132857Y-159577142D01*
X108990000Y-159648571D01*
X110275714Y-158148571D02*
X110275714Y-159648571D01*
X110275714Y-158220000D02*
X110418571Y-158148571D01*
X110704285Y-158148571D01*
X110847142Y-158220000D01*
X110918571Y-158291428D01*
X110990000Y-158434285D01*
X110990000Y-158862857D01*
X110918571Y-159005714D01*
X110847142Y-159077142D01*
X110704285Y-159148571D01*
X110418571Y-159148571D01*
X110275714Y-159077142D01*
X112204285Y-159077142D02*
X112061428Y-159148571D01*
X111775714Y-159148571D01*
X111632857Y-159077142D01*
X111561428Y-158934285D01*
X111561428Y-158362857D01*
X111632857Y-158220000D01*
X111775714Y-158148571D01*
X112061428Y-158148571D01*
X112204285Y-158220000D01*
X112275714Y-158362857D01*
X112275714Y-158505714D01*
X111561428Y-158648571D01*
X114561428Y-158362857D02*
X114775714Y-158434285D01*
X114847142Y-158505714D01*
X114918571Y-158648571D01*
X114918571Y-158862857D01*
X114847142Y-159005714D01*
X114775714Y-159077142D01*
X114632857Y-159148571D01*
X114061428Y-159148571D01*
X114061428Y-157648571D01*
X114561428Y-157648571D01*
X114704285Y-157720000D01*
X114775714Y-157791428D01*
X114847142Y-157934285D01*
X114847142Y-158077142D01*
X114775714Y-158220000D01*
X114704285Y-158291428D01*
X114561428Y-158362857D01*
X114061428Y-158362857D01*
X115775714Y-159148571D02*
X115632857Y-159077142D01*
X115561428Y-159005714D01*
X115490000Y-158862857D01*
X115490000Y-158434285D01*
X115561428Y-158291428D01*
X115632857Y-158220000D01*
X115775714Y-158148571D01*
X115990000Y-158148571D01*
X116132857Y-158220000D01*
X116204285Y-158291428D01*
X116275714Y-158434285D01*
X116275714Y-158862857D01*
X116204285Y-159005714D01*
X116132857Y-159077142D01*
X115990000Y-159148571D01*
X115775714Y-159148571D01*
X117561428Y-159148571D02*
X117561428Y-158362857D01*
X117490000Y-158220000D01*
X117347142Y-158148571D01*
X117061428Y-158148571D01*
X116918571Y-158220000D01*
X117561428Y-159077142D02*
X117418571Y-159148571D01*
X117061428Y-159148571D01*
X116918571Y-159077142D01*
X116847142Y-158934285D01*
X116847142Y-158791428D01*
X116918571Y-158648571D01*
X117061428Y-158577142D01*
X117418571Y-158577142D01*
X117561428Y-158505714D01*
X118275714Y-159148571D02*
X118275714Y-158148571D01*
X118275714Y-158434285D02*
X118347142Y-158291428D01*
X118418571Y-158220000D01*
X118561428Y-158148571D01*
X118704285Y-158148571D01*
X119847142Y-159148571D02*
X119847142Y-157648571D01*
X119847142Y-159077142D02*
X119704285Y-159148571D01*
X119418571Y-159148571D01*
X119275714Y-159077142D01*
X119204285Y-159005714D01*
X119132857Y-158862857D01*
X119132857Y-158434285D01*
X119204285Y-158291428D01*
X119275714Y-158220000D01*
X119418571Y-158148571D01*
X119704285Y-158148571D01*
X119847142Y-158220000D01*
D10*
%TO.C,U5*%
X99062380Y-121301904D02*
X99871904Y-121301904D01*
X99967142Y-121254285D01*
X100014761Y-121206666D01*
X100062380Y-121111428D01*
X100062380Y-120920952D01*
X100014761Y-120825714D01*
X99967142Y-120778095D01*
X99871904Y-120730476D01*
X99062380Y-120730476D01*
X99062380Y-119778095D02*
X99062380Y-120254285D01*
X99538571Y-120301904D01*
X99490952Y-120254285D01*
X99443333Y-120159047D01*
X99443333Y-119920952D01*
X99490952Y-119825714D01*
X99538571Y-119778095D01*
X99633809Y-119730476D01*
X99871904Y-119730476D01*
X99967142Y-119778095D01*
X100014761Y-119825714D01*
X100062380Y-119920952D01*
X100062380Y-120159047D01*
X100014761Y-120254285D01*
X99967142Y-120301904D01*
%TO.C,U4*%
X84748095Y-118792380D02*
X84748095Y-119601904D01*
X84795714Y-119697142D01*
X84843333Y-119744761D01*
X84938571Y-119792380D01*
X85129047Y-119792380D01*
X85224285Y-119744761D01*
X85271904Y-119697142D01*
X85319523Y-119601904D01*
X85319523Y-118792380D01*
X86224285Y-119125714D02*
X86224285Y-119792380D01*
X85986190Y-118744761D02*
X85748095Y-119459047D01*
X86367142Y-119459047D01*
D12*
%TO.C,U3*%
X128880723Y-100664895D02*
X128880723Y-101322876D01*
X128919428Y-101400285D01*
X128958133Y-101438990D01*
X129035542Y-101477695D01*
X129190361Y-101477695D01*
X129267771Y-101438990D01*
X129306476Y-101400285D01*
X129345180Y-101322876D01*
X129345180Y-100664895D01*
X129654819Y-100664895D02*
X130157980Y-100664895D01*
X129887047Y-100974533D01*
X130003161Y-100974533D01*
X130080571Y-101013238D01*
X130119276Y-101051942D01*
X130157980Y-101129352D01*
X130157980Y-101322876D01*
X130119276Y-101400285D01*
X130080571Y-101438990D01*
X130003161Y-101477695D01*
X129770933Y-101477695D01*
X129693523Y-101438990D01*
X129654819Y-101400285D01*
%TO.C,U2*%
X128700723Y-60094895D02*
X128700723Y-60752876D01*
X128739428Y-60830285D01*
X128778133Y-60868990D01*
X128855542Y-60907695D01*
X129010361Y-60907695D01*
X129087771Y-60868990D01*
X129126476Y-60830285D01*
X129165180Y-60752876D01*
X129165180Y-60094895D01*
X129513523Y-60172304D02*
X129552228Y-60133600D01*
X129629638Y-60094895D01*
X129823161Y-60094895D01*
X129900571Y-60133600D01*
X129939276Y-60172304D01*
X129977980Y-60249714D01*
X129977980Y-60327123D01*
X129939276Y-60443238D01*
X129474819Y-60907695D01*
X129977980Y-60907695D01*
D10*
%TO.C,U1*%
X72658095Y-60492380D02*
X72658095Y-61301904D01*
X72705714Y-61397142D01*
X72753333Y-61444761D01*
X72848571Y-61492380D01*
X73039047Y-61492380D01*
X73134285Y-61444761D01*
X73181904Y-61397142D01*
X73229523Y-61301904D01*
X73229523Y-60492380D01*
X74229523Y-61492380D02*
X73658095Y-61492380D01*
X73943809Y-61492380D02*
X73943809Y-60492380D01*
X73848571Y-60635238D01*
X73753333Y-60730476D01*
X73658095Y-60778095D01*
%TO.C,@HOLE0*%
%TO.C,@HOLE1*%
D13*
%TO.C,U5*%
X116090000Y-117520000D02*
X116090000Y-113660000D01*
X116090000Y-113660000D02*
X115800000Y-113660000D01*
X116090000Y-117520000D02*
X116090000Y-121380000D01*
X116090000Y-121380000D02*
X115800000Y-121380000D01*
X100470000Y-117520000D02*
X100470000Y-113660000D01*
X100470000Y-113660000D02*
X100760000Y-113660000D01*
X100470000Y-117520000D02*
X100470000Y-121380000D01*
X100470000Y-121380000D02*
X100760000Y-121380000D01*
X100760000Y-121380000D02*
X100760000Y-123170000D01*
%TO.C,U4*%
X83080000Y-115090000D02*
X81580000Y-115090000D01*
X83080000Y-115090000D02*
X84580000Y-115090000D01*
X83080000Y-118310000D02*
X81580000Y-118310000D01*
X83080000Y-118310000D02*
X86005000Y-118310000D01*
D14*
%TO.C,U3*%
X128725000Y-102555000D02*
X127901000Y-102555000D01*
X128790000Y-128575000D02*
X139015000Y-128575000D01*
X128725000Y-101905000D02*
X139015000Y-101905000D01*
X128725000Y-128575000D02*
X128725000Y-127830000D01*
X139015000Y-128575000D02*
X139015000Y-127830000D01*
X139015000Y-101905000D02*
X139015000Y-102650000D01*
X128725000Y-101905000D02*
X128725000Y-102555000D01*
%TO.C,U2*%
X128795000Y-61505000D02*
X128795000Y-62155000D01*
X139085000Y-61505000D02*
X139085000Y-62250000D01*
X139085000Y-88175000D02*
X139085000Y-87430000D01*
X128795000Y-88175000D02*
X128795000Y-87430000D01*
X128795000Y-61505000D02*
X139085000Y-61505000D01*
X128860000Y-88175000D02*
X139085000Y-88175000D01*
X128795000Y-62155000D02*
X127971000Y-62155000D01*
D13*
%TO.C,U1*%
X103480000Y-92800000D02*
X103480000Y-91850000D01*
X102530000Y-92800000D02*
X103480000Y-92800000D01*
X75180000Y-92800000D02*
X75180000Y-91850000D01*
X76130000Y-92800000D02*
X75180000Y-92800000D01*
X103480000Y-64500000D02*
X103480000Y-65450000D01*
X102530000Y-64500000D02*
X103480000Y-64500000D01*
X75180000Y-65450000D02*
X72930000Y-65450000D01*
X75180000Y-64500000D02*
X75180000Y-65450000D01*
X76130000Y-64500000D02*
X75180000Y-64500000D01*
%TD*%
M02*
