%TF.GenerationSoftware,KiCad,Pcbnew,(6.0.0)*%
%TF.CreationDate,2022-08-25T16:51:24-03:00*%
%TF.ProjectId,BlankMSXCartHSH,426c616e-6b4d-4535-9843-617274485348,rev?*%
%TF.SameCoordinates,Original*%
%TF.FileFunction,Copper,L2,Bot*%
%TF.FilePolarity,Positive*%
%FSLAX46Y46*%
G04 Gerber Fmt 4.6, Leading zero omitted, Abs format (unit mm)*
G04 Created by KiCad (PCBNEW (6.0.0)) date 2022-08-25 16:51:24*
%MOMM*%
%LPD*%
G01*
G04 APERTURE LIST*
G04 Aperture macros list*
%AMOutline5P*
0 Free polygon, 5 corners , with rotation*
0 The origin of the aperture is its center*
0 number of corners: always 5*
0 $1 to $10 corner X, Y*
0 $11 Rotation angle, in degrees counterclockwise*
0 create outline with 5 corners*
4,1,5,$1,$2,$3,$4,$5,$6,$7,$8,$9,$10,$1,$2,$11*%
%AMOutline6P*
0 Free polygon, 6 corners , with rotation*
0 The origin of the aperture is its center*
0 number of corners: always 6*
0 $1 to $12 corner X, Y*
0 $13 Rotation angle, in degrees counterclockwise*
0 create outline with 6 corners*
4,1,6,$1,$2,$3,$4,$5,$6,$7,$8,$9,$10,$11,$12,$1,$2,$13*%
%AMOutline7P*
0 Free polygon, 7 corners , with rotation*
0 The origin of the aperture is its center*
0 number of corners: always 7*
0 $1 to $14 corner X, Y*
0 $15 Rotation angle, in degrees counterclockwise*
0 create outline with 7 corners*
4,1,7,$1,$2,$3,$4,$5,$6,$7,$8,$9,$10,$11,$12,$13,$14,$1,$2,$15*%
%AMOutline8P*
0 Free polygon, 8 corners , with rotation*
0 The origin of the aperture is its center*
0 number of corners: always 8*
0 $1 to $16 corner X, Y*
0 $17 Rotation angle, in degrees counterclockwise*
0 create outline with 8 corners*
4,1,8,$1,$2,$3,$4,$5,$6,$7,$8,$9,$10,$11,$12,$13,$14,$15,$16,$1,$2,$17*%
G04 Aperture macros list end*
%TA.AperFunction,SMDPad,CuDef*%
%ADD10R,1.524000X7.366000*%
%TD*%
%TA.AperFunction,ComponentPad*%
%ADD11Outline8P,-0.800100X0.400050X-0.400050X0.800100X0.400050X0.800100X0.800100X0.400050X0.800100X-0.400050X0.400050X-0.800100X-0.400050X-0.800100X-0.800100X-0.400050X0.000000*%
%TD*%
%TA.AperFunction,ViaPad*%
%ADD12C,1.524000*%
%TD*%
%TA.AperFunction,ViaPad*%
%ADD13C,1.295400*%
%TD*%
%TA.AperFunction,Conductor*%
%ADD14C,0.762000*%
%TD*%
%TA.AperFunction,Conductor*%
%ADD15C,0.254000*%
%TD*%
%TA.AperFunction,Conductor*%
%ADD16C,0.508000*%
%TD*%
G04 APERTURE END LIST*
D10*
%TO.P,CN1,1*%
%TO.N,N$28*%
X140190000Y-178533000D03*
%TO.P,CN1,3*%
%TO.N,N$29*%
X137650000Y-178533000D03*
%TO.P,CN1,5*%
%TO.N,N$30*%
X135110000Y-178533000D03*
%TO.P,CN1,7*%
%TO.N,N$31*%
X132570000Y-178533000D03*
%TO.P,CN1,9*%
%TO.N,N$32*%
X130030000Y-178533000D03*
%TO.P,CN1,11*%
%TO.N,N$33*%
X127490000Y-178533000D03*
%TO.P,CN1,13*%
%TO.N,N$304*%
X124950000Y-178533000D03*
%TO.P,CN1,15*%
%TO.N,N$303*%
X122410000Y-178533000D03*
%TO.P,CN1,17*%
%TO.N,N$302*%
X119870000Y-178533000D03*
%TO.P,CN1,19*%
%TO.N,N$49*%
X117330000Y-178533000D03*
%TO.P,CN1,21*%
%TO.N,N$48*%
X114790000Y-178533000D03*
%TO.P,CN1,23*%
%TO.N,N$47*%
X112250000Y-178533000D03*
%TO.P,CN1,25*%
%TO.N,N$46*%
X109710000Y-178533000D03*
%TO.P,CN1,27*%
%TO.N,N$45*%
X107170000Y-178533000D03*
%TO.P,CN1,29*%
%TO.N,N$44*%
X104630000Y-178533000D03*
%TO.P,CN1,31*%
%TO.N,N$43*%
X102090000Y-178533000D03*
%TO.P,CN1,33*%
%TO.N,N$42*%
X99550000Y-178533000D03*
%TO.P,CN1,35*%
%TO.N,N$41*%
X97010000Y-178533000D03*
%TO.P,CN1,37*%
%TO.N,N$40*%
X94470000Y-178533000D03*
%TO.P,CN1,39*%
%TO.N,N$39*%
X91930000Y-178533000D03*
%TO.P,CN1,41*%
%TO.N,GND*%
X89390000Y-178533000D03*
%TO.P,CN1,43*%
X86850000Y-178533000D03*
%TO.P,CN1,45*%
%TO.N,+5V*%
X84310000Y-178533000D03*
%TO.P,CN1,47*%
X81770000Y-178533000D03*
%TO.P,CN1,49*%
%TO.N,N$34*%
X79230000Y-178533000D03*
%TD*%
D11*
%TO.P,PAD1,1*%
%TO.N,N$1*%
X140190000Y-167230000D03*
%TD*%
%TO.P,PAD2,1*%
%TO.N,N$2*%
X137650000Y-167230000D03*
%TD*%
%TO.P,PAD3,1*%
%TO.N,N$4*%
X135110000Y-167230000D03*
%TD*%
%TO.P,PAD4,1*%
%TO.N,N$6*%
X132570000Y-167230000D03*
%TD*%
%TO.P,PAD5,1*%
%TO.N,N$7*%
X130030000Y-167230000D03*
%TD*%
%TO.P,PAD6,1*%
%TO.N,N$8*%
X127490000Y-167230000D03*
%TD*%
%TO.P,PAD7,1*%
%TO.N,N$9*%
X124950000Y-167230000D03*
%TD*%
%TO.P,PAD8,1*%
%TO.N,N$10*%
X122410000Y-167230000D03*
%TD*%
%TO.P,PAD9,1*%
%TO.N,N$11*%
X119870000Y-167230000D03*
%TD*%
%TO.P,PAD10,1*%
%TO.N,N$12*%
X117330000Y-167230000D03*
%TD*%
%TO.P,PAD11,1*%
%TO.N,N$13*%
X114790000Y-167230000D03*
%TD*%
%TO.P,PAD12,1*%
%TO.N,N$14*%
X112250000Y-167230000D03*
%TD*%
%TO.P,PAD13,1*%
%TO.N,N$15*%
X109710000Y-167230000D03*
%TD*%
%TO.P,PAD14,1*%
%TO.N,N$16*%
X107170000Y-167230000D03*
%TD*%
%TO.P,PAD15,1*%
%TO.N,N$17*%
X104630000Y-167230000D03*
%TD*%
%TO.P,PAD16,1*%
%TO.N,N$18*%
X102090000Y-167230000D03*
%TD*%
%TO.P,PAD17,1*%
%TO.N,N$19*%
X99550000Y-167230000D03*
%TD*%
%TO.P,PAD18,1*%
%TO.N,N$20*%
X97010000Y-167230000D03*
%TD*%
%TO.P,PAD19,1*%
%TO.N,N$21*%
X94470000Y-167230000D03*
%TD*%
%TO.P,PAD20,1*%
%TO.N,N$22*%
X91930000Y-167230000D03*
%TD*%
%TO.P,PAD21,1*%
%TO.N,N$23*%
X89390000Y-167230000D03*
%TD*%
%TO.P,PAD22,1*%
%TO.N,N$24*%
X86850000Y-167230000D03*
%TD*%
%TO.P,PAD23,1*%
%TO.N,N$25*%
X84310000Y-167230000D03*
%TD*%
%TO.P,PAD24,1*%
%TO.N,N$26*%
X81770000Y-167230000D03*
%TD*%
%TO.P,PAD25,1*%
%TO.N,N$27*%
X79230000Y-167230000D03*
%TD*%
%TO.P,PAD26,1*%
%TO.N,N$28*%
X140190000Y-162150000D03*
%TD*%
%TO.P,PAD27,1*%
%TO.N,N$29*%
X137650000Y-162150000D03*
%TD*%
%TO.P,PAD29,1*%
%TO.N,N$31*%
X132570000Y-162150000D03*
%TD*%
%TO.P,PAD30,1*%
%TO.N,N$32*%
X130030000Y-162150000D03*
%TD*%
%TO.P,PAD31,1*%
%TO.N,N$33*%
X127490000Y-162150000D03*
%TD*%
%TO.P,PAD32,1*%
%TO.N,N$34*%
X79230000Y-162150000D03*
%TD*%
%TO.P,PAD33,1*%
%TO.N,+5V*%
X81770000Y-162150000D03*
%TD*%
%TO.P,PAD34,1*%
%TO.N,+5V*%
X84310000Y-162150000D03*
%TD*%
%TO.P,PAD37,1*%
%TO.N,N$39*%
X91930000Y-162150000D03*
%TD*%
%TO.P,PAD38,1*%
%TO.N,N$40*%
X94470000Y-162150000D03*
%TD*%
%TO.P,PAD39,1*%
%TO.N,N$41*%
X97010000Y-162150000D03*
%TD*%
%TO.P,PAD40,1*%
%TO.N,N$42*%
X99550000Y-162150000D03*
%TD*%
%TO.P,PAD41,1*%
%TO.N,N$43*%
X102090000Y-162150000D03*
%TD*%
%TO.P,PAD42,1*%
%TO.N,N$44*%
X104630000Y-162150000D03*
%TD*%
%TO.P,PAD43,1*%
%TO.N,N$45*%
X107170000Y-162150000D03*
%TD*%
%TO.P,PAD44,1*%
%TO.N,N$46*%
X109710000Y-162150000D03*
%TD*%
%TO.P,PAD45,1*%
%TO.N,N$47*%
X112250000Y-162150000D03*
%TD*%
%TO.P,PAD46,1*%
%TO.N,N$48*%
X114790000Y-162150000D03*
%TD*%
%TO.P,PAD47,1*%
%TO.N,N$49*%
X117330000Y-162150000D03*
%TD*%
%TO.P,PAD48,1*%
%TO.N,N$302*%
X119870000Y-162150000D03*
%TD*%
%TO.P,PAD49,1*%
%TO.N,N$303*%
X122410000Y-162150000D03*
%TD*%
%TO.P,PAD50,1*%
%TO.N,N$304*%
X124950000Y-162150000D03*
%TD*%
%TO.P,PAD28,1*%
%TO.N,GND*%
X86850000Y-162150000D03*
%TD*%
%TO.P,PAD35,1*%
%TO.N,GND*%
X89390000Y-162150000D03*
%TD*%
%TO.P,PAD36,1*%
%TO.N,N$30*%
X135110000Y-162150000D03*
%TD*%
D12*
%TO.N,*%
X145240000Y-96160000D03*
X132570000Y-96080000D03*
X135110000Y-96080000D03*
X140190000Y-96080000D03*
X137650000Y-96080000D03*
X130080000Y-96080000D03*
X142730000Y-96080000D03*
X127550000Y-95990000D03*
X125010000Y-95990000D03*
X117360000Y-96070000D03*
X119900000Y-96070000D03*
X122440000Y-96070000D03*
X71760000Y-96100000D03*
X74330000Y-96220000D03*
D13*
%TO.N,+5V*%
X58940000Y-57610000D03*
X58940000Y-65230000D03*
X58940000Y-62690000D03*
X58940000Y-55070000D03*
X58940000Y-60150000D03*
%TO.N,GND*%
X150370000Y-57800000D03*
X150370000Y-65420000D03*
X150370000Y-55260000D03*
X150370000Y-62880000D03*
X150370000Y-60340000D03*
D12*
%TO.N,*%
X130150000Y-93500000D03*
X137720000Y-93500000D03*
X135180000Y-93500000D03*
X140260000Y-93500000D03*
X132640000Y-93500000D03*
X142800000Y-93500000D03*
X127620000Y-93410000D03*
X125080000Y-93410000D03*
%TO.N,unconnected-(U3-Pad3)*%
X127590000Y-98570000D03*
%TO.N,unconnected-(U3-Pad38)*%
X140230000Y-98660000D03*
%TO.N,unconnected-(U3-Pad39)*%
X137690000Y-98660000D03*
%TO.N,unconnected-(U3-Pad1)*%
X132610000Y-98660000D03*
%TO.N,unconnected-(U3-Pad40)*%
X135150000Y-98660000D03*
%TO.N,unconnected-(U3-Pad2)*%
X130120000Y-98660000D03*
%TO.N,*%
X130140000Y-53660000D03*
X130110000Y-55900000D03*
%TO.N,unconnected-(U2-Pad2)*%
X130180000Y-58440000D03*
%TO.N,*%
X125070000Y-53570000D03*
X127610000Y-53570000D03*
X122530000Y-53570000D03*
X119990000Y-53570000D03*
X117450000Y-53570000D03*
X125040000Y-55810000D03*
X127580000Y-55810000D03*
X122500000Y-55810000D03*
X119960000Y-55810000D03*
X117420000Y-55810000D03*
X122510000Y-73170000D03*
X119970000Y-73170000D03*
%TO.N,unconnected-(U2-Pad10)*%
X125010000Y-73130000D03*
%TO.N,*%
X117430000Y-73170000D03*
X119970000Y-78250000D03*
X122510000Y-78250000D03*
%TO.N,unconnected-(U2-Pad11)*%
X125010000Y-75670000D03*
%TO.N,unconnected-(U2-Pad12)*%
X125010000Y-78210000D03*
%TO.N,*%
X117430000Y-75710000D03*
X119970000Y-75710000D03*
X117430000Y-78250000D03*
X122510000Y-75710000D03*
X122510000Y-83330000D03*
X119970000Y-80790000D03*
X117430000Y-80790000D03*
X122510000Y-80790000D03*
%TO.N,unconnected-(U2-Pad13)*%
X125010000Y-80750000D03*
%TO.N,*%
X122510000Y-85870000D03*
X119970000Y-85870000D03*
%TO.N,unconnected-(U2-Pad15)*%
X125010000Y-85830000D03*
%TO.N,*%
X117430000Y-85870000D03*
%TO.N,unconnected-(U2-Pad14)*%
X125010000Y-83290000D03*
%TO.N,*%
X117430000Y-83330000D03*
X119970000Y-83330000D03*
X119970000Y-91130000D03*
X122510000Y-88410000D03*
%TO.N,unconnected-(U2-Pad16)*%
X125010000Y-88370000D03*
%TO.N,unconnected-(U2-Pad17)*%
X125043333Y-91130000D03*
%TO.N,*%
X117430000Y-90950000D03*
X117430000Y-88410000D03*
X119970000Y-88410000D03*
X122510000Y-91130000D03*
X122510000Y-93490000D03*
%TO.N,unconnected-(U2-Pad19)*%
X130109999Y-91130000D03*
%TO.N,unconnected-(U2-Pad18)*%
X127576666Y-91130000D03*
%TO.N,*%
X117430000Y-93490000D03*
X119970000Y-93490000D03*
X119970000Y-101110000D03*
X119970000Y-98570000D03*
X117430000Y-98570000D03*
X122510000Y-98570000D03*
%TO.N,unconnected-(U3-Pad5)*%
X125050000Y-101110000D03*
%TO.N,*%
X117430000Y-101110000D03*
%TO.N,unconnected-(U3-Pad4)*%
X125050000Y-98570000D03*
%TO.N,*%
X122510000Y-101110000D03*
X122510000Y-103650000D03*
X119970000Y-103650000D03*
%TO.N,unconnected-(U3-Pad6)*%
X125050000Y-103650000D03*
%TO.N,*%
X117430000Y-103650000D03*
X122520000Y-58310000D03*
X117440000Y-63360000D03*
X117440000Y-58310000D03*
X117400000Y-65640000D03*
X117400000Y-67980000D03*
%TO.N,unconnected-(U2-Pad4)*%
X125010000Y-58400000D03*
%TO.N,unconnected-(U2-Pad9)*%
X124980000Y-70480000D03*
%TO.N,*%
X122520000Y-60890000D03*
X119980000Y-60890000D03*
%TO.N,unconnected-(U2-Pad3)*%
X127540000Y-58460000D03*
%TO.N,*%
X119940000Y-65640000D03*
X117440000Y-60890000D03*
%TO.N,unconnected-(U2-Pad7)*%
X124980000Y-65600000D03*
%TO.N,*%
X119980000Y-58310000D03*
X119940000Y-67980000D03*
X117400000Y-70520000D03*
X122480000Y-70520000D03*
X119940000Y-70520000D03*
X119980000Y-63360000D03*
X122520000Y-63360000D03*
X122480000Y-67980000D03*
X122480000Y-65640000D03*
%TO.N,unconnected-(U2-Pad8)*%
X124980000Y-67940000D03*
%TO.N,unconnected-(U2-Pad5)*%
X125020000Y-60850000D03*
%TO.N,unconnected-(U2-Pad6)*%
X125020000Y-63320000D03*
%TO.N,*%
X109910000Y-53640000D03*
X140250000Y-53660000D03*
X112480000Y-53640000D03*
X145330000Y-53660000D03*
X142790000Y-53660000D03*
X137710000Y-53660000D03*
X135170000Y-53660000D03*
X132630000Y-53660000D03*
X115020000Y-53640000D03*
X61590000Y-53660000D03*
X66870000Y-53630000D03*
X64340000Y-53630000D03*
X69380000Y-53640000D03*
X107130000Y-53490000D03*
%TO.N,unconnected-(U1-Pad97)*%
X103780000Y-53580000D03*
%TO.N,unconnected-(U1-Pad100)*%
X101060000Y-53580000D03*
%TO.N,unconnected-(U1-Pad103)*%
X98340000Y-53590000D03*
%TO.N,unconnected-(U1-Pad115)*%
X87550000Y-53630000D03*
%TO.N,unconnected-(U1-Pad127)*%
X77090000Y-53640000D03*
%TO.N,unconnected-(U1-Pad118)*%
X84900000Y-53640000D03*
%TO.N,*%
X72030000Y-53640000D03*
%TO.N,unconnected-(U1-Pad109)*%
X92930000Y-53640000D03*
%TO.N,unconnected-(U1-Pad106)*%
X95620000Y-53590000D03*
%TO.N,unconnected-(U1-Pad112)*%
X90240000Y-53610000D03*
%TO.N,unconnected-(U1-Pad121)*%
X82170000Y-53640000D03*
%TO.N,*%
X74550000Y-53640000D03*
%TO.N,unconnected-(U1-Pad124)*%
X79630000Y-53640000D03*
%TO.N,*%
X74360000Y-98700000D03*
X74360000Y-103780000D03*
X74360000Y-101240000D03*
%TO.N,unconnected-(U1-Pad3)*%
X69270000Y-66010000D03*
%TO.N,unconnected-(U1-Pad9)*%
X69150000Y-71610000D03*
%TO.N,unconnected-(U1-Pad6)*%
X69190000Y-68740000D03*
%TO.N,unconnected-(U1-Pad12)*%
X69170000Y-74390000D03*
%TO.N,unconnected-(U1-Pad18)*%
X69230000Y-80040000D03*
%TO.N,unconnected-(U1-Pad15)*%
X69230000Y-77130000D03*
%TO.N,unconnected-(U1-Pad21)*%
X69220000Y-82820000D03*
%TO.N,unconnected-(U1-Pad24)*%
X69220000Y-85480000D03*
%TO.N,unconnected-(U1-Pad27)*%
X69250000Y-88200000D03*
%TO.N,*%
X69240000Y-93480000D03*
%TO.N,unconnected-(U1-Pad30)*%
X69240000Y-90860000D03*
%TO.N,unconnected-(U1-Pad1)*%
X64210000Y-66010000D03*
%TO.N,unconnected-(U1-Pad7)*%
X64090000Y-71610000D03*
%TO.N,unconnected-(U1-Pad4)*%
X64130000Y-68740000D03*
%TO.N,unconnected-(U1-Pad10)*%
X64110000Y-74390000D03*
%TO.N,unconnected-(U1-Pad101)*%
X101030000Y-55820000D03*
%TO.N,unconnected-(U1-Pad104)*%
X98310000Y-55830000D03*
%TO.N,*%
X107120000Y-58230000D03*
%TO.N,unconnected-(U1-Pad105)*%
X98330000Y-58330000D03*
%TO.N,*%
X107100000Y-55730000D03*
%TO.N,unconnected-(U1-Pad98)*%
X103750000Y-55820000D03*
%TO.N,unconnected-(U1-Pad99)*%
X103770000Y-58320000D03*
%TO.N,unconnected-(U1-Pad102)*%
X101050000Y-58320000D03*
%TO.N,*%
X74540000Y-58380000D03*
%TO.N,unconnected-(U1-Pad126)*%
X79620000Y-58380000D03*
%TO.N,unconnected-(U1-Pad128)*%
X77060000Y-55880000D03*
%TO.N,unconnected-(U1-Pad116)*%
X87520000Y-55870000D03*
%TO.N,unconnected-(U1-Pad125)*%
X79600000Y-55880000D03*
%TO.N,*%
X72000000Y-55880000D03*
%TO.N,unconnected-(U1-Pad120)*%
X84890000Y-58380000D03*
%TO.N,unconnected-(U1-Pad110)*%
X92900000Y-55880000D03*
%TO.N,unconnected-(U1-Pad114)*%
X90230000Y-58350000D03*
%TO.N,unconnected-(U1-Pad122)*%
X82280000Y-55880000D03*
%TO.N,*%
X74520000Y-55880000D03*
%TO.N,unconnected-(U1-Pad119)*%
X84870000Y-55880000D03*
%TO.N,unconnected-(U1-Pad123)*%
X82290000Y-58380000D03*
%TO.N,unconnected-(U1-Pad107)*%
X95590000Y-55830000D03*
%TO.N,*%
X77080000Y-58380000D03*
%TO.N,unconnected-(U1-Pad113)*%
X90210000Y-55850000D03*
%TO.N,unconnected-(U1-Pad111)*%
X92920000Y-58380000D03*
%TO.N,unconnected-(U1-Pad117)*%
X87540000Y-58370000D03*
%TO.N,unconnected-(U1-Pad108)*%
X95610000Y-58330000D03*
%TO.N,*%
X72020000Y-58380000D03*
X61560000Y-55900000D03*
X64270000Y-55880000D03*
X66810000Y-55880000D03*
X69350000Y-55880000D03*
X61670000Y-66030000D03*
X61530000Y-71613629D03*
X61580000Y-68700000D03*
X61630000Y-63450000D03*
X61560000Y-61030905D03*
X61560000Y-58532724D03*
X64230000Y-58380000D03*
X69310000Y-60960000D03*
X66770000Y-58380000D03*
%TO.N,unconnected-(U1-Pad2)*%
X66760000Y-66010000D03*
%TO.N,*%
X64180000Y-63430000D03*
X66720000Y-63430000D03*
X66770000Y-60960000D03*
X69310000Y-58380000D03*
X69260000Y-63430000D03*
X64230000Y-60960000D03*
%TO.N,unconnected-(U1-Pad5)*%
X66680000Y-68740000D03*
%TO.N,unconnected-(U1-Pad8)*%
X66640000Y-71610000D03*
%TO.N,*%
X109880000Y-55880000D03*
%TO.N,unconnected-(U1-Pad88)*%
X109910000Y-73890000D03*
%TO.N,unconnected-(U1-Pad82)*%
X109920000Y-79310000D03*
%TO.N,unconnected-(U1-Pad85)*%
X109860000Y-76510000D03*
%TO.N,unconnected-(U1-Pad79)*%
X109940000Y-82000000D03*
%TO.N,unconnected-(U1-Pad73)*%
X109930000Y-87620000D03*
%TO.N,unconnected-(U1-Pad76)*%
X109940000Y-84670000D03*
%TO.N,unconnected-(U1-Pad67)*%
X110050000Y-93420000D03*
%TO.N,unconnected-(U1-Pad70)*%
X109940000Y-90660000D03*
%TO.N,*%
X109940000Y-96110000D03*
%TO.N,unconnected-(U1-Pad91)*%
X109890000Y-70970000D03*
%TO.N,*%
X109950000Y-60960000D03*
X109900000Y-58380000D03*
%TO.N,unconnected-(U1-Pad94)*%
X109910000Y-68050000D03*
%TO.N,*%
X109910000Y-65710000D03*
X109950000Y-63430000D03*
X112470000Y-58380000D03*
%TO.N,unconnected-(U2-Pad38)*%
X140240000Y-58400000D03*
%TO.N,unconnected-(U2-Pad39)*%
X137700000Y-58400000D03*
%TO.N,unconnected-(U2-Pad37)*%
X142780000Y-58400000D03*
%TO.N,unconnected-(U2-Pad1)*%
X132570000Y-58480000D03*
%TO.N,*%
X145320000Y-58400000D03*
%TO.N,unconnected-(U2-Pad35)*%
X142780000Y-63450000D03*
%TO.N,*%
X115010000Y-58380000D03*
%TO.N,unconnected-(U2-Pad40)*%
X135160000Y-58400000D03*
%TO.N,*%
X145320000Y-63450000D03*
%TO.N,unconnected-(U1-Pad95)*%
X114970000Y-65710000D03*
%TO.N,*%
X145320000Y-60980000D03*
%TO.N,unconnected-(U1-Pad90)*%
X112410000Y-70970000D03*
%TO.N,*%
X145280000Y-70610000D03*
%TO.N,unconnected-(U2-Pad32)*%
X142740000Y-70610000D03*
%TO.N,unconnected-(U2-Pad33)*%
X142740000Y-68070000D03*
%TO.N,unconnected-(U2-Pad36)*%
X142780000Y-60980000D03*
%TO.N,*%
X112470000Y-60960000D03*
%TO.N,unconnected-(U1-Pad93)*%
X112430000Y-68050000D03*
%TO.N,*%
X145280000Y-68070000D03*
%TO.N,unconnected-(U1-Pad92)*%
X114970000Y-68050000D03*
%TO.N,*%
X115010000Y-63430000D03*
X112470000Y-63430000D03*
X145280000Y-65730000D03*
%TO.N,unconnected-(U1-Pad96)*%
X112430000Y-65710000D03*
%TO.N,*%
X115010000Y-60960000D03*
%TO.N,unconnected-(U2-Pad34)*%
X142740000Y-65730000D03*
%TO.N,unconnected-(U1-Pad89)*%
X114950000Y-70970000D03*
%TO.N,*%
X145300000Y-55900000D03*
X137680000Y-55900000D03*
X142760000Y-55900000D03*
X135140000Y-55900000D03*
X114990000Y-55880000D03*
X112450000Y-55880000D03*
X140220000Y-55900000D03*
X132600000Y-55900000D03*
X61560000Y-74451810D03*
%TO.N,unconnected-(U1-Pad11)*%
X66660000Y-74390000D03*
%TO.N,unconnected-(U2-Pad31)*%
X142770000Y-73260000D03*
%TO.N,*%
X145310000Y-73260000D03*
%TO.N,unconnected-(U1-Pad87)*%
X112430000Y-73890000D03*
%TO.N,unconnected-(U1-Pad86)*%
X114970000Y-73890000D03*
%TO.N,*%
X61620000Y-77150000D03*
%TO.N,unconnected-(U1-Pad13)*%
X64170000Y-77130000D03*
%TO.N,unconnected-(U1-Pad14)*%
X66720000Y-77130000D03*
%TO.N,unconnected-(U2-Pad30)*%
X142770000Y-75800000D03*
%TO.N,*%
X145310000Y-75800000D03*
%TO.N,unconnected-(U1-Pad84)*%
X112380000Y-76510000D03*
%TO.N,unconnected-(U1-Pad83)*%
X114920000Y-76510000D03*
%TO.N,*%
X61620000Y-80060000D03*
%TO.N,unconnected-(U1-Pad16)*%
X64250000Y-80000000D03*
%TO.N,unconnected-(U1-Pad17)*%
X66720000Y-80040000D03*
%TO.N,unconnected-(U2-Pad29)*%
X142770000Y-78340000D03*
%TO.N,*%
X145310000Y-78340000D03*
%TO.N,unconnected-(U1-Pad81)*%
X112440000Y-79310000D03*
%TO.N,unconnected-(U1-Pad80)*%
X114980000Y-79310000D03*
%TO.N,*%
X61580000Y-82900000D03*
%TO.N,unconnected-(U1-Pad19)*%
X64150000Y-82820000D03*
%TO.N,unconnected-(U1-Pad20)*%
X66710000Y-82820000D03*
%TO.N,unconnected-(U2-Pad28)*%
X142770000Y-80880000D03*
%TO.N,*%
X145310000Y-80880000D03*
%TO.N,unconnected-(U1-Pad78)*%
X112460000Y-82000000D03*
%TO.N,unconnected-(U1-Pad77)*%
X115000000Y-82000000D03*
%TO.N,*%
X61610000Y-85500000D03*
%TO.N,unconnected-(U1-Pad22)*%
X64240000Y-85480000D03*
%TO.N,unconnected-(U1-Pad23)*%
X66710000Y-85480000D03*
%TO.N,unconnected-(U2-Pad27)*%
X142770000Y-83420000D03*
%TO.N,*%
X145310000Y-83420000D03*
%TO.N,unconnected-(U1-Pad75)*%
X112460000Y-84670000D03*
%TO.N,unconnected-(U1-Pad74)*%
X115000000Y-84670000D03*
%TO.N,*%
X61600000Y-88070000D03*
%TO.N,unconnected-(U1-Pad25)*%
X64270000Y-88200000D03*
%TO.N,unconnected-(U1-Pad26)*%
X66740000Y-88200000D03*
%TO.N,unconnected-(U2-Pad26)*%
X142770000Y-85960000D03*
%TO.N,*%
X145310000Y-85960000D03*
%TO.N,unconnected-(U1-Pad72)*%
X112450000Y-87620000D03*
%TO.N,unconnected-(U1-Pad71)*%
X114990000Y-87620000D03*
%TO.N,*%
X61630000Y-90960000D03*
%TO.N,unconnected-(U1-Pad28)*%
X64260000Y-90890000D03*
%TO.N,unconnected-(U1-Pad29)*%
X66730000Y-90940000D03*
%TO.N,unconnected-(U2-Pad25)*%
X142770000Y-88500000D03*
%TO.N,*%
X145310000Y-88500000D03*
%TO.N,unconnected-(U1-Pad69)*%
X112460000Y-90660000D03*
%TO.N,unconnected-(U1-Pad68)*%
X115000000Y-90660000D03*
%TO.N,*%
X61630000Y-93500000D03*
%TO.N,unconnected-(U1-Pad31)*%
X64260000Y-93480000D03*
%TO.N,unconnected-(U1-Pad32)*%
X66730000Y-93480000D03*
%TO.N,unconnected-(U2-Pad24)*%
X142776664Y-91130000D03*
%TO.N,*%
X145310000Y-91130000D03*
%TO.N,unconnected-(U1-Pad66)*%
X112570000Y-93420000D03*
%TO.N,unconnected-(U1-Pad65)*%
X115110000Y-93420000D03*
%TO.N,*%
X61630000Y-96040000D03*
X69270000Y-96020000D03*
X66730000Y-96020000D03*
X64190000Y-96020000D03*
%TO.N,unconnected-(U2-Pad23)*%
X140243331Y-91130000D03*
%TO.N,*%
X145310000Y-93580000D03*
%TO.N,unconnected-(U2-Pad21)*%
X135176665Y-91130000D03*
%TO.N,unconnected-(U2-Pad22)*%
X137709998Y-91130000D03*
%TO.N,unconnected-(U2-Pad20)*%
X132643332Y-91130000D03*
%TO.N,*%
X112460000Y-96110000D03*
X115000000Y-96110000D03*
X61640000Y-98660000D03*
X69280000Y-98640000D03*
X66740000Y-98640000D03*
X64200000Y-98640000D03*
%TO.N,unconnected-(U3-Pad37)*%
X142770000Y-98660000D03*
%TO.N,*%
X145310000Y-98660000D03*
X112460000Y-98640000D03*
X115000000Y-98640000D03*
X109920000Y-98640000D03*
X107430000Y-98600000D03*
%TO.N,unconnected-(U1-Pad62)*%
X102330000Y-98740000D03*
%TO.N,*%
X104870000Y-98730000D03*
%TO.N,unconnected-(U1-Pad56)*%
X96670000Y-98720000D03*
%TO.N,unconnected-(U1-Pad59)*%
X99520000Y-98740000D03*
%TO.N,unconnected-(U1-Pad50)*%
X91000000Y-98730000D03*
%TO.N,unconnected-(U1-Pad53)*%
X93710000Y-98720000D03*
%TO.N,unconnected-(U1-Pad44)*%
X85380000Y-98740000D03*
%TO.N,unconnected-(U1-Pad47)*%
X88260000Y-98750000D03*
%TO.N,unconnected-(U1-Pad38)*%
X79880000Y-98780000D03*
%TO.N,unconnected-(U1-Pad41)*%
X82720000Y-98780000D03*
%TO.N,*%
X71820000Y-98640000D03*
%TO.N,unconnected-(U1-Pad35)*%
X77010000Y-98780000D03*
%TO.N,*%
X61640000Y-101200000D03*
X69280000Y-101180000D03*
X66740000Y-101180000D03*
X64200000Y-101180000D03*
%TO.N,unconnected-(U3-Pad36)*%
X142770000Y-101200000D03*
%TO.N,*%
X145310000Y-101200000D03*
X112460000Y-101180000D03*
X115000000Y-101180000D03*
X109920000Y-101180000D03*
X107430000Y-101140000D03*
%TO.N,unconnected-(U1-Pad61)*%
X102330000Y-101280000D03*
%TO.N,unconnected-(U1-Pad64)*%
X104870000Y-101270000D03*
%TO.N,unconnected-(U1-Pad55)*%
X96670000Y-101260000D03*
%TO.N,unconnected-(U1-Pad58)*%
X99520000Y-101280000D03*
%TO.N,unconnected-(U1-Pad49)*%
X91000000Y-101270000D03*
%TO.N,unconnected-(U1-Pad52)*%
X93710000Y-101260000D03*
%TO.N,unconnected-(U1-Pad43)*%
X85380000Y-101280000D03*
%TO.N,unconnected-(U1-Pad46)*%
X88260000Y-101290000D03*
%TO.N,unconnected-(U1-Pad37)*%
X79880000Y-101320000D03*
%TO.N,unconnected-(U1-Pad40)*%
X82720000Y-101320000D03*
%TO.N,*%
X71820000Y-101180000D03*
%TO.N,unconnected-(U1-Pad34)*%
X77010000Y-101320000D03*
%TO.N,*%
X61640000Y-103740000D03*
X69280000Y-103720000D03*
X66740000Y-103720000D03*
X64200000Y-103720000D03*
%TO.N,unconnected-(U3-Pad35)*%
X142770000Y-103740000D03*
%TO.N,*%
X145310000Y-103740000D03*
X112460000Y-103720000D03*
X115000000Y-103720000D03*
X109920000Y-103720000D03*
X107430000Y-103810000D03*
%TO.N,unconnected-(U1-Pad60)*%
X102350000Y-103950000D03*
%TO.N,unconnected-(U1-Pad63)*%
X104890000Y-103950000D03*
%TO.N,unconnected-(U1-Pad54)*%
X96650000Y-103830000D03*
%TO.N,unconnected-(U1-Pad57)*%
X99500000Y-103800000D03*
%TO.N,unconnected-(U1-Pad48)*%
X91030000Y-103710000D03*
%TO.N,unconnected-(U1-Pad51)*%
X93750000Y-103760000D03*
%TO.N,unconnected-(U1-Pad42)*%
X85380000Y-103820000D03*
%TO.N,unconnected-(U1-Pad45)*%
X88230000Y-103680000D03*
%TO.N,unconnected-(U1-Pad36)*%
X79880000Y-103860000D03*
%TO.N,unconnected-(U1-Pad39)*%
X82720000Y-103860000D03*
%TO.N,*%
X71820000Y-103720000D03*
%TO.N,unconnected-(U1-Pad33)*%
X77010000Y-103860000D03*
%TO.N,*%
X74190000Y-106280000D03*
X71650000Y-106280000D03*
X69110000Y-106280000D03*
X66570000Y-106280000D03*
X64160000Y-106280000D03*
X61640000Y-106280000D03*
X84350000Y-106280000D03*
X81810000Y-106280000D03*
X79270000Y-106280000D03*
X76730000Y-106280000D03*
%TO.N,unconnected-(U3-Pad34)*%
X142770000Y-106280000D03*
%TO.N,*%
X145310000Y-106280000D03*
X122450000Y-106280000D03*
%TO.N,unconnected-(U3-Pad7)*%
X124990000Y-106280000D03*
%TO.N,*%
X117370000Y-106280000D03*
X119910000Y-106280000D03*
X112290000Y-106280000D03*
X114830000Y-106280000D03*
X107430000Y-106280000D03*
X109750000Y-106280000D03*
X102130000Y-106280000D03*
X104670000Y-106280000D03*
X97050000Y-106280000D03*
X99590000Y-106280000D03*
X91970000Y-106280000D03*
X94510000Y-106280000D03*
X86890000Y-106280000D03*
X89430000Y-106280000D03*
X74150000Y-108810000D03*
X71610000Y-108810000D03*
X69070000Y-108810000D03*
X66530000Y-108810000D03*
X64120000Y-108810000D03*
X61600000Y-108810000D03*
X84310000Y-108810000D03*
X81770000Y-108810000D03*
X79230000Y-108810000D03*
X76690000Y-108810000D03*
%TO.N,unconnected-(U3-Pad33)*%
X142730000Y-108810000D03*
%TO.N,*%
X145270000Y-108810000D03*
X122410000Y-108810000D03*
%TO.N,unconnected-(U3-Pad8)*%
X124950000Y-108810000D03*
%TO.N,unconnected-(U5-Pad15)*%
X117330000Y-108810000D03*
%TO.N,unconnected-(U5-Pad14)*%
X119870000Y-108810000D03*
%TO.N,unconnected-(U5-Pad17)*%
X112250000Y-108810000D03*
%TO.N,unconnected-(U5-Pad16)*%
X114790000Y-108810000D03*
%TO.N,unconnected-(U5-Pad19)*%
X107430000Y-108810000D03*
%TO.N,unconnected-(U5-Pad18)*%
X109710000Y-108810000D03*
%TO.N,unconnected-(U5-Pad21)*%
X102090000Y-108810000D03*
%TO.N,unconnected-(U5-Pad20)*%
X104630000Y-108810000D03*
%TO.N,unconnected-(U5-Pad23)*%
X97010000Y-108810000D03*
%TO.N,unconnected-(U5-Pad22)*%
X99550000Y-108810000D03*
%TO.N,*%
X91930000Y-108810000D03*
X94470000Y-108810000D03*
X86850000Y-108810000D03*
X89390000Y-108810000D03*
X74150000Y-111350000D03*
X71610000Y-111350000D03*
X69070000Y-111350000D03*
X66530000Y-111350000D03*
X64120000Y-111350000D03*
X61600000Y-111350000D03*
X79230000Y-111330000D03*
%TO.N,unconnected-(U4-Pad6)*%
X76690000Y-111330000D03*
%TO.N,*%
X94460000Y-111400000D03*
X91920000Y-111400000D03*
%TO.N,unconnected-(U3-Pad32)*%
X142730000Y-111350000D03*
%TO.N,*%
X145270000Y-111350000D03*
X122410000Y-111350000D03*
%TO.N,unconnected-(U3-Pad9)*%
X124950000Y-111350000D03*
%TO.N,unconnected-(U5-Pad13)*%
X119870000Y-111350000D03*
%TO.N,unconnected-(U5-Pad24)*%
X97010000Y-111350000D03*
%TO.N,*%
X86850000Y-111330000D03*
%TO.N,unconnected-(U4-Pad5)*%
X89390000Y-111330000D03*
%TO.N,*%
X81770000Y-111330000D03*
X84310000Y-111330000D03*
X74150000Y-113890000D03*
X71610000Y-113890000D03*
X69070000Y-113890000D03*
X66530000Y-113890000D03*
X64120000Y-113890000D03*
X61600000Y-113890000D03*
%TO.N,unconnected-(U4-Pad7)*%
X76690000Y-113870000D03*
%TO.N,*%
X94460000Y-113940000D03*
X91920000Y-113940000D03*
%TO.N,unconnected-(U3-Pad31)*%
X142730000Y-113890000D03*
%TO.N,*%
X145270000Y-113890000D03*
X122410000Y-113890000D03*
%TO.N,unconnected-(U3-Pad10)*%
X124950000Y-113890000D03*
%TO.N,*%
X119870000Y-113890000D03*
X97010000Y-113890000D03*
%TO.N,unconnected-(U4-Pad4)*%
X89390000Y-113870000D03*
%TO.N,*%
X74150000Y-116430000D03*
X71610000Y-116430000D03*
X69070000Y-116430000D03*
X66530000Y-116430000D03*
X64120000Y-116430000D03*
X61600000Y-116430000D03*
%TO.N,unconnected-(U4-Pad8)*%
X76690000Y-116410000D03*
%TO.N,*%
X94460000Y-116480000D03*
X91920000Y-116480000D03*
%TO.N,unconnected-(U3-Pad30)*%
X142730000Y-116430000D03*
%TO.N,*%
X145270000Y-116430000D03*
X122410000Y-116430000D03*
%TO.N,unconnected-(U3-Pad11)*%
X124950000Y-116430000D03*
%TO.N,*%
X119870000Y-116430000D03*
X97010000Y-116430000D03*
X89390000Y-116410000D03*
X74150000Y-118970000D03*
X71610000Y-118970000D03*
X69070000Y-118970000D03*
X66530000Y-118970000D03*
X64120000Y-118970000D03*
X61600000Y-118970000D03*
%TO.N,unconnected-(U4-Pad9)*%
X76690000Y-118950000D03*
%TO.N,*%
X94460000Y-119020000D03*
X91920000Y-119020000D03*
%TO.N,unconnected-(U3-Pad29)*%
X142730000Y-118970000D03*
%TO.N,*%
X145270000Y-118970000D03*
X122410000Y-118970000D03*
%TO.N,unconnected-(U3-Pad12)*%
X124950000Y-118970000D03*
%TO.N,*%
X119870000Y-118970000D03*
X97010000Y-118970000D03*
X89390000Y-118950000D03*
X74150000Y-121510000D03*
X71610000Y-121510000D03*
X69070000Y-121510000D03*
X66530000Y-121510000D03*
X64120000Y-121510000D03*
X61600000Y-121510000D03*
X79230000Y-121490000D03*
%TO.N,unconnected-(U4-Pad10)*%
X76690000Y-121490000D03*
%TO.N,*%
X94460000Y-121560000D03*
X91920000Y-121560000D03*
%TO.N,unconnected-(U3-Pad28)*%
X142730000Y-121510000D03*
%TO.N,*%
X145270000Y-121510000D03*
X122410000Y-121510000D03*
%TO.N,unconnected-(U3-Pad13)*%
X124950000Y-121510000D03*
%TO.N,*%
X119870000Y-121510000D03*
X97010000Y-121510000D03*
X86850000Y-121490000D03*
%TO.N,unconnected-(U4-Pad1)*%
X89390000Y-121490000D03*
%TO.N,*%
X81770000Y-121490000D03*
X84310000Y-121490000D03*
X74150000Y-124050000D03*
X71610000Y-124050000D03*
X69070000Y-124050000D03*
X66530000Y-124050000D03*
X64120000Y-124050000D03*
X61600000Y-124050000D03*
X84310000Y-124050000D03*
X81770000Y-124050000D03*
X79230000Y-124050000D03*
X76690000Y-124050000D03*
%TO.N,unconnected-(U3-Pad27)*%
X142730000Y-124050000D03*
%TO.N,*%
X145270000Y-124050000D03*
X122410000Y-124050000D03*
%TO.N,unconnected-(U3-Pad14)*%
X124950000Y-124050000D03*
%TO.N,unconnected-(U5-Pad12)*%
X119870000Y-124050000D03*
%TO.N,unconnected-(U5-Pad1)*%
X97010000Y-124050000D03*
%TO.N,*%
X91930000Y-124050000D03*
X94470000Y-124050000D03*
X86850000Y-124050000D03*
X89390000Y-124050000D03*
X74150000Y-126590000D03*
X71610000Y-126590000D03*
X69070000Y-126590000D03*
X66530000Y-126590000D03*
X64120000Y-126590000D03*
X61600000Y-126590000D03*
X84310000Y-126590000D03*
X81770000Y-126590000D03*
X79230000Y-126590000D03*
X76690000Y-126590000D03*
%TO.N,unconnected-(U3-Pad26)*%
X142730000Y-126590000D03*
%TO.N,*%
X145270000Y-126590000D03*
X122410000Y-126590000D03*
%TO.N,unconnected-(U3-Pad15)*%
X124950000Y-126590000D03*
%TO.N,unconnected-(U5-Pad10)*%
X117330000Y-126590000D03*
%TO.N,unconnected-(U5-Pad11)*%
X119870000Y-126590000D03*
%TO.N,unconnected-(U5-Pad8)*%
X112250000Y-126590000D03*
%TO.N,unconnected-(U5-Pad9)*%
X114790000Y-126590000D03*
%TO.N,unconnected-(U5-Pad6)*%
X107170000Y-126590000D03*
%TO.N,unconnected-(U5-Pad7)*%
X109710000Y-126590000D03*
%TO.N,unconnected-(U5-Pad4)*%
X102090000Y-126590000D03*
%TO.N,unconnected-(U5-Pad5)*%
X104630000Y-126590000D03*
%TO.N,unconnected-(U5-Pad2)*%
X97010000Y-126590000D03*
%TO.N,unconnected-(U5-Pad3)*%
X99550000Y-126590000D03*
%TO.N,*%
X91930000Y-126590000D03*
X94470000Y-126590000D03*
X86850000Y-126590000D03*
X89390000Y-126590000D03*
X74150000Y-129130000D03*
X71610000Y-129130000D03*
X69070000Y-129130000D03*
X66530000Y-129130000D03*
X64120000Y-129130000D03*
X61600000Y-129130000D03*
X84310000Y-129130000D03*
X81770000Y-129130000D03*
X79230000Y-129130000D03*
X76690000Y-129130000D03*
%TO.N,unconnected-(U3-Pad25)*%
X142730000Y-129130000D03*
%TO.N,*%
X145270000Y-129130000D03*
X122410000Y-129130000D03*
%TO.N,unconnected-(U3-Pad16)*%
X124950000Y-129130000D03*
%TO.N,*%
X117330000Y-129130000D03*
X119870000Y-129130000D03*
X112250000Y-129130000D03*
X114790000Y-129130000D03*
X107170000Y-129130000D03*
X109710000Y-129130000D03*
X102090000Y-129130000D03*
X104630000Y-129130000D03*
X97010000Y-129130000D03*
X99550000Y-129130000D03*
X91930000Y-129130000D03*
X94470000Y-129130000D03*
X86850000Y-129130000D03*
X89390000Y-129130000D03*
X74150000Y-131670000D03*
X71610000Y-131670000D03*
X69070000Y-131670000D03*
X66530000Y-131670000D03*
X64120000Y-131670000D03*
X61600000Y-131670000D03*
X84310000Y-131670000D03*
X81770000Y-131670000D03*
X79230000Y-131670000D03*
X76690000Y-131670000D03*
%TO.N,unconnected-(U3-Pad24)*%
X142730000Y-131670000D03*
%TO.N,*%
X145270000Y-131670000D03*
%TO.N,unconnected-(U3-Pad22)*%
X137650000Y-131670000D03*
%TO.N,unconnected-(U3-Pad23)*%
X140190000Y-131670000D03*
%TO.N,unconnected-(U3-Pad20)*%
X132570000Y-131670000D03*
%TO.N,unconnected-(U3-Pad21)*%
X135110000Y-131670000D03*
%TO.N,unconnected-(U3-Pad18)*%
X127490000Y-131670000D03*
%TO.N,unconnected-(U3-Pad19)*%
X130030000Y-131670000D03*
%TO.N,*%
X122410000Y-131670000D03*
%TO.N,unconnected-(U3-Pad17)*%
X124950000Y-131670000D03*
%TO.N,*%
X117330000Y-131670000D03*
X119870000Y-131670000D03*
X112250000Y-131670000D03*
X114790000Y-131670000D03*
X107170000Y-131670000D03*
X109710000Y-131670000D03*
X102090000Y-131670000D03*
X104630000Y-131670000D03*
X97010000Y-131670000D03*
X99550000Y-131670000D03*
X91930000Y-131670000D03*
X94470000Y-131670000D03*
X86850000Y-131670000D03*
X89390000Y-131670000D03*
X74150000Y-134210000D03*
X71610000Y-134210000D03*
X69070000Y-134210000D03*
X66530000Y-134210000D03*
X64120000Y-134210000D03*
X61600000Y-134210000D03*
X84310000Y-134210000D03*
X81770000Y-134210000D03*
X79230000Y-134210000D03*
X76690000Y-134210000D03*
X142730000Y-134210000D03*
X145270000Y-134210000D03*
X137650000Y-134210000D03*
X140190000Y-134210000D03*
X132570000Y-134210000D03*
X135110000Y-134210000D03*
X127490000Y-134210000D03*
X130030000Y-134210000D03*
X122410000Y-134210000D03*
X124950000Y-134210000D03*
X117330000Y-134210000D03*
X119870000Y-134210000D03*
X112250000Y-134210000D03*
X114790000Y-134210000D03*
X107170000Y-134210000D03*
X109710000Y-134210000D03*
X102090000Y-134210000D03*
X104630000Y-134210000D03*
X97010000Y-134210000D03*
X99550000Y-134210000D03*
X91930000Y-134210000D03*
X94470000Y-134210000D03*
X86850000Y-134210000D03*
X89390000Y-134210000D03*
X74150000Y-136750000D03*
X71610000Y-136750000D03*
X69070000Y-136750000D03*
X66530000Y-136750000D03*
X64120000Y-136750000D03*
X61600000Y-136750000D03*
X84310000Y-136750000D03*
X81770000Y-136750000D03*
X79230000Y-136750000D03*
X76690000Y-136750000D03*
X142730000Y-136750000D03*
X145270000Y-136750000D03*
X137650000Y-136750000D03*
X140190000Y-136750000D03*
X132570000Y-136750000D03*
X135110000Y-136750000D03*
X127490000Y-136750000D03*
X130030000Y-136750000D03*
X122410000Y-136750000D03*
X124950000Y-136750000D03*
X117330000Y-136750000D03*
X119870000Y-136750000D03*
X112250000Y-136750000D03*
X114790000Y-136750000D03*
X107170000Y-136750000D03*
X109710000Y-136750000D03*
X102090000Y-136750000D03*
X104630000Y-136750000D03*
X97010000Y-136750000D03*
X99550000Y-136750000D03*
X91930000Y-136750000D03*
X94470000Y-136750000D03*
X86850000Y-136750000D03*
X89390000Y-136750000D03*
X74150000Y-139290000D03*
X71610000Y-139290000D03*
X69070000Y-139290000D03*
X66530000Y-139290000D03*
X64120000Y-139290000D03*
X61600000Y-139290000D03*
X84310000Y-139290000D03*
X81770000Y-139290000D03*
X79230000Y-139290000D03*
X76690000Y-139290000D03*
X142730000Y-139290000D03*
X145270000Y-139290000D03*
X137650000Y-139290000D03*
X140190000Y-139290000D03*
X132570000Y-139290000D03*
X135110000Y-139290000D03*
X127490000Y-139290000D03*
X130030000Y-139290000D03*
X122410000Y-139290000D03*
X124950000Y-139290000D03*
X117330000Y-139290000D03*
X119870000Y-139290000D03*
X112250000Y-139290000D03*
X114790000Y-139290000D03*
X107170000Y-139290000D03*
X109710000Y-139290000D03*
X102090000Y-139290000D03*
X104630000Y-139290000D03*
X97010000Y-139290000D03*
X99550000Y-139290000D03*
X91930000Y-139290000D03*
X94470000Y-139290000D03*
X86850000Y-139290000D03*
X89390000Y-139290000D03*
X74150000Y-141830000D03*
X71610000Y-141830000D03*
X69070000Y-141830000D03*
X66530000Y-141830000D03*
X64120000Y-141830000D03*
X61600000Y-141830000D03*
X84310000Y-141830000D03*
X81770000Y-141830000D03*
X79230000Y-141830000D03*
X76690000Y-141830000D03*
X142730000Y-141830000D03*
X145270000Y-141830000D03*
X137650000Y-141830000D03*
X140190000Y-141830000D03*
X132570000Y-141830000D03*
X135110000Y-141830000D03*
X127490000Y-141830000D03*
X130030000Y-141830000D03*
X122410000Y-141830000D03*
X124950000Y-141830000D03*
X117330000Y-141830000D03*
X119870000Y-141830000D03*
X112250000Y-141830000D03*
X114790000Y-141830000D03*
X107170000Y-141830000D03*
X109710000Y-141830000D03*
X102090000Y-141830000D03*
X104630000Y-141830000D03*
X97010000Y-141830000D03*
X99550000Y-141830000D03*
X91930000Y-141830000D03*
X94470000Y-141830000D03*
X86850000Y-141830000D03*
X89390000Y-141830000D03*
X74150000Y-144370000D03*
X71610000Y-144370000D03*
X69070000Y-144370000D03*
X66530000Y-144370000D03*
X64120000Y-144370000D03*
X61600000Y-144370000D03*
X84310000Y-144370000D03*
X81770000Y-144370000D03*
X79230000Y-144370000D03*
X76690000Y-144370000D03*
X142730000Y-144370000D03*
X145270000Y-144370000D03*
X137650000Y-144370000D03*
X140190000Y-144370000D03*
X132570000Y-144370000D03*
X135110000Y-144370000D03*
X127490000Y-144370000D03*
X130030000Y-144370000D03*
X122410000Y-144370000D03*
X124950000Y-144370000D03*
X117330000Y-144370000D03*
X119870000Y-144370000D03*
X112250000Y-144370000D03*
X114790000Y-144370000D03*
X107170000Y-144370000D03*
X109710000Y-144370000D03*
X102090000Y-144370000D03*
X104630000Y-144370000D03*
X97010000Y-144370000D03*
X99550000Y-144370000D03*
X91930000Y-144370000D03*
X94470000Y-144370000D03*
X86850000Y-144370000D03*
X89390000Y-144370000D03*
X74150000Y-146910000D03*
X71610000Y-146910000D03*
X69070000Y-146910000D03*
X66530000Y-146910000D03*
X64120000Y-146910000D03*
X61600000Y-146910000D03*
X84310000Y-146910000D03*
X81770000Y-146910000D03*
X79230000Y-146910000D03*
X76690000Y-146910000D03*
X142730000Y-146910000D03*
X145270000Y-146910000D03*
X137650000Y-146910000D03*
X140190000Y-146910000D03*
X132570000Y-146910000D03*
X135110000Y-146910000D03*
X127490000Y-146910000D03*
X130030000Y-146910000D03*
X122410000Y-146910000D03*
X124950000Y-146910000D03*
X117330000Y-146910000D03*
X119870000Y-146910000D03*
X112250000Y-146910000D03*
X114790000Y-146910000D03*
X107170000Y-146910000D03*
X109710000Y-146910000D03*
X102090000Y-146910000D03*
X104630000Y-146910000D03*
X97010000Y-146910000D03*
X99550000Y-146910000D03*
X91930000Y-146910000D03*
X94470000Y-146910000D03*
X86850000Y-146910000D03*
X89390000Y-146910000D03*
X74150000Y-149450000D03*
X71610000Y-149450000D03*
X69070000Y-149450000D03*
X66530000Y-149450000D03*
X64120000Y-149450000D03*
X61600000Y-149450000D03*
X84310000Y-149450000D03*
X81770000Y-149450000D03*
X79230000Y-149450000D03*
X76690000Y-149450000D03*
X142730000Y-149450000D03*
X145270000Y-149450000D03*
X137650000Y-149450000D03*
X140190000Y-149450000D03*
X132570000Y-149450000D03*
X135110000Y-149450000D03*
X127490000Y-149450000D03*
X130030000Y-149450000D03*
X122410000Y-149450000D03*
X124950000Y-149450000D03*
X117330000Y-149450000D03*
X119870000Y-149450000D03*
X112250000Y-149450000D03*
X114790000Y-149450000D03*
X107170000Y-149450000D03*
X109710000Y-149450000D03*
X102090000Y-149450000D03*
X104630000Y-149450000D03*
X97010000Y-149450000D03*
X99550000Y-149450000D03*
X91930000Y-149450000D03*
X94470000Y-149450000D03*
X86850000Y-149450000D03*
X89390000Y-149450000D03*
X74150000Y-151990000D03*
X71610000Y-151990000D03*
X69070000Y-151990000D03*
X66530000Y-151990000D03*
X64120000Y-151990000D03*
X61600000Y-151990000D03*
X84310000Y-151990000D03*
X81770000Y-151990000D03*
X79230000Y-151990000D03*
X76690000Y-151990000D03*
X142730000Y-151990000D03*
X145270000Y-151990000D03*
X137650000Y-151990000D03*
X140190000Y-151990000D03*
X132570000Y-151990000D03*
X135110000Y-151990000D03*
X127490000Y-151990000D03*
X130030000Y-151990000D03*
X122410000Y-151990000D03*
X124950000Y-151990000D03*
X117330000Y-151990000D03*
X119870000Y-151990000D03*
X112250000Y-151990000D03*
X114790000Y-151990000D03*
X107170000Y-151990000D03*
X109710000Y-151990000D03*
X102090000Y-151990000D03*
X104630000Y-151990000D03*
X97010000Y-151990000D03*
X99550000Y-151990000D03*
X91930000Y-151990000D03*
X94470000Y-151990000D03*
X86850000Y-151990000D03*
X89390000Y-151990000D03*
X74150000Y-154530000D03*
X71610000Y-154530000D03*
X69070000Y-154530000D03*
X66530000Y-154530000D03*
X64120000Y-154530000D03*
X61600000Y-154530000D03*
X84310000Y-154530000D03*
X81770000Y-154530000D03*
X79230000Y-154530000D03*
X76690000Y-154530000D03*
X142730000Y-154530000D03*
X145270000Y-154530000D03*
X137650000Y-154530000D03*
X140190000Y-154530000D03*
X132570000Y-154530000D03*
X135110000Y-154530000D03*
X127490000Y-154530000D03*
X130030000Y-154530000D03*
X122410000Y-154530000D03*
X124950000Y-154530000D03*
X117330000Y-154530000D03*
X119870000Y-154530000D03*
X112250000Y-154530000D03*
X114790000Y-154530000D03*
X107170000Y-154530000D03*
X109710000Y-154530000D03*
X102090000Y-154530000D03*
X104630000Y-154530000D03*
X97010000Y-154530000D03*
X99550000Y-154530000D03*
X91930000Y-154530000D03*
X94470000Y-154530000D03*
X86850000Y-154530000D03*
X89390000Y-154530000D03*
D13*
%TO.N,+5V*%
X58910000Y-88490000D03*
X58910000Y-91030000D03*
X58910000Y-93570000D03*
X58910000Y-96110000D03*
X58910000Y-98650000D03*
X58910000Y-101190000D03*
X58910000Y-103730000D03*
X58910000Y-106270000D03*
X58910000Y-108810000D03*
X58910000Y-111350000D03*
X58910000Y-113890000D03*
X58910000Y-116430000D03*
X58910000Y-118970000D03*
X58910000Y-121510000D03*
X58910000Y-124050000D03*
X58910000Y-126590000D03*
X58910000Y-129130000D03*
X58910000Y-131670000D03*
X58910000Y-67890000D03*
X58910000Y-70710000D03*
X58910000Y-73250000D03*
X58910000Y-75790000D03*
X58910000Y-78330000D03*
X58910000Y-80870000D03*
X58910000Y-83410000D03*
X58910000Y-85950000D03*
X58910000Y-134210000D03*
X58910000Y-136750000D03*
X58910000Y-139290000D03*
X58910000Y-141830000D03*
X58910000Y-144370000D03*
X58910000Y-146910000D03*
X58910000Y-149450000D03*
X58910000Y-151990000D03*
X58910000Y-154530000D03*
%TO.N,GND*%
X150350000Y-96110000D03*
X150350000Y-98650000D03*
X150350000Y-101190000D03*
X150350000Y-103730000D03*
X150350000Y-106270000D03*
X150350000Y-108810000D03*
X150350000Y-111350000D03*
X150350000Y-113890000D03*
X150350000Y-116430000D03*
X150350000Y-118970000D03*
X150350000Y-121510000D03*
X150350000Y-124050000D03*
X150350000Y-80870000D03*
X150350000Y-83410000D03*
X150350000Y-85950000D03*
X150350000Y-88490000D03*
X150350000Y-91030000D03*
X150350000Y-93570000D03*
X150350000Y-68170000D03*
X150350000Y-70710000D03*
X150350000Y-73250000D03*
X150350000Y-75790000D03*
X150350000Y-78330000D03*
X150350000Y-126590000D03*
X150350000Y-129130000D03*
X150350000Y-131670000D03*
X150350000Y-134210000D03*
X150350000Y-136750000D03*
X150350000Y-139290000D03*
X150350000Y-141830000D03*
X150350000Y-144370000D03*
X150350000Y-146910000D03*
X150350000Y-149450000D03*
X150350000Y-151990000D03*
X150350000Y-154530000D03*
%TD*%
D14*
%TO.N,+5V*%
X58910000Y-67890000D02*
X58910000Y-65260000D01*
X58910000Y-65260000D02*
X58940000Y-65230000D01*
X58910000Y-67890000D02*
X58910000Y-70710000D01*
X58910000Y-78330000D02*
X58910000Y-80870000D01*
X58910000Y-75790000D02*
X58910000Y-78330000D01*
X58910000Y-73250000D02*
X58910000Y-75790000D01*
X58940000Y-62690000D02*
X58940000Y-65230000D01*
X58940000Y-65370000D02*
X59080000Y-65230000D01*
X58940000Y-60150000D02*
X58940000Y-57610000D01*
X58940000Y-62690000D02*
X58940000Y-60150000D01*
X58940000Y-57610000D02*
X58940000Y-55070000D01*
%TO.N,GND*%
X150370000Y-68150000D02*
X150350000Y-68170000D01*
X150370000Y-65420000D02*
X150370000Y-68150000D01*
X150370000Y-65420000D02*
X150370000Y-62880000D01*
X150370000Y-62880000D02*
X150370000Y-60340000D01*
X150370000Y-60340000D02*
X150370000Y-57800000D01*
X150370000Y-57800000D02*
X150370000Y-55260000D01*
D15*
%TO.N,N$39*%
X90800000Y-173580000D02*
X91930000Y-174710000D01*
X90800000Y-165960000D02*
X90800000Y-173580000D01*
X92070000Y-162150000D02*
X92070000Y-164690000D01*
X91930000Y-174710000D02*
X91930000Y-178533000D01*
X91930000Y-162150000D02*
X92070000Y-162150000D01*
X92070000Y-164690000D02*
X90800000Y-165960000D01*
%TO.N,N$42*%
X98420000Y-173580000D02*
X99550000Y-174710000D01*
X98420000Y-165960000D02*
X98420000Y-173580000D01*
X99550000Y-164830000D02*
X98420000Y-165960000D01*
X99550000Y-174710000D02*
X99550000Y-178533000D01*
X99550000Y-162150000D02*
X99550000Y-164830000D01*
%TO.N,N$43*%
X100960000Y-173580000D02*
X102090000Y-174710000D01*
X102090000Y-174710000D02*
X102090000Y-178533000D01*
X100960000Y-165960000D02*
X100960000Y-173580000D01*
X102090000Y-164830000D02*
X100960000Y-165960000D01*
X102090000Y-162150000D02*
X102090000Y-164830000D01*
%TO.N,N$44*%
X104630000Y-174710000D02*
X104630000Y-178533000D01*
X103500000Y-173580000D02*
X104630000Y-174710000D01*
X103500000Y-165960000D02*
X103500000Y-173580000D01*
X104630000Y-164830000D02*
X103500000Y-165960000D01*
X104630000Y-162150000D02*
X104630000Y-164830000D01*
%TO.N,N$45*%
X106040000Y-173580000D02*
X107170000Y-174710000D01*
X107170000Y-174710000D02*
X107170000Y-178533000D01*
X107170000Y-164830000D02*
X106040000Y-165960000D01*
X107170000Y-162150000D02*
X107170000Y-164830000D01*
X106040000Y-165960000D02*
X106040000Y-173580000D01*
%TO.N,N$46*%
X108580000Y-173580000D02*
X109710000Y-174710000D01*
X108580000Y-165960000D02*
X108580000Y-173580000D01*
X109710000Y-164830000D02*
X108580000Y-165960000D01*
X109710000Y-162150000D02*
X109710000Y-164830000D01*
X109710000Y-174710000D02*
X109710000Y-178533000D01*
%TO.N,N$48*%
X113660000Y-173580000D02*
X114790000Y-174710000D01*
X113660000Y-165960000D02*
X113660000Y-173580000D01*
X114790000Y-164830000D02*
X113660000Y-165960000D01*
X114790000Y-174710000D02*
X114790000Y-178533000D01*
X114790000Y-162150000D02*
X114790000Y-164830000D01*
%TO.N,N$47*%
X111120000Y-173580000D02*
X112250000Y-174710000D01*
X111120000Y-165960000D02*
X111120000Y-173580000D01*
X112250000Y-174710000D02*
X112250000Y-178533000D01*
X112250000Y-164830000D02*
X111120000Y-165960000D01*
X112250000Y-162150000D02*
X112250000Y-164830000D01*
%TO.N,N$41*%
X97010000Y-174710000D02*
X97010000Y-178533000D01*
X95880000Y-173580000D02*
X97010000Y-174710000D01*
X97010000Y-164830000D02*
X95880000Y-165960000D01*
X97010000Y-162150000D02*
X97010000Y-164830000D01*
X95880000Y-165960000D02*
X95880000Y-173580000D01*
%TO.N,N$40*%
X94470000Y-174710000D02*
X94470000Y-178533000D01*
X93340000Y-173580000D02*
X94470000Y-174710000D01*
X93340000Y-165960000D02*
X93340000Y-173580000D01*
X94610000Y-164690000D02*
X93340000Y-165960000D01*
X94610000Y-162150000D02*
X94610000Y-164690000D01*
X94470000Y-162150000D02*
X94610000Y-162150000D01*
%TO.N,N$34*%
X78100000Y-173580000D02*
X79230000Y-174710000D01*
X78100000Y-165960000D02*
X78100000Y-173580000D01*
X79370000Y-164690000D02*
X78100000Y-165960000D01*
X79230000Y-162150000D02*
X79370000Y-162150000D01*
X79370000Y-162150000D02*
X79370000Y-164690000D01*
X79230000Y-174710000D02*
X79230000Y-178533000D01*
D16*
%TO.N,+5V*%
X81770000Y-174788212D02*
X81770000Y-178533000D01*
X80995894Y-174014106D02*
X81770000Y-174788212D01*
X80995894Y-174014106D02*
X80513000Y-173580000D01*
X84310000Y-174774910D02*
X84310000Y-178533000D01*
X83667545Y-174132455D02*
X84310000Y-174774910D01*
X83667545Y-174132455D02*
X83053000Y-173580000D01*
%TO.N,GND*%
X85593000Y-173037000D02*
X86850000Y-174294000D01*
X86850000Y-174294000D02*
X86850000Y-178533000D01*
X85593000Y-173037000D02*
X85593000Y-165960000D01*
X88120000Y-173100000D02*
X89390000Y-174370000D01*
X89390000Y-174370000D02*
X89390000Y-178533000D01*
X88120000Y-173100000D02*
X88120000Y-165960000D01*
D15*
%TO.N,N$304*%
X125090000Y-178393000D02*
X124950000Y-178533000D01*
X125090000Y-174850000D02*
X125090000Y-178393000D01*
X123820000Y-173580000D02*
X125090000Y-174850000D01*
X123820000Y-165960000D02*
X123820000Y-173580000D01*
X125090000Y-164690000D02*
X123820000Y-165960000D01*
X125090000Y-162150000D02*
X125090000Y-164690000D01*
X124950000Y-162150000D02*
X125090000Y-162150000D01*
%TO.N,N$303*%
X122550000Y-178393000D02*
X122410000Y-178533000D01*
X122550000Y-174850000D02*
X122550000Y-178393000D01*
X121280000Y-173580000D02*
X122550000Y-174850000D01*
X121280000Y-165960000D02*
X121280000Y-173580000D01*
X122410000Y-164830000D02*
X121280000Y-165960000D01*
X122410000Y-162150000D02*
X122410000Y-164830000D01*
%TO.N,N$302*%
X120010000Y-178393000D02*
X119870000Y-178533000D01*
X120010000Y-174850000D02*
X120010000Y-178393000D01*
X118740000Y-173580000D02*
X120010000Y-174850000D01*
X118740000Y-165960000D02*
X118740000Y-173580000D01*
X119870000Y-164830000D02*
X118740000Y-165960000D01*
X119870000Y-162150000D02*
X119870000Y-164830000D01*
%TO.N,N$49*%
X117470000Y-178393000D02*
X117330000Y-178533000D01*
X117470000Y-174850000D02*
X117470000Y-178393000D01*
X116200000Y-173580000D02*
X117470000Y-174850000D01*
X116200000Y-165960000D02*
X116200000Y-173580000D01*
X117330000Y-164830000D02*
X116200000Y-165960000D01*
X117330000Y-162150000D02*
X117330000Y-164830000D01*
D14*
%TO.N,+5V*%
X58910000Y-73250000D02*
X58910000Y-70710000D01*
X58910000Y-78470000D02*
X59050000Y-78330000D01*
X58910000Y-80870000D02*
X58910000Y-78470000D01*
X59050000Y-80870000D02*
X58910000Y-80870000D01*
X58910000Y-81010000D02*
X59050000Y-80870000D01*
X58910000Y-83410000D02*
X58910000Y-81010000D01*
X58910000Y-85950000D02*
X58910000Y-83410000D01*
X58910000Y-88490000D02*
X58910000Y-85950000D01*
X58910000Y-91030000D02*
X58910000Y-88490000D01*
X58910000Y-93570000D02*
X58910000Y-91030000D01*
X58910000Y-96110000D02*
X58910000Y-93570000D01*
X58910000Y-98650000D02*
X58910000Y-96110000D01*
X58910000Y-98790000D02*
X59050000Y-98650000D01*
X58910000Y-101190000D02*
X58910000Y-98790000D01*
X58910000Y-103730000D02*
X58910000Y-101190000D01*
X58910000Y-106270000D02*
X58910000Y-103730000D01*
X58910000Y-108810000D02*
X58910000Y-106270000D01*
X58910000Y-111350000D02*
X58910000Y-108810000D01*
X58910000Y-113890000D02*
X58910000Y-111350000D01*
X58910000Y-116430000D02*
X58910000Y-113890000D01*
X58910000Y-118970000D02*
X58910000Y-116430000D01*
X58910000Y-121510000D02*
X58910000Y-118970000D01*
X58910000Y-124050000D02*
X58910000Y-121510000D01*
X58910000Y-126590000D02*
X58910000Y-124050000D01*
X58910000Y-129130000D02*
X58910000Y-126590000D01*
X58910000Y-131670000D02*
X58910000Y-129130000D01*
X59050000Y-131670000D02*
X58910000Y-131670000D01*
X58910000Y-131810000D02*
X59050000Y-131670000D01*
X58910000Y-134210000D02*
X58910000Y-131810000D01*
X58910000Y-136750000D02*
X58910000Y-134210000D01*
X58910000Y-139290000D02*
X58910000Y-136750000D01*
X58910000Y-141830000D02*
X58910000Y-139290000D01*
X58910000Y-144370000D02*
X58910000Y-141830000D01*
X58910000Y-146910000D02*
X58910000Y-144370000D01*
X58910000Y-149450000D02*
X58910000Y-146910000D01*
X58910000Y-151990000D02*
X58910000Y-149450000D01*
X58910000Y-154530000D02*
X58910000Y-151990000D01*
X61450000Y-157070000D02*
X58910000Y-154530000D01*
X78100000Y-157070000D02*
X61450000Y-157070000D01*
X81770000Y-160740000D02*
X78100000Y-157070000D01*
X81770000Y-162150000D02*
X81770000Y-160740000D01*
D16*
X81910000Y-162150000D02*
X84310000Y-162150000D01*
X81910000Y-162290000D02*
X81910000Y-162150000D01*
X84450000Y-162290000D02*
X84310000Y-162150000D01*
X84450000Y-164690000D02*
X84450000Y-162290000D01*
X83053000Y-165960000D02*
X84450000Y-164690000D01*
X83053000Y-173580000D02*
X83053000Y-165960000D01*
X81910000Y-162290000D02*
X81770000Y-162150000D01*
X81910000Y-164690000D02*
X81910000Y-162290000D01*
X80513000Y-165960000D02*
X81910000Y-164690000D01*
X80513000Y-173580000D02*
X80513000Y-165960000D01*
D15*
%TO.N,N$33*%
X127630000Y-178393000D02*
X127490000Y-178533000D01*
X127630000Y-174850000D02*
X127630000Y-178393000D01*
X126360000Y-173580000D02*
X127630000Y-174850000D01*
X126360000Y-165960000D02*
X126360000Y-173580000D01*
X127490000Y-164830000D02*
X126360000Y-165960000D01*
X127490000Y-162150000D02*
X127490000Y-164830000D01*
%TO.N,N$32*%
X130170000Y-178393000D02*
X130030000Y-178533000D01*
X130170000Y-174850000D02*
X130170000Y-178393000D01*
X128900000Y-173580000D02*
X130170000Y-174850000D01*
X128900000Y-165960000D02*
X128900000Y-173580000D01*
X130030000Y-164830000D02*
X128900000Y-165960000D01*
X130030000Y-162150000D02*
X130030000Y-164830000D01*
%TO.N,N$31*%
X132710000Y-178393000D02*
X132570000Y-178533000D01*
X132710000Y-174850000D02*
X132710000Y-178393000D01*
X131440000Y-173580000D02*
X132710000Y-174850000D01*
X131440000Y-165960000D02*
X131440000Y-173580000D01*
X132710000Y-164690000D02*
X131440000Y-165960000D01*
X132710000Y-162150000D02*
X132710000Y-164690000D01*
X132570000Y-162150000D02*
X132710000Y-162150000D01*
%TO.N,N$30*%
X135250000Y-162290000D02*
X135110000Y-162150000D01*
X135250000Y-164690000D02*
X135250000Y-162290000D01*
X133980000Y-165960000D02*
X135250000Y-164690000D01*
X133980000Y-173580000D02*
X133980000Y-165960000D01*
X135110000Y-174710000D02*
X133980000Y-173580000D01*
X135110000Y-178533000D02*
X135110000Y-174710000D01*
%TO.N,N$29*%
X137790000Y-178393000D02*
X137650000Y-178533000D01*
X137790000Y-174850000D02*
X137790000Y-178393000D01*
X136520000Y-173580000D02*
X137790000Y-174850000D01*
X136520000Y-165960000D02*
X136520000Y-173580000D01*
X137790000Y-164690000D02*
X136520000Y-165960000D01*
X137790000Y-162150000D02*
X137790000Y-164690000D01*
X137650000Y-162150000D02*
X137790000Y-162150000D01*
%TO.N,N$28*%
X140330000Y-178393000D02*
X140190000Y-178533000D01*
X140330000Y-174850000D02*
X140330000Y-178393000D01*
X139060000Y-173580000D02*
X140330000Y-174850000D01*
X139060000Y-165960000D02*
X139060000Y-173580000D01*
X140330000Y-164690000D02*
X139060000Y-165960000D01*
X140330000Y-162150000D02*
X140330000Y-164690000D01*
X140190000Y-162150000D02*
X140330000Y-162150000D01*
D16*
%TO.N,GND*%
X89530000Y-162290000D02*
X89390000Y-162150000D01*
X89530000Y-164690000D02*
X89530000Y-162290000D01*
X88120000Y-165960000D02*
X89530000Y-164690000D01*
D14*
X150350000Y-70710000D02*
X150350000Y-68170000D01*
X150350000Y-73250000D02*
X150350000Y-70710000D01*
X150350000Y-75790000D02*
X150350000Y-73250000D01*
X150350000Y-78330000D02*
X150350000Y-75790000D01*
X150350000Y-80870000D02*
X150350000Y-78330000D01*
X150350000Y-83410000D02*
X150350000Y-80870000D01*
X150350000Y-85950000D02*
X150350000Y-83410000D01*
X150350000Y-88490000D02*
X150350000Y-85950000D01*
X150350000Y-91030000D02*
X150350000Y-88490000D01*
X150350000Y-93570000D02*
X150350000Y-91030000D01*
X150350000Y-96110000D02*
X150350000Y-93570000D01*
X150350000Y-98650000D02*
X150350000Y-96110000D01*
X150350000Y-101190000D02*
X150350000Y-98650000D01*
X150350000Y-103730000D02*
X150350000Y-101190000D01*
X150350000Y-106270000D02*
X150350000Y-103730000D01*
X150350000Y-108810000D02*
X150350000Y-106270000D01*
X150350000Y-111350000D02*
X150350000Y-108810000D01*
X150350000Y-113890000D02*
X150350000Y-111350000D01*
X150350000Y-116430000D02*
X150350000Y-113890000D01*
X150350000Y-118970000D02*
X150350000Y-116430000D01*
X150350000Y-121510000D02*
X150350000Y-118970000D01*
X150350000Y-124050000D02*
X150350000Y-121510000D01*
X150350000Y-126590000D02*
X150350000Y-124050000D01*
X150350000Y-129130000D02*
X150350000Y-126590000D01*
X150350000Y-131670000D02*
X150350000Y-129130000D01*
X150350000Y-134210000D02*
X150350000Y-131670000D01*
X150350000Y-136750000D02*
X150350000Y-134210000D01*
X150350000Y-139290000D02*
X150350000Y-136750000D01*
X150350000Y-141830000D02*
X150350000Y-139290000D01*
X150350000Y-144370000D02*
X150350000Y-141830000D01*
X150350000Y-146910000D02*
X150350000Y-144370000D01*
X150350000Y-149450000D02*
X150350000Y-146910000D01*
X150350000Y-151990000D02*
X150350000Y-149450000D01*
X150350000Y-154530000D02*
X150350000Y-151990000D01*
X147810000Y-157070000D02*
X150350000Y-154530000D01*
X93340000Y-157070000D02*
X147810000Y-157070000D01*
X89390000Y-161020000D02*
X93340000Y-157070000D01*
X89390000Y-162150000D02*
X89390000Y-161020000D01*
D16*
X86990000Y-162290000D02*
X86850000Y-162150000D01*
X86990000Y-164690000D02*
X86990000Y-162290000D01*
X85593000Y-165960000D02*
X86990000Y-164690000D01*
D14*
X86850000Y-162150000D02*
X89390000Y-162150000D01*
%TD*%
M02*
