M48
; DRILL file {KiCad (6.0.0)} date Thu Aug 25 16:51:30 2022
; FORMAT={-:-/ absolute / inch / decimal}
; #@! TF.CreationDate,2022-08-25T16:51:30-03:00
; #@! TF.GenerationSoftware,Kicad,Pcbnew,(6.0.0)
; #@! TF.FileFunction,Plated,1,2,PTH
FMAT,2
INCH
; #@! TA.AperFunction,Plated,PTH,ViaDrill
T1C0.0300
; #@! TA.AperFunction,Plated,PTH,ComponentDrill
T2C0.0320
; #@! TA.AperFunction,Plated,PTH,ViaDrill
T3C0.0350
%
G90
G05
T1
X2.4224Y-2.8194
X2.4236Y-2.2008
X2.4236Y-2.3044
X2.4236Y-2.4028
X2.4236Y-2.9312
X2.4244Y-2.7047
X2.4244Y-3.2638
X2.4248Y-2.1126
X2.4252Y-3.4673
X2.4252Y-4.2839
X2.4252Y-4.3839
X2.4252Y-4.4839
X2.4252Y-4.5839
X2.4252Y-4.6839
X2.4252Y-4.7839
X2.4252Y-4.8839
X2.4252Y-4.9839
X2.4252Y-5.0839
X2.4252Y-5.1839
X2.4252Y-5.2839
X2.4252Y-5.3839
X2.4252Y-5.4839
X2.4252Y-5.5839
X2.4252Y-5.6839
X2.4252Y-5.7839
X2.4252Y-5.8839
X2.4252Y-5.9839
X2.4252Y-6.0839
X2.4256Y-3.3661
X2.426Y-3.0374
X2.426Y-3.152
X2.4264Y-2.498
X2.4264Y-3.5811
X2.4264Y-3.6811
X2.4264Y-3.7811
X2.4268Y-3.8843
X2.4268Y-3.9843
X2.4268Y-4.0843
X2.4268Y-4.1843
X2.428Y-2.5996
X2.5232Y-2.8193
X2.524Y-2.9287
X2.5244Y-4.2839
X2.5244Y-4.3839
X2.5244Y-4.4839
X2.5244Y-4.5839
X2.5244Y-4.6839
X2.5244Y-4.7839
X2.5244Y-4.8839
X2.5244Y-4.9839
X2.5244Y-5.0839
X2.5244Y-5.1839
X2.5244Y-5.2839
X2.5244Y-5.3839
X2.5244Y-5.4839
X2.5244Y-5.5839
X2.5244Y-5.6839
X2.5244Y-5.7839
X2.5244Y-5.8839
X2.5244Y-5.9839
X2.5244Y-6.0839
X2.5248Y-2.7063
X2.5256Y-3.2606
X2.526Y-4.1843
X2.5264Y-3.0366
X2.5268Y-2.4972
X2.5272Y-3.7803
X2.5276Y-3.8835
X2.5276Y-3.9835
X2.5276Y-4.0835
X2.528Y-2.5988
X2.5287Y-2.2984
X2.5287Y-2.4
X2.5291Y-3.3654
X2.5295Y-3.1496
X2.5299Y-3.5783
X2.5299Y-3.6803
X2.5303Y-2.2
X2.5303Y-3.4724
X2.5331Y-2.1114
X2.6193Y-4.2839
X2.6193Y-4.3839
X2.6193Y-4.4839
X2.6193Y-4.5839
X2.6193Y-4.6839
X2.6193Y-4.7839
X2.6193Y-4.8839
X2.6193Y-4.9839
X2.6193Y-5.0839
X2.6193Y-5.1839
X2.6193Y-5.2839
X2.6193Y-5.3839
X2.6193Y-5.4839
X2.6193Y-5.5839
X2.6193Y-5.6839
X2.6193Y-5.7839
X2.6193Y-5.8839
X2.6193Y-5.9839
X2.6193Y-6.0839
X2.6209Y-4.1843
X2.6236Y-2.8193
X2.6244Y-2.9287
X2.6252Y-2.7063
X2.6264Y-3.2606
X2.6264Y-3.3654
X2.6268Y-2.4972
X2.6268Y-3.0366
X2.6268Y-3.1512
X2.6272Y-3.5803
X2.6272Y-3.6803
X2.6272Y-3.7803
X2.6276Y-3.4724
X2.6276Y-3.8835
X2.6276Y-3.9835
X2.6276Y-4.0835
X2.6283Y-2.5988
X2.6287Y-2.2984
X2.6287Y-2.4
X2.6303Y-2.2
X2.6327Y-2.1114
X2.7193Y-4.2839
X2.7193Y-4.3839
X2.7193Y-4.4839
X2.7193Y-4.5839
X2.7193Y-4.6839
X2.7193Y-4.7839
X2.7193Y-4.8839
X2.7193Y-4.9839
X2.7193Y-5.0839
X2.7193Y-5.1839
X2.7193Y-5.2839
X2.7193Y-5.3839
X2.7193Y-5.4839
X2.7193Y-5.5839
X2.7193Y-5.6839
X2.7193Y-5.7839
X2.7193Y-5.8839
X2.7193Y-5.9839
X2.7193Y-6.0839
X2.7209Y-4.1843
X2.7224Y-2.8193
X2.7232Y-2.9287
X2.724Y-2.7063
X2.7252Y-3.2606
X2.7252Y-3.3654
X2.7256Y-3.0366
X2.7256Y-3.1512
X2.726Y-3.5772
X2.726Y-3.6803
X2.7264Y-3.4724
X2.7268Y-2.4972
X2.7272Y-2.5988
X2.7272Y-3.7803
X2.7276Y-3.8835
X2.7276Y-3.9835
X2.7276Y-4.0835
X2.7287Y-2.2984
X2.7287Y-2.4
X2.7303Y-2.2
X2.7315Y-2.1118
X2.8193Y-4.2839
X2.8193Y-4.3839
X2.8193Y-4.4839
X2.8193Y-4.5839
X2.8193Y-4.6839
X2.8193Y-4.7839
X2.8193Y-4.8839
X2.8193Y-4.9839
X2.8193Y-5.0839
X2.8193Y-5.1839
X2.8193Y-5.2839
X2.8193Y-5.3839
X2.8193Y-5.4839
X2.8193Y-5.5839
X2.8193Y-5.6839
X2.8193Y-5.7839
X2.8193Y-5.8839
X2.8193Y-5.9839
X2.8193Y-6.0839
X2.8209Y-4.1843
X2.8252Y-3.7835
X2.8276Y-3.8835
X2.8276Y-3.9835
X2.8276Y-4.0835
X2.8346Y-2.2
X2.8354Y-2.2984
X2.8358Y-2.1118
X2.9193Y-4.2839
X2.9193Y-4.3839
X2.9193Y-4.4839
X2.9193Y-4.5839
X2.9193Y-4.6839
X2.9193Y-4.7839
X2.9193Y-4.8839
X2.9193Y-4.9839
X2.9193Y-5.0839
X2.9193Y-5.1839
X2.9193Y-5.2839
X2.9193Y-5.3839
X2.9193Y-5.4839
X2.9193Y-5.5839
X2.9193Y-5.6839
X2.9193Y-5.7839
X2.9193Y-5.8839
X2.9193Y-5.9839
X2.9193Y-6.0839
X2.9209Y-4.1843
X2.9264Y-3.7882
X2.9276Y-3.8858
X2.9276Y-3.9858
X2.9276Y-4.0858
X2.9339Y-2.2
X2.9346Y-2.2984
X2.935Y-2.1118
X3.0193Y-4.2839
X3.0193Y-4.3831
X3.0193Y-4.4831
X3.0193Y-4.5831
X3.0193Y-4.6831
X3.0193Y-4.7831
X3.0193Y-4.8839
X3.0193Y-4.9839
X3.0193Y-5.0839
X3.0193Y-5.1839
X3.0193Y-5.2839
X3.0193Y-5.3839
X3.0193Y-5.4839
X3.0193Y-5.5839
X3.0193Y-5.6839
X3.0193Y-5.7839
X3.0193Y-5.8839
X3.0193Y-5.9839
X3.0193Y-6.0839
X3.0209Y-4.1843
X3.0319Y-3.889
X3.0319Y-3.989
X3.0319Y-4.089
X3.0339Y-2.2
X3.0346Y-2.2984
X3.035Y-2.1118
X3.1193Y-4.2839
X3.1193Y-4.3831
X3.1193Y-4.7831
X3.1193Y-4.8839
X3.1193Y-4.9839
X3.1193Y-5.0839
X3.1193Y-5.1839
X3.1193Y-5.2839
X3.1193Y-5.3839
X3.1193Y-5.4839
X3.1193Y-5.5839
X3.1193Y-5.6839
X3.1193Y-5.7839
X3.1193Y-5.8839
X3.1193Y-5.9839
X3.1193Y-6.0839
X3.1209Y-4.1843
X3.1339Y-2.2
X3.1346Y-2.2984
X3.135Y-2.1118
X3.1449Y-3.889
X3.1449Y-3.989
X3.1449Y-4.089
X3.2193Y-4.2839
X3.2193Y-4.3831
X3.2193Y-4.7831
X3.2193Y-4.8839
X3.2193Y-4.9839
X3.2193Y-5.0839
X3.2193Y-5.1839
X3.2193Y-5.2839
X3.2193Y-5.3839
X3.2193Y-5.4839
X3.2193Y-5.5839
X3.2193Y-5.6839
X3.2193Y-5.7839
X3.2193Y-5.8839
X3.2193Y-5.9839
X3.2193Y-6.0839
X3.2209Y-4.1843
X3.235Y-2.1118
X3.2394Y-2.2
X3.2398Y-2.2984
X3.2567Y-3.889
X3.2567Y-3.989
X3.2567Y-4.089
X3.3193Y-4.2839
X3.3193Y-4.3831
X3.3193Y-4.7831
X3.3193Y-4.8839
X3.3193Y-4.9839
X3.3193Y-5.0839
X3.3193Y-5.1839
X3.3193Y-5.2839
X3.3193Y-5.3839
X3.3193Y-5.4839
X3.3193Y-5.5839
X3.3193Y-5.6839
X3.3193Y-5.7839
X3.3193Y-5.8839
X3.3193Y-5.9839
X3.3193Y-6.0839
X3.3209Y-4.1843
X3.3413Y-2.2
X3.3421Y-2.2984
X3.3425Y-2.1118
X3.3614Y-3.8874
X3.3614Y-3.9874
X3.3614Y-4.0874
X3.4193Y-4.2839
X3.4193Y-4.3831
X3.4193Y-4.7831
X3.4193Y-4.8839
X3.4193Y-4.9839
X3.4193Y-5.0839
X3.4193Y-5.1839
X3.4193Y-5.2839
X3.4193Y-5.3839
X3.4193Y-5.4839
X3.4193Y-5.5839
X3.4193Y-5.6839
X3.4193Y-5.7839
X3.4193Y-5.8839
X3.4193Y-5.9839
X3.4193Y-6.0839
X3.4209Y-4.1843
X3.4457Y-2.1996
X3.4465Y-2.298
X3.4469Y-2.1114
X3.4736Y-4.0819
X3.4748Y-3.8878
X3.4748Y-3.9878
X3.5193Y-4.2839
X3.5193Y-4.3831
X3.5193Y-4.4831
X3.5193Y-4.5831
X3.5193Y-4.6831
X3.5193Y-4.7831
X3.5193Y-4.8839
X3.5193Y-4.9839
X3.5193Y-5.0839
X3.5193Y-5.1839
X3.5193Y-5.2839
X3.5193Y-5.3839
X3.5193Y-5.4839
X3.5193Y-5.5839
X3.5193Y-5.6839
X3.5193Y-5.7839
X3.5193Y-5.8839
X3.5193Y-5.9839
X3.5193Y-6.0839
X3.5209Y-4.1843
X3.5516Y-2.1988
X3.5524Y-2.2972
X3.5528Y-2.1106
X3.5827Y-3.887
X3.5827Y-3.987
X3.5839Y-4.0831
X3.6189Y-4.3858
X3.6189Y-4.4858
X3.6189Y-4.5858
X3.6189Y-4.6858
X3.6189Y-4.7858
X3.6193Y-4.2839
X3.6193Y-4.8839
X3.6193Y-4.9839
X3.6193Y-5.0839
X3.6193Y-5.1839
X3.6193Y-5.2839
X3.6193Y-5.3839
X3.6193Y-5.4839
X3.6193Y-5.5839
X3.6193Y-5.6839
X3.6193Y-5.7839
X3.6193Y-5.8839
X3.6193Y-5.9839
X3.6193Y-6.0839
X3.6209Y-4.1843
X3.6575Y-2.2
X3.6583Y-2.2984
X3.6587Y-2.1118
X3.6894Y-3.8866
X3.6894Y-3.9866
X3.6909Y-4.085
X3.7189Y-4.3858
X3.7189Y-4.4858
X3.7189Y-4.5858
X3.7189Y-4.6858
X3.7189Y-4.7858
X3.7193Y-4.2839
X3.7193Y-4.8839
X3.7193Y-4.9839
X3.7193Y-5.0839
X3.7193Y-5.1839
X3.7193Y-5.2839
X3.7193Y-5.3839
X3.7193Y-5.4839
X3.7193Y-5.5839
X3.7193Y-5.6839
X3.7193Y-5.7839
X3.7193Y-5.8839
X3.7193Y-5.9839
X3.7193Y-6.0839
X3.7209Y-4.1843
X3.7634Y-2.198
X3.7642Y-2.2965
X3.7646Y-2.1098
X3.8051Y-4.0878
X3.8059Y-3.8866
X3.8059Y-3.9866
X3.8193Y-4.2839
X3.8193Y-4.3839
X3.8193Y-4.4839
X3.8193Y-4.5839
X3.8193Y-4.6839
X3.8193Y-4.7839
X3.8193Y-4.8839
X3.8193Y-4.9839
X3.8193Y-5.0839
X3.8193Y-5.1839
X3.8193Y-5.2839
X3.8193Y-5.3839
X3.8193Y-5.4839
X3.8193Y-5.5839
X3.8193Y-5.6839
X3.8193Y-5.7839
X3.8193Y-5.8839
X3.8193Y-5.9839
X3.8193Y-6.0839
X3.8209Y-4.1843
X3.8705Y-2.198
X3.8713Y-2.2965
X3.8717Y-2.1098
X3.9173Y-4.0866
X3.9181Y-3.8874
X3.9181Y-3.9874
X3.9193Y-4.2839
X3.9193Y-4.9839
X3.9193Y-5.0839
X3.9193Y-5.1839
X3.9193Y-5.2839
X3.9193Y-5.3839
X3.9193Y-5.4839
X3.9193Y-5.5839
X3.9193Y-5.6839
X3.9193Y-5.7839
X3.9193Y-5.8839
X3.9193Y-5.9839
X3.9193Y-6.0839
X3.9209Y-4.1843
X3.9776Y-2.1976
X3.9783Y-2.2961
X3.9787Y-2.1094
X4.0193Y-4.2839
X4.0193Y-4.9839
X4.0193Y-5.0839
X4.0193Y-5.1839
X4.0193Y-5.2839
X4.0193Y-5.3839
X4.0193Y-5.4839
X4.0193Y-5.5839
X4.0193Y-5.6839
X4.0193Y-5.7839
X4.0193Y-5.8839
X4.0193Y-5.9839
X4.0193Y-6.0839
X4.0209Y-4.1843
X4.0287Y-3.8874
X4.0287Y-3.9874
X4.0295Y-4.0925
X4.0846Y-2.1976
X4.0854Y-2.2961
X4.0858Y-2.1094
X4.1193Y-4.2839
X4.1193Y-4.9839
X4.1193Y-5.0839
X4.1193Y-5.1839
X4.1193Y-5.2839
X4.1193Y-5.3839
X4.1193Y-5.4839
X4.1193Y-5.5839
X4.1193Y-5.6839
X4.1193Y-5.7839
X4.1193Y-5.8839
X4.1193Y-5.9839
X4.1193Y-6.0839
X4.1209Y-4.1843
X4.1287Y-3.887
X4.1287Y-3.987
X4.1295Y-4.0925
X4.2165Y-2.1941
X4.2173Y-2.2925
X4.2177Y-2.1059
X4.2193Y-4.9839
X4.2193Y-5.0839
X4.2193Y-5.1839
X4.2193Y-5.2839
X4.2193Y-5.3839
X4.2193Y-5.4839
X4.2193Y-5.5839
X4.2193Y-5.6839
X4.2193Y-5.7839
X4.2193Y-5.8839
X4.2193Y-5.9839
X4.2193Y-6.0839
X4.2295Y-3.8819
X4.2295Y-3.9819
X4.2295Y-4.087
X4.2295Y-4.1843
X4.2295Y-4.2839
X4.3193Y-4.2839
X4.3193Y-4.9839
X4.3193Y-5.0839
X4.3193Y-5.1839
X4.3193Y-5.2839
X4.3193Y-5.3839
X4.3193Y-5.4839
X4.3193Y-5.5839
X4.3193Y-5.6839
X4.3193Y-5.7839
X4.3193Y-5.8839
X4.3193Y-5.9839
X4.3193Y-6.0839
X4.3209Y-4.1843
X4.3252Y-3.0122
X4.326Y-2.2
X4.3264Y-2.7941
X4.3268Y-2.2984
X4.3272Y-2.1118
X4.3272Y-2.587
X4.3272Y-2.6791
X4.3272Y-2.9091
X4.3276Y-3.1224
X4.3276Y-3.8835
X4.3276Y-3.9835
X4.3276Y-4.0835
X4.328Y-3.4496
X4.3283Y-3.2283
X4.3283Y-3.3335
X4.3283Y-3.5693
X4.3283Y-3.7839
X4.3287Y-2.4
X4.3287Y-2.4972
X4.3327Y-3.678
X4.4193Y-4.2839
X4.4193Y-4.9839
X4.4193Y-5.0839
X4.4193Y-5.1839
X4.4193Y-5.2839
X4.4193Y-5.3839
X4.4193Y-5.4839
X4.4193Y-5.5839
X4.4193Y-5.6839
X4.4193Y-5.7839
X4.4193Y-5.8839
X4.4193Y-5.9839
X4.4193Y-6.0839
X4.4209Y-4.1843
X4.4244Y-3.0122
X4.4256Y-2.7941
X4.4264Y-2.587
X4.4264Y-2.6791
X4.4264Y-2.9091
X4.4268Y-3.1224
X4.4272Y-2.2
X4.4272Y-3.4496
X4.4276Y-3.2283
X4.4276Y-3.3335
X4.4276Y-3.5693
X4.4276Y-3.7839
X4.4276Y-3.8835
X4.4276Y-3.9835
X4.4276Y-4.0835
X4.428Y-2.2984
X4.428Y-2.4
X4.428Y-2.4972
X4.4283Y-2.1118
X4.4319Y-3.678
X4.5193Y-4.2839
X4.5193Y-4.9839
X4.5193Y-5.0839
X4.5193Y-5.1839
X4.5193Y-5.2839
X4.5193Y-5.3839
X4.5193Y-5.4839
X4.5193Y-5.5839
X4.5193Y-5.6839
X4.5193Y-5.7839
X4.5193Y-5.8839
X4.5193Y-5.9839
X4.5193Y-6.0839
X4.5209Y-4.1843
X4.5244Y-3.0122
X4.5256Y-2.7941
X4.5264Y-2.587
X4.5264Y-2.6791
X4.5264Y-2.9091
X4.5268Y-3.1224
X4.5272Y-2.2
X4.5272Y-3.4496
X4.5276Y-3.2283
X4.5276Y-3.3335
X4.5276Y-3.5693
X4.5276Y-3.7839
X4.5276Y-3.8835
X4.5276Y-3.9835
X4.5276Y-4.0835
X4.528Y-2.2984
X4.528Y-2.4
X4.528Y-2.4972
X4.5283Y-2.1118
X4.5319Y-3.678
X4.6193Y-4.2839
X4.6193Y-4.9839
X4.6193Y-5.0839
X4.6193Y-5.1839
X4.6193Y-5.2839
X4.6193Y-5.3839
X4.6193Y-5.4839
X4.6193Y-5.5839
X4.6193Y-5.6839
X4.6193Y-5.7839
X4.6193Y-5.8839
X4.6193Y-5.9839
X4.6193Y-6.0839
X4.6205Y-3.7823
X4.6209Y-4.1843
X4.622Y-2.5843
X4.622Y-2.6764
X4.622Y-2.7764
X4.6228Y-2.1972
X4.6232Y-2.8807
X4.6232Y-2.9807
X4.6232Y-3.0807
X4.6232Y-3.1807
X4.6232Y-3.2807
X4.6232Y-3.3807
X4.6232Y-3.4807
X4.6232Y-3.5807
X4.6232Y-3.6807
X4.6232Y-3.8807
X4.6232Y-3.9807
X4.6232Y-4.0807
X4.6236Y-2.2957
X4.6236Y-2.3972
X4.6236Y-2.4945
X4.624Y-2.1091
X4.7193Y-4.2839
X4.7193Y-4.3839
X4.7193Y-4.4839
X4.7193Y-4.5839
X4.7193Y-4.6839
X4.7193Y-4.7839
X4.7193Y-4.8839
X4.7193Y-4.9839
X4.7193Y-5.0839
X4.7193Y-5.1839
X4.7193Y-5.2839
X4.7193Y-5.3839
X4.7193Y-5.4839
X4.7193Y-5.5839
X4.7193Y-5.6839
X4.7193Y-5.7839
X4.7193Y-5.8839
X4.7193Y-5.9839
X4.7193Y-6.0839
X4.7205Y-3.7823
X4.7209Y-4.1843
X4.722Y-2.5843
X4.722Y-2.6764
X4.722Y-2.7764
X4.7228Y-2.1972
X4.7232Y-2.8807
X4.7232Y-2.9807
X4.7232Y-3.0807
X4.7232Y-3.1807
X4.7232Y-3.2807
X4.7232Y-3.3807
X4.7232Y-3.4807
X4.7232Y-3.5878
X4.7232Y-3.6807
X4.7232Y-3.8807
X4.7232Y-3.9807
X4.7232Y-4.0807
X4.7236Y-2.2957
X4.7236Y-2.3972
X4.7236Y-2.4945
X4.724Y-2.1091
X4.8193Y-4.2839
X4.8193Y-4.3839
X4.8193Y-4.4839
X4.8193Y-4.5839
X4.8193Y-4.6839
X4.8193Y-4.7839
X4.8193Y-4.8839
X4.8193Y-4.9839
X4.8193Y-5.0839
X4.8193Y-5.1839
X4.8193Y-5.2839
X4.8193Y-5.3839
X4.8193Y-5.4839
X4.8193Y-5.5839
X4.8193Y-5.6839
X4.8193Y-5.7839
X4.8193Y-5.8839
X4.8193Y-5.9839
X4.8193Y-6.0839
X4.8205Y-3.7823
X4.8209Y-4.1843
X4.822Y-2.5843
X4.822Y-2.6764
X4.822Y-2.7764
X4.8228Y-2.1972
X4.8232Y-2.8807
X4.8232Y-2.9807
X4.8232Y-3.0807
X4.8232Y-3.1807
X4.8232Y-3.2807
X4.8232Y-3.3807
X4.8232Y-3.4807
X4.8232Y-3.5878
X4.8232Y-3.6807
X4.8232Y-3.8807
X4.8232Y-3.9807
X4.8232Y-4.0807
X4.8236Y-2.2957
X4.8236Y-2.3972
X4.8236Y-2.4945
X4.824Y-2.1091
X4.9193Y-4.2839
X4.9193Y-4.3839
X4.9193Y-4.4839
X4.9193Y-4.5839
X4.9193Y-4.6839
X4.9193Y-4.7839
X4.9193Y-4.8839
X4.9193Y-4.9839
X4.9193Y-5.0839
X4.9193Y-5.1839
X4.9193Y-5.2839
X4.9193Y-5.3839
X4.9193Y-5.4839
X4.9193Y-5.5839
X4.9193Y-5.6839
X4.9193Y-5.7839
X4.9193Y-5.8839
X4.9193Y-5.9839
X4.9193Y-6.0839
X4.9205Y-2.5827
X4.9205Y-2.6748
X4.9205Y-2.7748
X4.9209Y-4.1843
X4.9217Y-2.2992
X4.9217Y-2.8791
X4.9217Y-2.9791
X4.9217Y-3.0791
X4.9217Y-3.1791
X4.9217Y-3.2791
X4.9217Y-3.3791
X4.9217Y-3.4791
X4.9217Y-3.7791
X4.922Y-2.3957
X4.922Y-2.4929
X4.9228Y-2.1972
X4.923Y-3.5878
X4.9232Y-3.8807
X4.9232Y-3.9807
X4.9232Y-4.0807
X4.924Y-2.1091
X4.9244Y-3.6776
X5.0193Y-5.1839
X5.0193Y-5.2839
X5.0193Y-5.3839
X5.0193Y-5.4839
X5.0193Y-5.5839
X5.0193Y-5.6839
X5.0193Y-5.7839
X5.0193Y-5.8839
X5.0193Y-5.9839
X5.0193Y-6.0839
X5.0213Y-2.3016
X5.0217Y-3.7791
X5.0227Y-3.5878
X5.0228Y-2.1972
X5.0232Y-3.8807
X5.024Y-2.1091
X5.0244Y-3.6776
X5.1193Y-5.1839
X5.1193Y-5.2839
X5.1193Y-5.3839
X5.1193Y-5.4839
X5.1193Y-5.5839
X5.1193Y-5.6839
X5.1193Y-5.7839
X5.1193Y-5.8839
X5.1193Y-5.9839
X5.1193Y-6.0839
X5.1213Y-3.7827
X5.1224Y-3.5878
X5.1224Y-2.2008
X5.1228Y-3.8843
X5.1236Y-2.1126
X5.124Y-3.6811
X5.1252Y-2.3008
X5.2193Y-2.3024
X5.2193Y-3.7827
X5.2193Y-5.1839
X5.2193Y-5.2839
X5.2193Y-5.3839
X5.2193Y-5.4839
X5.2193Y-5.5839
X5.2193Y-5.6839
X5.2193Y-5.7839
X5.2193Y-5.8839
X5.2193Y-5.9839
X5.2193Y-6.0839
X5.2205Y-2.2008
X5.2209Y-3.8843
X5.2217Y-2.1126
X5.222Y-3.6811
X5.2222Y-3.5878
X5.3193Y-3.7827
X5.3193Y-5.1839
X5.3193Y-5.2839
X5.3193Y-5.3839
X5.3193Y-5.4839
X5.3193Y-5.5839
X5.3193Y-5.6839
X5.3193Y-5.7839
X5.3193Y-5.8839
X5.3193Y-5.9839
X5.3193Y-6.0839
X5.3205Y-2.2008
X5.3209Y-3.8843
X5.3213Y-2.2992
X5.3217Y-2.1126
X5.3219Y-3.5878
X5.322Y-3.6811
X5.4193Y-3.7827
X5.4193Y-5.1839
X5.4193Y-5.2839
X5.4193Y-5.3839
X5.4193Y-5.4839
X5.4193Y-5.5839
X5.4193Y-5.6839
X5.4193Y-5.7839
X5.4193Y-5.8839
X5.4193Y-5.9839
X5.4193Y-6.0839
X5.4205Y-2.2008
X5.4209Y-3.8843
X5.4213Y-2.2992
X5.4217Y-3.5878
X5.4217Y-2.1126
X5.422Y-3.6811
X5.5193Y-3.7827
X5.5193Y-5.1839
X5.5193Y-5.2839
X5.5193Y-5.3839
X5.5193Y-5.4839
X5.5193Y-5.5839
X5.5193Y-5.6839
X5.5193Y-5.7839
X5.5193Y-5.8839
X5.5193Y-5.9839
X5.5193Y-6.0839
X5.5205Y-2.2008
X5.5209Y-3.8843
X5.5213Y-2.2992
X5.5214Y-3.5878
X5.5217Y-2.1126
X5.522Y-3.6811
X5.6193Y-3.7827
X5.6193Y-4.2839
X5.6193Y-4.3839
X5.6193Y-4.4839
X5.6193Y-4.5839
X5.6193Y-4.6839
X5.6193Y-4.7839
X5.6193Y-4.8839
X5.6193Y-4.9839
X5.6193Y-5.0839
X5.6193Y-5.1839
X5.6193Y-5.2839
X5.6193Y-5.3839
X5.6193Y-5.4839
X5.6193Y-5.5839
X5.6193Y-5.6839
X5.6193Y-5.7839
X5.6193Y-5.8839
X5.6193Y-5.9839
X5.6193Y-6.0839
X5.6197Y-2.5878
X5.6197Y-2.6799
X5.6197Y-2.7799
X5.6205Y-2.2008
X5.6209Y-2.8843
X5.6209Y-2.9843
X5.6209Y-3.0843
X5.6209Y-3.1843
X5.6209Y-3.2843
X5.6209Y-3.3843
X5.6209Y-3.4843
X5.6209Y-3.8843
X5.6209Y-3.9843
X5.6209Y-4.0843
X5.6209Y-4.1843
X5.6211Y-3.5878
X5.6213Y-2.2992
X5.6213Y-2.4008
X5.6213Y-2.498
X5.6217Y-2.1126
X5.622Y-3.6811
X5.7181Y-3.7858
X5.7193Y-4.2839
X5.7193Y-4.3839
X5.7193Y-4.4839
X5.7193Y-4.5839
X5.7193Y-4.6839
X5.7193Y-4.7839
X5.7193Y-4.8839
X5.7193Y-4.9839
X5.7193Y-5.0839
X5.7193Y-5.1839
X5.7193Y-5.2839
X5.7193Y-5.3839
X5.7193Y-5.4839
X5.7193Y-5.5839
X5.7193Y-5.6839
X5.7193Y-5.7839
X5.7193Y-5.8839
X5.7193Y-5.9839
X5.7193Y-6.0839
X5.7197Y-2.5878
X5.7197Y-2.6799
X5.7197Y-2.7799
X5.7205Y-2.2008
X5.7209Y-2.8843
X5.7209Y-2.9843
X5.7209Y-3.0843
X5.7209Y-3.1843
X5.7209Y-3.2843
X5.7209Y-3.3843
X5.7209Y-3.4843
X5.7209Y-3.5878
X5.7209Y-3.6843
X5.7209Y-3.8843
X5.7209Y-3.9843
X5.7209Y-4.0843
X5.7209Y-4.1843
X5.7213Y-2.2992
X5.7213Y-2.4008
X5.7213Y-2.498
X5.7217Y-2.1126
T2
X3.1193Y-6.3839
X3.1193Y-6.5839
X3.2193Y-6.3839
X3.2193Y-6.5839
X3.3193Y-6.3839
X3.3193Y-6.5839
X3.4193Y-6.3839
X3.4193Y-6.5839
X3.5193Y-6.3839
X3.5193Y-6.5839
X3.6193Y-6.3839
X3.6193Y-6.5839
X3.7193Y-6.3839
X3.7193Y-6.5839
X3.8193Y-6.3839
X3.8193Y-6.5839
X3.9193Y-6.3839
X3.9193Y-6.5839
X4.0193Y-6.3839
X4.0193Y-6.5839
X4.1193Y-6.3839
X4.1193Y-6.5839
X4.2193Y-6.3839
X4.2193Y-6.5839
X4.3193Y-6.3839
X4.3193Y-6.5839
X4.4193Y-6.3839
X4.4193Y-6.5839
X4.5193Y-6.3839
X4.5193Y-6.5839
X4.6193Y-6.3839
X4.6193Y-6.5839
X4.7193Y-6.3839
X4.7193Y-6.5839
X4.8193Y-6.3839
X4.8193Y-6.5839
X4.9193Y-6.3839
X4.9193Y-6.5839
X5.0193Y-6.3839
X5.0193Y-6.5839
X5.1193Y-6.3839
X5.1193Y-6.5839
X5.2193Y-6.3839
X5.2193Y-6.5839
X5.3193Y-6.3839
X5.3193Y-6.5839
X5.4193Y-6.3839
X5.4193Y-6.5839
X5.5193Y-6.3839
X5.5193Y-6.5839
T3
X2.3193Y-2.6728
X2.3193Y-2.7839
X2.3193Y-2.8839
X2.3193Y-2.9839
X2.3193Y-3.0839
X2.3193Y-3.1839
X2.3193Y-3.2839
X2.3193Y-3.3839
X2.3193Y-3.4839
X2.3193Y-3.5839
X2.3193Y-3.6839
X2.3193Y-3.7839
X2.3193Y-3.8839
X2.3193Y-3.9839
X2.3193Y-4.0839
X2.3193Y-4.1839
X2.3193Y-4.2839
X2.3193Y-4.3839
X2.3193Y-4.4839
X2.3193Y-4.5839
X2.3193Y-4.6839
X2.3193Y-4.7839
X2.3193Y-4.8839
X2.3193Y-4.9839
X2.3193Y-5.0839
X2.3193Y-5.1839
X2.3193Y-5.2839
X2.3193Y-5.3839
X2.3193Y-5.4839
X2.3193Y-5.5839
X2.3193Y-5.6839
X2.3193Y-5.7839
X2.3193Y-5.8839
X2.3193Y-5.9839
X2.3193Y-6.0839
X2.3205Y-2.1681
X2.3205Y-2.2681
X2.3205Y-2.3681
X2.3205Y-2.4681
X2.3205Y-2.5681
X5.9193Y-2.6839
X5.9193Y-2.7839
X5.9193Y-2.8839
X5.9193Y-2.9839
X5.9193Y-3.0839
X5.9193Y-3.1839
X5.9193Y-3.2839
X5.9193Y-3.3839
X5.9193Y-3.4839
X5.9193Y-3.5839
X5.9193Y-3.6839
X5.9193Y-3.7839
X5.9193Y-3.8839
X5.9193Y-3.9839
X5.9193Y-4.0839
X5.9193Y-4.1839
X5.9193Y-4.2839
X5.9193Y-4.3839
X5.9193Y-4.4839
X5.9193Y-4.5839
X5.9193Y-4.6839
X5.9193Y-4.7839
X5.9193Y-4.8839
X5.9193Y-4.9839
X5.9193Y-5.0839
X5.9193Y-5.1839
X5.9193Y-5.2839
X5.9193Y-5.3839
X5.9193Y-5.4839
X5.9193Y-5.5839
X5.9193Y-5.6839
X5.9193Y-5.7839
X5.9193Y-5.8839
X5.9193Y-5.9839
X5.9193Y-6.0839
X5.9201Y-2.1756
X5.9201Y-2.2756
X5.9201Y-2.3756
X5.9201Y-2.4756
X5.9201Y-2.5756
T0
M30
